<svg xmlns="http://www.w3.org/2000/svg" xmlns:xlink="http://www.w3.org/1999/xlink" width="1284" height="1080" viewBox="0 0 1284 1080"><defs><clipPath id="clip-Web_1920_1"><rect width="1284" height="1080"/></clipPath></defs><g id="Web_1920_1" clip-path="url(#clip-Web_1920_1)" data-name="Web 1920 – 1"><g id="Group_1" data-name="Group 1" transform="translate(-141.381 -88.454)"><path id="Path_2" fill="#3f3d56" d="M587.052,626.5H317.5V568H587.052ZM321,622.722H583.551V571.774H321Z" data-name="Path 2" transform="translate(-147.725 208.251)"/><ellipse id="Ellipse_1" cx="18" cy="19" fill="#6c63ff" data-name="Ellipse 1" rx="18" ry="19" transform="translate(388.381 786.454)"/><ellipse id="Ellipse_2" cx="18" cy="19" fill="#6c63ff" data-name="Ellipse 2" rx="18" ry="19" transform="translate(339.381 786.454)"/><ellipse id="Ellipse_3" cx="17.5" cy="19" fill="#6c63ff" data-name="Ellipse 3" rx="17.5" ry="19" transform="translate(290.381 786.454)"/><ellipse id="Ellipse_4" cx="17.5" cy="19" fill="#6c63ff" data-name="Ellipse 4" rx="17.5" ry="19" transform="translate(241.381 786.454)"/><ellipse id="Ellipse_5" cx="17.5" cy="19" fill="#6c63ff" data-name="Ellipse 5" rx="17.5" ry="19" transform="translate(192.381 786.454)"/><rect id="Rectangle_1" width="216" height="49" fill="#6c63ff" data-name="Rectangle 1" transform="translate(903.381 877.454)"/><rect id="Rectangle_2" width="319" height="45" fill="#f0f0f0" data-name="Rectangle 2" transform="translate(848.381 635.454)"/><path id="Path_4" fill="#3f3d56" d="M1109.41,1180.693H711.434c-25.909-.032-46.9-22.667-46.934-50.6v-797c.029-27.931,21.025-50.566,46.934-50.6H1109.41c25.909.032,46.905,22.667,46.934,50.6v797c-.03,27.931-21.025,50.566-46.934,50.6ZM711.434,286.274C687.458,286.3,668.028,307.25,668,333.1v797c.027,25.848,19.457,46.795,43.434,46.824H1109.41c23.977-.029,43.406-20.976,43.434-46.824v-797c-.027-25.848-19.457-46.794-43.434-46.824Z" data-name="Path 4" transform="translate(112.643 -44.976)"/><path id="Path_5" fill="#3f3d56" d="M782.5,313.143c-5.8,0-10.5-5.069-10.5-11.322s4.7-11.322,10.5-11.322,10.5,5.069,10.5,11.322S788.3,313.137,782.5,313.143Zm0-18.87a7.569,7.569,0,1,0,7,7.548A7.29,7.29,0,0,0,782.5,294.274Z" data-name="Path 5" transform="translate(193.304 -37.88)"/><rect id="Rectangle_4" width="77.015" height="3.774" fill="#3f3d56" data-name="Rectangle 4" transform="translate(1002.061 262.055)"/><path id="Path_6" fill="#6c63ff" d="M987.527,311.5V462.457c-77.327,0-140.02-67.581-140.027-150.95Z" data-name="Path 6" transform="translate(249.954 -19.254)"/><path id="Path_7" fill="#3f3d56" d="M1113.833,1104.91H681.5V310.5h432.333ZM685,1101.136h425.332V314.274H685Z" data-name="Path 7" transform="translate(125.398 -20.141)"/><ellipse id="Ellipse_6" cx="47" cy="51.5" data-name="Ellipse 6" opacity=".1" rx="47" ry="51.5" transform="translate(1089.381 331.454)"/><ellipse id="Ellipse_7" cx="47.5" cy="51.5" fill="#6c63ff" data-name="Ellipse 7" rx="47.5" ry="51.5" transform="translate(1081.381 337.454)"/><rect id="Rectangle_5" width="66" height="27" fill="#3f3d56" data-name="Rectangle 5" transform="translate(826.381 321.454)"/><rect id="Rectangle_6" width="66" height="26" fill="#3f3d56" data-name="Rectangle 6" transform="translate(863.381 573.454)"/><path id="Path_8" fill="#3f3d56" d="M1035.562,535.561H713.5V486.5h322.062ZM717,531.787h315.061V490.274H717Z" data-name="Path 8" transform="translate(149.409 135.964)"/><rect id="Rectangle_7" width="319" height="45" fill="#f0f0f0" data-name="Rectangle 7" transform="translate(848.381 779.454)"/><rect id="Rectangle_8" width="66" height="27" fill="#3f3d56" data-name="Rectangle 8" transform="translate(863.381 717.454)"/><path id="Path_9" fill="#3f3d56" d="M1035.562,611.561H713.5V562.5h322.062ZM717,607.787h315.061V566.274H717Z" data-name="Path 9" transform="translate(149.409 203.373)"/><path id="Path_10" fill="#3f3d56" d="M963.043,666.335H742.5V613.5H963.043ZM746,662.561H959.542V617.274H746Z" data-name="Path 10" transform="translate(171.169 248.608)"/><path id="Path_11" fill="#6c63ff" d="M907.51,511.37c0,7.957-4.632,15.061-11.579,17.755a16.718,16.718,0,0,1-19.42-5.735l-.018-.019a20.062,20.062,0,0,1-1.789-21.177c3.5-6.784,10.5-10.563,17.637-9.523S905.3,499.355,907,506.9a.019.019,0,0,0,.005.013.017.017,0,0,0,.013.005,20.729,20.729,0,0,1,.49,4.453Z" data-name="Path 11" transform="translate(268.71 141.286)"/><path id="Path_12" d="M906.006,507.822c0,7.957-4.632,15.061-11.579,17.755a16.718,16.718,0,0,1-19.42-5.735l-.017-.019a20.728,20.728,0,0,1-.49-4.453c0-7.957,4.632-15.06,11.579-17.755a16.718,16.718,0,0,1,19.42,5.735.019.019,0,0,0,0,.013.017.017,0,0,0,.013.005,20.734,20.734,0,0,1,.49,4.453Z" data-name="Path 12" opacity=".1" transform="translate(270.213 144.833)"/><ellipse id="Ellipse_8" cx="18" cy="19" fill="#6c63ff" data-name="Ellipse 8" rx="18" ry="19" transform="translate(1147.381 644.454)"/><path id="Path_13" fill="#6c63ff" d="M907.51,587.37c0,7.957-4.632,15.061-11.579,17.755a16.717,16.717,0,0,1-19.42-5.735l-.018-.019a20.063,20.063,0,0,1-1.789-21.178c3.5-6.784,10.5-10.563,17.637-9.523S905.3,575.355,907,582.9a.019.019,0,0,0,.005.013.016.016,0,0,0,.013.005,20.728,20.728,0,0,1,.49,4.453Z" data-name="Path 13" transform="translate(268.71 208.694)"/><path id="Path_14" d="M906.006,583.822c0,7.957-4.632,15.061-11.579,17.755a16.718,16.718,0,0,1-19.42-5.735l-.017-.019a20.728,20.728,0,0,1-.49-4.453c0-7.957,4.632-15.06,11.579-17.755a16.718,16.718,0,0,1,19.42,5.735.018.018,0,0,0,0,.013.017.017,0,0,0,.013.005,20.735,20.735,0,0,1,.49,4.453Z" data-name="Path 14" opacity=".1" transform="translate(270.213 212.242)"/><ellipse id="Ellipse_9" cx="18" cy="18.5" fill="#6c63ff" data-name="Ellipse 9" rx="18" ry="18.5" transform="translate(1147.381 789.454)"/><path id="Path_15" fill="#3f3d56" d="M878.5,248.787c-11.6,0-21-10.138-21-22.644s9.4-22.644,21-22.644,21,10.138,21,22.644-9.409,22.629-21,22.643Zm0-41.513c-9.667,0-17.5,8.448-17.5,18.87s7.837,18.87,17.5,18.87,17.5-8.448,17.5-18.87-7.841-18.858-17.5-18.87Z" data-name="Path 15" transform="translate(257.458 -115.046)"/><path id="Path_16" fill="#3f3d56" d="M625.009,417.561H579.5V368.5h45.509ZM583,413.787h38.507V372.274H583Z" data-name="Path 16" transform="translate(48.864 31.303)"/><path id="Path_17" fill="#3f3d56" d="M1021.009,611.561H975.5V562.5h45.509ZM979,607.787h38.507V566.274H979Z" data-name="Path 17" transform="translate(345.998 203.373)"/><path id="Path_18" fill="#2f2e41" d="M488.5,445.506l7.81,4.535,26.574,15.44,42.9,24.919,25-50.007a43.462,43.462,0,0,0,2.943-30.961,40.115,40.115,0,0,0-18.248-24.117c-19.131-11.137-42.743-7.683-58.429,8.547l-.013.014a53.8,53.8,0,0,0-9.408,13.349Z" data-name="Path 18" transform="translate(-19.415 40.468)"/><path id="Path_19" fill="#ffb8b8" d="M373.19,545.593l-5.241,62.154-19.656,2.825-13.1-70.631Z" data-name="Path 19" transform="translate(212.991 450.37)"/><path id="Path_20" fill="#2f2e41" d="M540.8,722.261s24.9-14.126,30.138-2.825c0,0-3.931,33.9,11.793,38.141s22.276,33.9,0,36.728-36.69-5.651-44.552-5.651,0-29.665,0-29.665Z" data-name="Path 20" transform="translate(15.24 338.682)"/><path id="Path_21" fill="#ffb8b8" d="M266.316,545.593l5.242,62.154,19.655,2.825,13.1-70.631Z" data-name="Path 21" transform="translate(161.312 450.37)"/><path id="Path_22" fill="#2f2e41" d="M506.163,722.261s-24.9-14.126-30.138-2.825c0,0,3.931,33.9-11.793,38.141s-22.276,33.9,0,36.728,36.69-5.651,44.552-5.651,0-29.665,0-29.665Z" data-name="Path 22" transform="translate(-48.397 338.682)"/><ellipse id="Ellipse_10" cx="34.069" cy="36.728" fill="#ffb8b8" data-name="Ellipse 10" rx="34.069" ry="36.728" transform="translate(501.008 423.846)"/><path id="Path_23" fill="#ffb8b8" d="M464.067,472.75l27.517,46.617,32.759-2.825,53.725,4.238s5.071-10.934,9.212-21.571a88.124,88.124,0,0,0,5.2-16.57c1.31-9.889-17.035-19.777-17.035-19.777s-.721-.141-1.926-.452c-1.6-.41-4.062-1.088-6.761-2.077-6.093-2.232-13.418-6.018-14.9-11.6-2.621-9.888,17.035-24.015,17.035-24.015l-23.586-24.015s-20.953,31.375-46.4,38.522a37.973,37.973,0,0,1-4.482.989l-.223.043C466.688,444.5,464.067,472.75,464.067,472.75Z" data-name="Path 23" transform="translate(-37.75 59.868)"/><path id="Path_24" fill="#ffb8b8" d="M491.8,432.148l-14.414,12.714s-11.793,60.743-7.862,77.695-1.31,32.491-1.31,35.316-11.793,108.773-11.793,108.773-23.586,56.505,1.31,50.855,15.724-62.156,15.724-62.156l30.138-98.884V473.115Z" data-name="Path 24" transform="translate(-51.069 87.756)"/><path id="Path_25" fill="#ffb8b8" d="M533.691,438.138l10.483,8.476,5.241,118.661,39.311,101.71s28.828,49.442,10.483,50.855-30.138-50.855-30.138-50.855l-35.38-97.472-5.241-94.646Z" data-name="Path 25" transform="translate(10.559 93.068)"/><path id="Path_26" fill="#2f2e41" d="M521.561,442.629s26.207,19.777,68.138,12.714c0,0,11.793,25.427,5.241,39.554s7.862,48.03,10.483,52.267,32.759,91.821,43.242,186.468,39.311,159.628,14.414,168.1-76,18.364-81.242,9.888-13.1-218.958-13.1-218.958l-14.414,80.52s19.655,137.025,5.241,139.851-104.828-5.651-102.208-22.6,28.828-105.947,28.828-105.947-1.31-177.992,24.9-211.895c0,0,10.483-18.364-3.931-42.379s-13.1-62.156-13.1-62.156S504.526,468.057,521.561,442.629Z" data-name="Path 26" transform="translate(-42.829 97.052)"/><path id="Path_27" fill="#2f2e41" d="M282.913,280.61l22.054,52.31,5.24-2.825-22.814-50.474Z" data-name="Path 27" transform="translate(173.765 219.475)"/><path id="Path_28" fill="#2f2e41" d="M522.737,432.306l16.55,39.257,3.97-.381-1.35-6.682L529.5,434.382C527.9,433.973,525.437,433.295,522.737,432.306Z" data-name="Path 28" transform="translate(6.273 87.896)"/><path id="Path_29" fill="#2f2e41" d="M493.385,450.035c2.576,8.935,9.869,15.335,18.507,16.241s16.939-3.857,21.065-12.088c-16.576-23.365-2.359-38.042,24.569-49.146a24.706,24.706,0,0,0-2.319-25.766,47.977,47.977,0,0,0-41.08,14.578l-.013.014-19.131,38.254a24.765,24.765,0,0,0-1.6,17.912Z" data-name="Path 29" transform="translate(-16.487 40.473)"/><ellipse id="Ellipse_11" cx="4.586" cy="8.476" fill="#ffb8b8" data-name="Ellipse 11" rx="4.586" ry="8.476" transform="translate(510.18 456.336)"/><path id="Path_30" fill="#2f2e41" d="M522.408,408.93,561.8,428.17l7.22-17.178a42.112,42.112,0,0,0-7.6-17.135L534.306,380.62Z" data-name="Path 30" transform="translate(6.026 42.053)"/><ellipse id="Ellipse_12" cx="18" cy="19" fill="#6c63ff" data-name="Ellipse 12" rx="18" ry="19" transform="translate(605.381 792.454)"/><ellipse id="Ellipse_13" cx="11.439" cy="12.332" fill="#ff6584" data-name="Ellipse 13" rx="11.439" ry="12.332" transform="translate(271.801 914.894)"/><rect id="Rectangle_10" width="3.501" height="140.411" fill="#3f3d56" data-name="Rectangle 10" transform="translate(337.533 991.498)"/><ellipse id="Ellipse_14" cx="18.418" cy="19.856" fill="#3f3d56" data-name="Ellipse 14" rx="18.418" ry="19.856" transform="translate(320.865 971.642)"/><path id="Path_31" fill="#3f3d56" d="M311.726,754.947s-2.631-61.009-56.571-53.918" data-name="Path 31" transform="translate(27.557 323.089)"/></g></g></svg>