<svg xmlns="http://www.w3.org/2000/svg" xmlns:xlink="http://www.w3.org/1999/xlink" width="1007" height="1080" viewBox="0 0 1007 1080">
  <defs>
    <linearGradient id="linear-gradient" x1="0.5" y1="1" x2="0.5" gradientUnits="objectBoundingBox">
      <stop offset="0" stop-color="gray" stop-opacity="0.251"/>
      <stop offset="0.54" stop-color="gray" stop-opacity="0.122"/>
      <stop offset="1" stop-color="gray" stop-opacity="0.102"/>
    </linearGradient>
    <linearGradient id="linear-gradient-2" x1="0.5" y1="1" x2="0.5" y2="0" xlink:href="#linear-gradient"/>
    <linearGradient id="linear-gradient-3" x1="1.241" y1="1.124" x2="1.241" y2="0.124" xlink:href="#linear-gradient"/>
    <linearGradient id="linear-gradient-4" x1="0.5" y1="1" x2="0.5" y2="0" xlink:href="#linear-gradient"/>
    <linearGradient id="linear-gradient-5" x1="1.307" y1="2.047" x2="1.307" y2="1.047" xlink:href="#linear-gradient"/>
    <linearGradient id="linear-gradient-6" x1="0.5" y1="1" x2="0.5" y2="0" xlink:href="#linear-gradient"/>
    <linearGradient id="linear-gradient-7" x1="0.5" y1="1" x2="0.5" y2="0" xlink:href="#linear-gradient"/>
    <linearGradient id="linear-gradient-8" x1="0.5" y1="1" x2="0.5" y2="0" xlink:href="#linear-gradient"/>
    <linearGradient id="linear-gradient-9" x1="0.5" y1="1" x2="0.5" y2="0" xlink:href="#linear-gradient"/>
    <clipPath id="clip-Web_1920_2">
      <rect width="1007" height="1080"/>
    </clipPath>
  </defs>
  <g id="Web_1920_2" data-name="Web 1920 – 2" clip-path="url(#clip-Web_1920_2)">
    <g id="Group_14" data-name="Group 14" transform="translate(66.127 81.33)">
      <circle id="Ellipse_52" data-name="Ellipse 52" cx="360.42" cy="360.42" r="360.42" transform="translate(77.453 119.618)" fill="none" stroke="#fff" stroke-miterlimit="10" stroke-width="15" stroke-dasharray="12"/>
      <circle id="Ellipse_53" data-name="Ellipse 53" cx="436.873" cy="436.873" r="436.873" transform="translate(1 43.165)" fill="none" stroke="#fff" stroke-miterlimit="10" stroke-width="15" stroke-dasharray="12"/>
      <path id="Path_159" data-name="Path 159" d="M928.615,599.817a98.551,98.551,0,0,0-195.379-18.373L430.35,573.228l3.325,52.036s-43.19,99.655,183.8,126.208V852.2H879.892V684.728A98.49,98.49,0,0,0,928.615,599.817Z" transform="translate(-198.354 19.402)" fill="url(#linear-gradient)"/>
      <path id="Path_160" data-name="Path 160" d="M442.228,614.01S400.871,709.442,618.251,734.9v96.5H869.562V575.844L439,564.17Z" transform="translate(-196.507 32.841)" fill="#ff5dbb" stroke="#fff" stroke-width="4"/>
      <path id="Path_161" data-name="Path 161" d="M583.9,305.165h0a46.333,46.333,0,0,1-63.711,14.477L385.26,230.727a46.333,46.333,0,0,1-14.477-63.711h0a46.333,46.333,0,0,1,63.662-14.477l134.933,88.916A46.333,46.333,0,0,1,583.9,305.165Z" transform="translate(-212.581 -56.56)" fill="url(#linear-gradient-2)"/>
      <path id="Path_162" data-name="Path 162" d="M575.021,299.2h0a43.068,43.068,0,0,1-59.22,13.458L390.333,229.943a43.068,43.068,0,0,1-13.458-59.22h0A43.068,43.068,0,0,1,436.1,157.265l125.443,82.666A43.068,43.068,0,0,1,575.021,299.2Z" transform="translate(-211.174 -55.449)" fill="#ff5dbb" stroke="#fff" stroke-width="4"/>
      <circle id="Ellipse_54" data-name="Ellipse 54" cx="94.377" cy="94.377" r="94.377" transform="translate(530.975 528.094)" fill="#ff5dbb" stroke="#fff" stroke-width="4"/>
      <rect id="Rectangle_11" data-name="Rectangle 11" width="391.268" height="706.229" rx="12.25" transform="translate(231.96)" fill="url(#linear-gradient-3)"/>
      <rect id="Rectangle_12" data-name="Rectangle 12" width="380.686" height="687.152" rx="13.64" transform="translate(237.239 9.551)" fill="#fff"/>
      <path id="Path_163" data-name="Path 163" d="M718.971,94.28a30.86,30.86,0,0,1-30.423,26.249H557.073A30.86,30.86,0,0,1,526.662,94.28H457.005a14.453,14.453,0,0,0-14.465,14.453V732.49a14.453,14.453,0,0,0,14.453,14.465H789.672A14.453,14.453,0,0,0,804.137,732.5V108.745A14.453,14.453,0,0,0,789.684,94.28Z" transform="translate(-195.751 -67.497)" fill="#6c63ff"/>
      <rect id="Rectangle_13" data-name="Rectangle 13" width="84.838" height="5.303" rx="2" transform="translate(385.703 34.998)" fill="#dbdbdb"/>
      <circle id="Ellipse_55" data-name="Ellipse 55" cx="3.179" cy="3.179" r="3.179" transform="translate(485.382 33.943)" fill="#dbdbdb"/>
      <path id="Path_164" data-name="Path 164" d="M825.3,657.849h0c-27.389,6.335-46.187-11.529-52.522-38.906l-62.934-233.69a51.26,51.26,0,0,1,38.287-61.3h0a51.26,51.26,0,0,1,61.3,38.287l51.357,239.722C867.121,629.356,852.68,651.515,825.3,657.849Z" transform="translate(-138.947 -18.729)" fill="url(#linear-gradient-4)"/>
      <rect id="Rectangle_14" data-name="Rectangle 14" width="85.894" height="342.957" rx="35.39" transform="translate(570.063 326.729) rotate(-13.01)" fill="#ff5dbb" stroke="#fff" stroke-width="4"/>
      <rect id="Rectangle_15" data-name="Rectangle 15" width="359.206" height="83.734" transform="translate(360.121 832.667)" fill="url(#linear-gradient-5)"/>
      <rect id="Rectangle_16" data-name="Rectangle 16" width="339.79" height="65.531" transform="translate(369.83 842.375)" fill="#4d8af0"/>
      <path id="Path_165" data-name="Path 165" d="M532.744,506.256h0A45.775,45.775,0,0,1,469.8,520.564L379.3,462.011A45.775,45.775,0,0,1,365,399.065h0a45.775,45.775,0,0,1,62.946-14.308l90.493,58.553a45.775,45.775,0,0,1,14.308,62.946Z" transform="translate(-213.798 -6.96)" fill="url(#linear-gradient-6)"/>
      <path id="Path_166" data-name="Path 166" d="M508.1,605.387h0a46.187,46.187,0,0,1-63.516,14.441l-56.053-40.872a46.187,46.187,0,0,1-14.441-63.516h0A46.187,46.187,0,0,1,437.6,501l56.053,40.884a46.187,46.187,0,0,1,14.441,63.5Z" transform="translate(-211.87 17.848)" fill="url(#linear-gradient-7)"/>
      <g id="Group_13" data-name="Group 13" transform="translate(318.436 243.981)" opacity="0.5">
        <circle id="Ellipse_56" data-name="Ellipse 56" cx="109.145" cy="109.145" r="109.145" fill="url(#linear-gradient-8)"/>
      </g>
      <circle id="Ellipse_57" data-name="Ellipse 57" cx="102.726" cy="102.726" r="102.726" transform="translate(324.856 250.401)" fill="#69f0ae"/>
      <path id="Path_167" data-name="Path 167" d="M318.605,287.6l38.518,35.314L411.7,242.66l19.271,16.055-73.844,96.306L302.55,294.029Z" transform="translate(64.391 51.816)" fill="#fff"/>
      <path id="Path_168" data-name="Path 168" d="M502.692,601.542h0A43.068,43.068,0,0,1,443.472,615l-52.279-38.056a43.068,43.068,0,0,1-13.458-59.22h0a43.068,43.068,0,0,1,59.22-13.458l52.267,38.129A43.068,43.068,0,0,1,502.692,601.542Z" transform="translate(-210.99 18.648)" fill="#ff5dbb" stroke="#fff" stroke-width="4"/>
      <path id="Path_169" data-name="Path 169" d="M526.825,502.27h0A43.069,43.069,0,0,1,467.6,515.728l-85.142-55.095A43.068,43.068,0,0,1,369,401.413h0a43.068,43.068,0,0,1,59.221-13.458l85.142,55.094A43.068,43.068,0,0,1,526.825,502.27Z" transform="translate(-212.854 -6.189)" fill="#ff5dbb" stroke="#fff" stroke-width="4"/>
      <path id="Path_170" data-name="Path 170" d="M556.348,407.5h0a45.993,45.993,0,0,1-63.237,14.368L378.431,347.2a45.993,45.993,0,0,1-14.368-63.237h0A45.993,45.993,0,0,1,427.3,269.593l114.679,74.669A45.993,45.993,0,0,1,556.348,407.5Z" transform="translate(-214.004 -31.558)" fill="url(#linear-gradient-9)"/>
      <path id="Path_171" data-name="Path 171" d="M549.1,402.681h0a43.068,43.068,0,0,1-59.221,13.458L382.473,346.2a43.068,43.068,0,0,1-13.458-59.221h0a43.068,43.068,0,0,1,59.221-13.458l107.4,69.936A43.068,43.068,0,0,1,549.1,402.681Z" transform="translate(-212.852 -30.624)" fill="#ff5dbb" stroke="#fff" stroke-width="4"/>
    </g>
  </g>
</svg>
