<svg xmlns="http://www.w3.org/2000/svg" xmlns:xlink="http://www.w3.org/1999/xlink" width="1007" height="1080" viewBox="0 0 1007 1080">
  <defs>
    <clipPath id="clip-Web_1920_3">
      <rect width="1007" height="1080"/>
    </clipPath>
  </defs>
  <g id="Web_1920_3" data-name="Web 1920 – 3" clip-path="url(#clip-Web_1920_3)">
    <g id="Group_15" data-name="Group 15" transform="translate(-15 225)">
      <path id="Path_173" data-name="Path 173" d="M740.513,125.315V992.2a38.97,38.97,0,0,1-38.958,38.931H349.628A38.889,38.889,0,0,1,310.671,992.2V125.315a38.955,38.955,0,0,1,38.961-38.957h52.662v6.754A32.08,32.08,0,0,0,434.368,125.2H613.356a31.815,31.815,0,0,0,19.017-6.259,29.8,29.8,0,0,0,3.156-2.648,31.986,31.986,0,0,0,9.9-23.177V86.358h56.129a38.946,38.946,0,0,1,38.958,38.957Z" transform="translate(-182.935 -244.54)" fill="#3f3d56"/>
      <circle id="Ellipse_58" data-name="Ellipse 58" cx="9.362" cy="9.362" r="9.362" transform="translate(216.416 -23.108)" fill="#f2f2f2"/>
      <path id="Path_174" data-name="Path 174" d="M554.377,108.738a29.8,29.8,0,0,1-3.156,2.648,167.5,167.5,0,0,0,108.139,80.5v-4.173a163.558,163.558,0,0,1-104.983-78.971Z" transform="translate(-101.782 -236.99)" fill="#6c63ff"/>
      <path id="Path_175" data-name="Path 175" d="M494.877,115.4h-4.387A242.957,242.957,0,0,0,679.848,266.587v-4.146A238.786,238.786,0,0,1,494.877,115.4Z" transform="translate(-122.27 -234.743)" fill="#6c63ff"/>
      <path id="Path_176" data-name="Path 176" d="M434.417,115.4h-4.226c35.346,122.69,142,214.019,270,228.85v-4.079C574.412,325.4,469.589,235.814,434.417,115.4Z" transform="translate(-142.613 -234.743)" fill="#6c63ff"/>
      <path id="Path_177" data-name="Path 177" d="M267.775,160.437h-2.437V158h-.475v2.437h-2.438v.476h2.438v2.437h.475v-2.437h2.437Z" transform="translate(-72.757 -104.878)" fill="#f2f2f2"/>
      <path id="Path_178" data-name="Path 178" d="M390.775,69.437h-2.437V67h-.475v2.437h-2.438v.476h2.438v2.437h.475V69.913h2.437Z" transform="translate(-31.262 -135.579)" fill="#f2f2f2"/>
      <path id="Path_179" data-name="Path 179" d="M285.775,232.437h-2.437V230h-.475v2.437h-2.438v.476h2.438v2.437h.475v-2.437h2.437Z" transform="translate(-66.685 -80.588)" fill="#f2f2f2"/>
      <path id="Path_180" data-name="Path 180" d="M369.775,179.437h-2.437V177h-.475v2.437h-2.438v.476h2.438v2.437h.475v-2.437h2.437Z" transform="translate(-38.346 -98.468)" fill="#f2f2f2"/>
      <path id="Path_181" data-name="Path 181" d="M489.775,212.437h-2.437V210h-.475v2.437h-2.438v.476h2.438v2.437h.475v-2.437h2.437Z" transform="translate(2.138 -87.335)" fill="#f2f2f2"/>
      <circle id="Ellipse_59" data-name="Ellipse 59" cx="5.349" cy="5.349" r="5.349" transform="translate(458.48 3.639)" fill="#ff6584"/>
      <path id="Path_182" data-name="Path 182" d="M419.446,305.158l-3.036.468c.95,6.072,1.7,12.277,2.247,18.416l3.063-.267C421.172,317.555,420.409,311.3,419.446,305.158Z" transform="translate(-147.262 -170.724)" fill="#e6e6e6"/>
      <path id="Path_183" data-name="Path 183" d="M413.213,277.818l-2.942.9c1.779,5.884,3.37,11.916,4.721,17.921l3.009-.682C416.623,289.881,415,283.783,413.213,277.818Z" transform="translate(-149.333 -179.948)" fill="#e6e6e6"/>
      <path id="Path_184" data-name="Path 184" d="M403.266,251.6l-2.8,1.284c2.568,5.6,4.975,11.354,7.155,17.1L410.5,268.9C408.294,263.086,405.874,257.255,403.266,251.6Z" transform="translate(-152.639 -188.794)" fill="#e6e6e6"/>
      <path id="Path_185" data-name="Path 185" d="M389.815,227.018l-2.594,1.645c3.3,5.189,6.473,10.565,9.415,15.955l2.7-1.471C396.368,237.69,393.159,232.26,389.815,227.018Z" transform="translate(-157.109 -197.086)" fill="#e6e6e6"/>
      <path id="Path_186" data-name="Path 186" d="M373.091,204.488l-2.34,1.993c3.985,4.681,7.864,9.576,11.528,14.524l2.461-1.832C381.048,214.17,377.13,209.222,373.091,204.488Z" transform="translate(-162.666 -204.687)" fill="#e6e6e6"/>
      <path id="Path_187" data-name="Path 187" d="M353.437,184.428l-2.046,2.287c4.6,4.106,9.107,8.425,13.4,12.825L367,197.387C362.651,192.934,358.091,188.574,353.437,184.428Z" transform="translate(-169.197 -211.455)" fill="#e6e6e6"/>
      <path id="Path_188" data-name="Path 188" d="M331.236,167.208l-1.725,2.541c5.109,3.437,10.164,7.1,15.019,10.886l1.9-2.421C341.507,174.39,336.4,170.685,331.236,167.208Z" transform="translate(-176.579 -217.264)" fill="#e6e6e6"/>
      <path id="Path_189" data-name="Path 189" d="M310.671,155.248v3.477c3.2,1.672,6.366,3.424,9.469,5.216l1.538-2.661Q316.261,158.15,310.671,155.248Z" transform="translate(-182.935 -221.299)" fill="#e6e6e6"/>
      <path id="Path_190" data-name="Path 190" d="M418.161,523.45c.5-2.99.955-6.044,1.357-9.074l3.048.4c-.406,3.065-.868,6.151-1.372,9.175Z" transform="translate(-146.671 -100.142)" fill="#e6e6e6"/>
      <path id="Path_191" data-name="Path 191" d="M411.752,552.653l2.939.915c1.844-5.943,3.513-12.031,4.958-18.1l-2.995-.708C415.222,540.763,413.582,546.776,411.752,552.653Z" transform="translate(-148.834 -93.264)" fill="#e6e6e6"/>
      <path id="Path_192" data-name="Path 192" d="M401.71,578.271l2.79,1.308c2.653-5.627,5.136-11.426,7.388-17.231l-2.87-1.12C406.794,566.97,404.337,572.706,401.71,578.271Z" transform="translate(-152.221 -84.335)" fill="#e6e6e6"/>
      <path id="Path_193" data-name="Path 193" d="M388.2,602.214l2.579,1.674c3.4-5.215,6.664-10.622,9.7-16.061l-2.682-1.5C394.8,591.7,391.563,597.046,388.2,602.214Z" transform="translate(-156.779 -75.869)" fill="#e6e6e6"/>
      <path id="Path_194" data-name="Path 194" d="M371.482,623.98,373.813,626c4.091-4.719,8.058-9.627,11.817-14.591l-2.463-1.842C379.461,614.473,375.534,619.321,371.482,623.98Z" transform="translate(-162.419 -68.028)" fill="#e6e6e6"/>
      <path id="Path_195" data-name="Path 195" d="M351.907,643.192l2.025,2.312c4.7-4.1,9.3-8.431,13.7-12.828l-2.175-2.179C361.108,634.85,356.549,639.118,351.907,643.192Z" transform="translate(-169.023 -60.967)" fill="#e6e6e6"/>
      <path id="Path_196" data-name="Path 196" d="M329.855,659.487l1.7,2.573c5.193-3.429,10.349-7.083,15.3-10.849l-1.859-2.455C340.091,652.49,335,656.1,329.855,659.487Z" transform="translate(-176.463 -54.807)" fill="#e6e6e6"/>
      <path id="Path_197" data-name="Path 197" d="M322.025,666.679c-3.718,2.1-7.516,4.132-11.354,6.058v-3.45c3.317-1.685,6.607-3.464,9.83-5.269Z" transform="translate(-182.935 -49.658)" fill="#e6e6e6"/>
      <path id="Path_198" data-name="Path 198" d="M418.836,333.478l3.074-.056c.056,3.1.061,6.225.013,9.276l-3.074-.048C418.9,339.633,418.891,336.547,418.836,333.478Z" transform="translate(-146.444 -161.189)" fill="#e6e6e6"/>
      <path id="Path_199" data-name="Path 199" d="M226.216,301.632H540.778A88.266,88.266,0,0,1,629.044,389.9v11.684H314.482a88.266,88.266,0,0,1-88.266-88.266V301.632Z" transform="translate(-84.973 -56.422)" fill="#fff"/>
      <path id="Path_200" data-name="Path 200" d="M479.611,877.915c-.307-.5-7.544-12.585-10.052-37.676-2.3-23.02-.821-61.822,19.3-115.947,38.123-102.537-8.786-185.269-9.265-186.094l2.314-1.343c.121.209,12.226,21.3,19.376,54.891a239.47,239.47,0,0,1-9.918,133.478c-38.057,102.362-9.764,150.819-9.474,151.3Z" transform="translate(-129.606 -92.558)" fill="#f2f2f2"/>
      <ellipse id="Ellipse_60" data-name="Ellipse 60" cx="17.386" cy="17.386" rx="17.386" ry="17.386" transform="translate(317.713 404.849)" fill="#6c63ff"/>
      <ellipse id="Ellipse_61" data-name="Ellipse 61" cx="17.386" cy="17.386" rx="17.386" ry="17.386" transform="translate(372.545 469.042)" fill="#f2f2f2"/>
      <ellipse id="Ellipse_62" data-name="Ellipse 62" cx="17.386" cy="17.386" rx="17.386" ry="17.386" transform="translate(335.099 511.838)" fill="#6c63ff"/>
      <ellipse id="Ellipse_63" data-name="Ellipse 63" cx="17.386" cy="17.386" rx="17.386" ry="17.386" transform="translate(380.569 547.947)" fill="#6c63ff"/>
      <ellipse id="Ellipse_64" data-name="Ellipse 64" cx="17.386" cy="17.386" rx="17.386" ry="17.386" transform="translate(321.725 604.116)" fill="#f2f2f2"/>
      <path id="Path_201" data-name="Path 201" d="M485.426,811.25s-17.386-42.8,34.771-74.892Z" transform="translate(-124.917 -25.253)" fill="#f2f2f2"/>
      <path id="Path_202" data-name="Path 202" d="M486.181,803.16s-7.912-45.51-69.153-45.12Z" transform="translate(-147.054 -17.939)" fill="#f2f2f2"/>
      <circle id="Ellipse_65" data-name="Ellipse 65" cx="106.989" cy="106.989" r="106.989" transform="translate(162.922 188.196)" fill="#6c63ff" opacity="0.2"/>
      <circle id="Ellipse_66" data-name="Ellipse 66" cx="75.345" cy="75.345" r="75.345" transform="translate(194.567 219.84)" fill="#6c63ff" opacity="0.2"/>
      <ellipse id="Ellipse_67" data-name="Ellipse 67" cx="49.727" cy="49.727" rx="49.727" ry="49.727" transform="translate(220.184 245.457)" fill="#6c63ff"/>
      <path id="Path_203" data-name="Path 203" d="M428.3,419.62a9.041,9.041,0,1,0-14.753,7.006l-3.33,23.309H428.3l-3.33-23.309A9.021,9.021,0,0,0,428.3,419.62Z" transform="translate(-149.35 -135.16)" fill="#fff"/>
      <path id="Path_204" data-name="Path 204" d="M837.88,141.446s-29.826-26.74-69.937,23.655S665.1,240.18,650.7,259.721c0,0,59.652-24.683,80.221-34.968s19.541-8.228,19.541-8.228-27.769,19.541-32.911,39.082-1.028,36-10.285,55.538,176.9,13.37,176.9,13.37,18.513-31.883,13.37-64.794S895.475,145.56,837.88,141.446Z" transform="translate(-68.222 -228.346)" fill="#2f2e41"/>
      <path id="Path_205" data-name="Path 205" d="M758.755,202.56s6.486,45.4-21.31,55.591-17.6,24.089-17.6,24.089l41.693,20.383,44.473-13.9,14.824-22.236s-24.089-5.559-17.6-22.236,8.339-22.236,8.339-22.236Z" transform="translate(-45.51 -205.337)" fill="#ffb9b9"/>
      <path id="Path_206" data-name="Path 206" d="M758.755,202.56s6.486,45.4-21.31,55.591-17.6,24.089-17.6,24.089l41.693,20.383,44.473-13.9,14.824-22.236s-24.089-5.559-17.6-22.236,8.339-22.236,8.339-22.236Z" transform="translate(-45.51 -205.337)" opacity="0.1"/>
      <path id="Path_207" data-name="Path 207" d="M845.353,299.551s-6.486,85.239-4.633,88.945,0,132.492,0,132.492,12.971,69.489-3.706,73.195-12.971-77.827-12.971-77.827L807.366,408.879l1.853-106.549Z" transform="translate(-15.367 -172.616)" fill="#ffb9b9"/>
      <path id="Path_208" data-name="Path 208" d="M845.353,299.551s-6.486,85.239-4.633,88.945,0,132.492,0,132.492,12.971,69.489-3.706,73.195-12.971-77.827-12.971-77.827L807.366,408.879l1.853-106.549Z" transform="translate(-15.367 -172.616)" opacity="0.1"/>
      <path id="Path_209" data-name="Path 209" d="M708.161,491.454s-30.575,115.814-29.648,172.332,12.971,135.271,12.971,135.271,1.853,34.281-.927,37.987,13.9,19.457,13.9,19.457l17.6-10.192,6.486-7.412v-6.485s-10.192-31.5-1.853-56.517,12.971-88.019,4.633-107.476l57.444-170.479Z" transform="translate(-58.845 -107.875)" fill="#ffb9b9"/>
      <path id="Path_210" data-name="Path 210" d="M714.6,755.91s-11.118-13.9-18.53-9.265-19.457,36.134-19.457,36.134-41.693,39.84-12.045,41.693,42.62-8.339,46.326-15.751,37.987-26.869,37.987-26.869-3.706-35.207-9.265-36.134-13.9,13.9-13.9,13.9Z" transform="translate(-67.134 -22.109)" fill="#2f2e41"/>
      <path id="Path_211" data-name="Path 211" d="M779.463,504.008V618.9a355.2,355.2,0,0,0,2.78,41.693c2.78,20.383-15.751,172.332-15.751,172.332l1.853,26.869,23.163-1.853,2.78-23.163,33.355-101.917s11.118-62.077,5.559-85.239,28.722-171.405,28.722-171.405Z" transform="translate(-29.157 -113.017)" fill="#ffb9b9"/>
      <path id="Path_212" data-name="Path 212" d="M762.832,760.859l6.862-1.492s5.183-11.479,11.668-8.7a69.939,69.939,0,0,1,12.9,7.727l2.854,5.244s6.486,13.9,14.824,23.163,17.6,29.648,3.706,31.5-32.428,2.78-37.987-1.853-1.853-12.045-7.412-13.9-10.192-7.412-9.265-9.265S762.832,760.859,762.832,760.859Z" transform="translate(-31.057 -20.572)" fill="#2f2e41"/>
      <ellipse id="Ellipse_68" data-name="Ellipse 68" cx="41.178" cy="41.178" rx="41.178" ry="41.178" transform="translate(709.128 -53.22)" fill="#ffb9b9"/>
      <path id="Path_213" data-name="Path 213" d="M718,250.748l12.238-4.273s-4.826,7.979,21.116,12.611,52.809,6.273,64.855-8.908c0,0,4.634-2.21,11.12,4.276s10.192,4.633,10.192,4.633l-4.633,24.089-9.265,44.473L811.574,361l-34.281-7.412-37.061-26.869-13.9-36.134V257.233Z" transform="translate(-45.517 -190.522)" fill="#6c63ff"/>
      <path id="Path_214" data-name="Path 214" d="M842.717,262.848l9.265-6.486s31.5,5.559,33.355,20.383l-24.089,46.326a52.74,52.74,0,0,1-.927,39.84c-9.265,21.31-8.339,25.942-8.339,25.942l-6.486,27.8-117.667,9.265s-4.633-11.118-6.486-12.971-1.853-8.339,0-8.339,0-2.78-1.853-5.559-2.78-3.706,0-7.412-4.633-37.061-4.633-37.061V318.439l-31.5-41.693s11.118-16.677,16.677-18.53,32-9.161,32-9.161l5.984,8.811,8.339,67.059L758.4,365.692l50.714-8.617L828.819,324l12.971-38.914Z" transform="translate(-57.204 -189.652)" fill="#6c63ff"/>
      <path id="Path_215" data-name="Path 215" d="M834.692,265.6l7.412,5.559s6.486,51.885,4.633,55.591-34.281,7.412-35.208,5.559S834.692,265.6,834.692,265.6Z" transform="translate(-13.971 -184.069)" fill="#6c63ff"/>
      <path id="Path_216" data-name="Path 216" d="M720.845,247.141l9.265,61.15s-8.339,90.8-6.486,109.329l1.853,5.559s-3.706-1.853-4.633,1.853,0,15.751,0,15.751-5.559,5.559-7.412,36.134-24.089,103.77-15.751,106.549,58.37,16.677,85.239,13.9,123.226-35.208,122.3-43.546-47.252-126.006-47.252-126.006-8.338-13.9-8.338-15.751,11.118-9.265,8.339-16.677-17.6-85.239-17.6-85.239l10.192-55.591-13.9-3.706-10.192,53.738s-39.84,19.457-81.533,1.853l-9.265-63Z" transform="translate(-52.999 -191.548)" fill="#2f2e41"/>
      <path id="Path_217" data-name="Path 217" d="M747.864,178.209s68.562,47.252,87.092,25.942-32.428-39.84-32.428-39.84l-42.62-4.633Z" transform="translate(-35.441 -219.804)" fill="#2f2e41"/>
      <path id="Path_218" data-name="Path 218" d="M952.258,664.416a90.847,90.847,0,1,0-28.5-35.373L686.093,826.928,654.448,789.37,640.23,798.88,624.407,780.1l13-10.954-15.823-18.779-20.223,17.039,9.737,11.556-21.668,18.257-9.737-11.556-31.779,26.776,14.605,17.334,11.556-9.737L589.9,838.818l-14.445,12.171,29.211,34.668L570,914.867l35.3,41.891Zm59.34-132.744a60.1,60.1,0,1,1-65,54.77,60.1,60.1,0,0,1,65-54.77Z" transform="translate(-117.897 -137.758)" fill="#fff"/>
      <path id="Path_219" data-name="Path 219" d="M678.551,307.864s6.486,85.239,4.633,88.945,0,132.492,0,132.492-12.971,69.489,3.706,73.195,12.971-77.827,12.971-77.827l16.677-107.476-1.853-106.549Z" transform="translate(-58.883 -169.811)" fill="#ffb9b9"/>
      <path id="Path_220" data-name="Path 220" d="M693.5,267.682l-7.412,2.78s-13.9,58.37-10.192,58.37,48.179,5.559,48.179,3.706-8.339-47.252-8.339-47.252Z" transform="translate(-59.933 -183.367)" fill="#6c63ff"/>
    </g>
  </g>
</svg>
