<svg xmlns="http://www.w3.org/2000/svg" xmlns:xlink="http://www.w3.org/1999/xlink" width="1007" height="974" viewBox="0 0 1007 974">
  <defs>
    <clipPath id="clip-Web_1920_4">
      <rect width="1007" height="974"/>
    </clipPath>
  </defs>
  <g id="Web_1920_4" data-name="Web 1920 – 4" clip-path="url(#clip-Web_1920_4)">
    <g id="Group_17" data-name="Group 17" transform="translate(48 -771)">
      <circle id="Ellipse_69" data-name="Ellipse 69" cx="68.963" cy="68.963" r="68.963" transform="translate(116.906 877.061)" fill="#ff6584"/>
      <path id="Path_221" data-name="Path 221" d="M919.154,631.16a139.66,139.66,0,0,1-12.774,10.208,161.818,161.818,0,0,1-34.024,18.291c-50-1.2-123.5-7.337-216.278-10.609q-10.38-3.548-21.234-7.682-14.362-5.473-29.55-12.028c-42.051-18.171-85.225-29.983-127.99-37.039q-13.785-2.273-27.5-3.9C256.7,565.309,78.613,633.165,57.989,641.368H56L68.686,616.8,284.539,198.725l50.479,129.6,16.11,41.37,44.4-60.928,22.926-31.458,104.406,119.7,29.51-65.17L756.675,498.568l11.395,9.294,11.531,9.414,3.673,3L892.5,609.413Z" transform="translate(-49.755 633.43)" fill="#f2f2f2"/>
      <path id="Path_222" data-name="Path 222" d="M285,166.231l20.849-45.708,28.868,66.557-24.859-48.113Z" transform="translate(-56.461 -23.877)" opacity="0.1"/>
      <path id="Path_223" data-name="Path 223" d="M550.217,634.54q-13.784-2.273-27.5-3.9L424.04,411.935Z" transform="translate(-109.667 -182.809)" opacity="0.1"/>
      <path id="Path_224" data-name="Path 224" d="M447.411,205.348l22.925-17.825L574.582,307.807,468.732,205.165Z" transform="translate(-88.637 -37.15)" opacity="0.1"/>
      <path id="Path_225" data-name="Path 225" d="M606.2,319.789,814.53,519.246l-28.5,6.721Z" transform="translate(-120.094 -63.353)" opacity="0.1"/>
      <path id="Path_226" data-name="Path 226" d="M942.947,734.485c0,15.533-26.43,19.069-75.346,17.89-50-1.2-123.5-7.337-216.278-10.609-35.091-1.235-72.948-2.069-113.331-2.069C286.44,739.7,32,771.909,32,734.485c0-8.821,11.323-17.241,31.931-24.971,61.1-22.918,203.824-39.7,374.8-42.4q11.667-.192,23.5-.281,12.534-.108,25.235-.1c67.976,0,132.48,2.213,190.417,6.183.184.016.361.032.545.04q6.976.481,13.817.994,7.47.565,14.779,1.163c1,.08,2,.16,3,.249.722.056,1.443.12,2.157.184,1.315.1,2.63.217,3.929.337a.727.727,0,0,1,.136.008q3.585.313,7.121.626c.249.024.5.048.746.064,68.521,6.215,125.151,15.043,163.625,25.556C922.948,711.743,942.947,722.761,942.947,734.485Z" transform="translate(-32 -233.285)" fill="#3f3d56"/>
      <path id="Path_227" data-name="Path 227" d="M102.887,584.384c0,51.334,32.2,92.873,72,92.873" transform="translate(-46.043 -216.973)" fill="#3f3d56"/>
      <path id="Path_228" data-name="Path 228" d="M192.678,677c0-51.911,35.938-93.916,80.35-93.916" transform="translate(-63.832 -216.715)" fill="#6c63ff"/>
      <path id="Path_229" data-name="Path 229" d="M135.42,590.188c0,48.762,20.536,88.219,45.915,88.219" transform="translate(-52.488 -218.123)" fill="#6c63ff"/>
      <path id="Path_230" data-name="Path 230" d="M192.678,670.554c0-66.33,41.539-120,92.873-120" transform="translate(-63.832 -210.27)" fill="#3f3d56"/>
      <path id="Path_231" data-name="Path 231" d="M173.788,699.655s10.211-.314,13.288-2.506,15.707-4.808,16.471-1.293,15.345,17.479,3.817,17.572-26.787-1.8-29.858-3.667S173.788,699.655,173.788,699.655Z" transform="translate(-60.09 -238.716)" fill="#a8a8a8"/>
      <path id="Path_232" data-name="Path 232" d="M207.57,713.564c-11.528.093-26.787-1.8-29.858-3.667-2.339-1.425-3.271-6.537-3.583-8.9l-.341.013s.647,8.235,3.718,10.106,18.33,3.76,29.858,3.667c3.328-.027,4.477-1.211,4.414-2.964C211.316,712.883,210.047,713.544,207.57,713.564Z" transform="translate(-60.09 -240.076)" opacity="0.2"/>
      <path id="Path_233" data-name="Path 233" d="M794.887,575.384c0,51.334,32.2,92.873,72,92.873Z" transform="translate(-183.136 -215.19)" fill="#3f3d56"/>
      <path id="Path_234" data-name="Path 234" d="M884.678,668c0-51.911,35.938-93.916,80.35-93.916Z" transform="translate(-200.924 -214.932)" fill="#6c63ff"/>
      <path id="Path_235" data-name="Path 235" d="M827.42,581.188c0,48.762,20.536,88.219,45.915,88.219Z" transform="translate(-189.581 -216.34)" fill="#6c63ff"/>
      <path id="Path_236" data-name="Path 236" d="M884.678,661.554c0-66.33,41.539-120,92.873-120Z" transform="translate(-200.924 -208.487)" fill="#3f3d56"/>
      <path id="Path_237" data-name="Path 237" d="M865.788,690.655s10.211-.315,13.289-2.506,15.707-4.808,16.471-1.294,15.345,17.479,3.817,17.572-26.787-1.8-29.858-3.667S865.788,690.655,865.788,690.655Z" transform="translate(-197.182 -236.933)" fill="#a8a8a8"/>
      <path id="Path_238" data-name="Path 238" d="M899.57,704.564c-11.528.093-26.787-1.8-29.858-3.667-2.339-1.425-3.271-6.537-3.583-8.9l-.341.013s.647,8.235,3.718,10.106,18.33,3.76,29.858,3.667c3.328-.027,4.477-1.211,4.414-2.964C903.316,703.883,902.047,704.544,899.57,704.564Z" transform="translate(-197.182 -238.293)" opacity="0.2"/>
      <rect id="Rectangle_17" data-name="Rectangle 17" width="14.434" height="25.73" transform="translate(385.709 353.216)" fill="#3f3d56"/>
      <circle id="Ellipse_70" data-name="Ellipse 70" cx="2.824" cy="2.824" r="2.824" transform="translate(390.102 357.295)" fill="#f2f2f2"/>
      <path id="Path_239" data-name="Path 239" d="M523.882,539.044s-4.393,25.48,3.515,26.359.879-27.237.879-27.237Z" transform="translate(-129.206 -207.816)" fill="#ffb9b9"/>
      <path id="Path_240" data-name="Path 240" d="M529.011,430.788s-9.226,87.423-6.59,88.741,9.665,3.075,10.983,1.757,6.59-55.353,6.59-55.353l-3.954-28.116Z" transform="translate(-129.064 -186.544)" fill="#575a89"/>
      <path id="Path_241" data-name="Path 241" d="M529.011,430.788s-9.226,87.423-6.59,88.741,9.665,3.075,10.983,1.757,6.59-55.353,6.59-55.353l-3.954-28.116Z" transform="translate(-129.064 -186.544)" opacity="0.1"/>
      <rect id="Rectangle_18" data-name="Rectangle 18" width="27.677" height="29.873" transform="translate(416.861 204.926)" fill="#2f2e41"/>
      <path id="Path_242" data-name="Path 242" d="M557.619,398.465s-.879,19.33-7.029,20.648,5.711,23.723,5.711,23.723l18.451-1.757,4.393-26.359s-10.1-1.757-6.59-15.376Z" transform="translate(-134.387 -180.14)" fill="#ffb9b9"/>
      <path id="Path_243" data-name="Path 243" d="M557.619,398.465s-.879,19.33-7.029,20.648,5.711,23.723,5.711,23.723l18.451-1.757,4.393-26.359s-10.1-1.757-6.59-15.376Z" transform="translate(-134.387 -180.14)" opacity="0.1"/>
      <path id="Path_244" data-name="Path 244" d="M528.888,547.395l1.318,7.468,7.908-1.757-1.758-7.469Z" transform="translate(-104.778 -108.096)" fill="#ffb9b9"/>
      <path id="Path_245" data-name="Path 245" d="M559.464,533.585l-2.636,7.907,8.347,4.393.439-6.589Z" transform="translate(-110.313 -105.709)" fill="#ffb9b9"/>
      <path id="Path_246" data-name="Path 246" d="M547.247,511.652S536.7,542.4,538.9,556.9s10.983,83.469,10.983,83.469,10.1,6.59,16.255-.879l-4.393-58.868s.879-35.584,4.393-32.07,17.133,44.81,17.133,44.81l-2.636,37.341s1.318,11.422,9.226,6.59L600.843,596s-3.514-55.353-5.272-57.55-13.179-27.677-13.179-27.677Z" transform="translate(-132.362 -202.39)" fill="#2f2e41"/>
      <circle id="Ellipse_71" data-name="Ellipse 71" cx="12.74" cy="12.74" r="12.74" transform="translate(419.497 201.411)" fill="#ffb9b9"/>
      <path id="Path_247" data-name="Path 247" d="M552.8,431.672s4.832,7.029,10.983,2.2,9.665-5.272,9.665-5.272l7.468,4.393-1.757,17.133,2.636,47.446s-32.07,2.636-33.827-.879,2.2-18.451,2.2-18.451l-5.711-32.07v-14.5Z" transform="translate(-133.522 -186.11)" fill="#6c63ff"/>
      <path id="Path_248" data-name="Path 248" d="M559.648,442.235s-7.908-24.162-10.543-24.6-10.1,4.832-10.1,4.832-10.983,3.514-10.983,5.711,1.757,2.2,1.757,2.2l6.15,11.861s2.636,10.543,1.757,17.572a70.67,70.67,0,0,0-.439,12.74s-9.665,57.989-4.832,59.746,4.832,3.515,4.832,3.515,7.029,3.954,8.347,2.2,14.058-77.319,14.058-77.319S566.237,447.946,559.648,442.235Z" transform="translate(-130.266 -183.933)" fill="#575a89"/>
      <path id="Path_249" data-name="Path 249" d="M568.985,441.982s3.954-9.226,1.757-15.376a5.53,5.53,0,0,0,3.075-1.757c.879-1.318,0-7.908,2.2-8.347s18.451,0,19.33.879,3.514,7.029,3.514,7.029H597.54l-9.665,15.815s4.832,29.873,3.954,34.706,12.74,25.041,14.5,26.359,9.665,22.4,6.15,24.6-34.266,16.255-35.584,9.226-10.543-49.2-10.543-49.2-.439-23.283.879-28.995A107.73,107.73,0,0,0,568.985,441.982Z" transform="translate(-137.846 -183.679)" fill="#575a89"/>
      <path id="Path_250" data-name="Path 250" d="M594.389,535.757s-9.226,30.312,0,28.995,7.029-29.873,7.029-29.873Z" transform="translate(-142.603 -207.165)" fill="#ffb9b9"/>
      <path id="Path_251" data-name="Path 251" d="M566.791,680.793s7.283,2.081,6.763,6.763a7.791,7.791,0,0,1-4.682,6.243,4.7,4.7,0,0,0-2.081,4.682c.52,3.121-4.162,7.8-11.966,5.723s-6.243-4.162-6.243-4.162a9.036,9.036,0,0,1,3.642-5.723c3.121-2.081,6.763-9.364,6.763-9.885s1.04-4.162,1.04-4.162S564.19,677.671,566.791,680.793Z" transform="translate(-134.315 -235.768)" fill="#2f2e41"/>
      <path id="Path_252" data-name="Path 252" d="M588.889,668.553s-7.908,3.514-6.15,7.908,7.468,10.543,8.347,17.133,8.347,12.3,13.619,8.786-.879-10.543-.879-10.543-6.59-12.3-7.029-14.937.879-5.272-1.757-6.15S588.889,668.553,588.889,668.553Z" transform="translate(-141.056 -233.647)" fill="#2f2e41"/>
      <path id="Path_253" data-name="Path 253" d="M602.435,431.424s-1.1-5.052.22-1.977,10.983,40.417,2.2,62.821c0,0-.879,27.677-1.757,27.677s-11.422-.439-10.983-3.514,1.318-52.717,1.318-55.792,1.538-23.064,1.538-23.064Z" transform="translate(-142.961 -186.082)" opacity="0.1"/>
      <path id="Path_254" data-name="Path 254" d="M600.462,422.571a26.555,26.555,0,0,1,3.515,5.711c1.318,3.075,10.983,40.417,2.2,62.821,0,0-.879,27.677-1.757,27.677s-11.422-.439-10.983-3.515,1.318-52.717,1.318-55.792-2.636-23.723-2.636-23.723Z" transform="translate(-142.964 -184.916)" fill="#575a89"/>
      <path id="Path_255" data-name="Path 255" d="M556.416,365.057c-4.609,1.441-8.051,5.207-11.259,8.817a18.681,18.681,0,0,0-3.142,4.3,17.326,17.326,0,0,0-1.269,6.324q-.321,5.042-.205,10.1c.074,3.229.272,6.54-.721,9.614-.96,2.972-2.958,5.484-4.33,8.29a17.383,17.383,0,0,0-.674,14.46c1.112,2.507,2.912,4.64,4.258,7.03a21.773,21.773,0,0,1,2.5,14L547.9,439.8c4.052-5.249,8.232-10.779,9.372-17.311,1.653-9.474-3.4-18.754-4.4-28.32-.278-2.667-.185-5.548,1.325-7.764,2.229-3.272,7.076-4.428,8.416-8.153.194,1.56,9.538,6.528,10.664,5.562a11.635,11.635,0,0,1-1.765,11.238c-.9,1.123-2.016,2.068-2.9,3.209-2.285,2.954-2.8,6.937-2.482,10.658s1.394,7.334,1.96,11.025a81.885,81.885,0,0,1,.684,11.085c.042,2.566-.028,5.429-1.828,7.258a21.968,21.968,0,0,0,7.908-4.846A39.383,39.383,0,0,1,578.8,429.7c2.83-2.042,6.664-2.647,8.972-5.264,2.061-2.336,2.39-5.763,1.905-8.841s-1.664-6.006-2.258-9.064a24.349,24.349,0,0,1,.611-11.695c.84-2.753,2.182-5.407,2.345-8.281.334-5.861-4.185-10.764-8.53-14.712C575.339,365.931,565.257,362.293,556.416,365.057Z" transform="translate(-131.361 -173.335)" fill="#2f2e41"/>
      <path id="Path_256" data-name="Path 256" d="M942.764,214.923c-3.895,1.438-10.731,2.614-18.647,3.564-21.522,2.583-51.016,3.5-51.016,3.5S721.524,234.559,607.912,187.8c0,0-16.525-8.666-1.175-20.323a49.541,49.541,0,0,1,7.5-4.577s.063-.065.189-.185a39.726,39.726,0,0,1,5.632-4.341c5.885-3.8,15.824-8.318,27.919-6.273l298.376,48.263S957.248,209.573,942.764,214.923Z" transform="translate(-144.567 -131.232)" fill="#f2f2f2"/>
      <path id="Path_257" data-name="Path 257" d="M953.25,192.345l62.467-44.321,27.532,4.761-26.959,46.872S953.968,200.153,953.25,192.345Z" transform="translate(-214.509 -130.525)" fill="#f2f2f2"/>
      <path id="Path_258" data-name="Path 258" d="M725.129,34.9,849.554,0l20.058,4.191L813.407,29.474,795.837,49.127Z" transform="translate(-143.655)" fill="#f2f2f2"/>
      <path id="Path_259" data-name="Path 259" d="M924.118,222.411c-21.522,2.583-51.016,3.5-51.016,3.5s-151.577,12.573-265.189-34.185c0,0-16.525-8.666-1.175-20.323l.052.213s24.513,16.568,141.643,30.4Z" transform="translate(-144.567 -135.157)" fill="#f2f2f2"/>
      <path id="Path_260" data-name="Path 260" d="M979.132,232.155l55.632,22.712,13.974-1.552-33.275-25.006S975.216,219.726,979.132,232.155Z" transform="translate(-219.583 -145.859)" fill="#f2f2f2"/>
      <path id="Path_261" data-name="Path 261" d="M630.451,171.793c-2.656.046-8.737-4.407-12.517-7.4a39.726,39.726,0,0,1,5.632-4.341c3.047,2.339,8.472,6.126,11.487,5.991C639.406,165.847,634.447,171.724,630.451,171.793Z" transform="translate(-148.079 -132.908)" fill="#f2f2f2"/>
      <path id="Path_262" data-name="Path 262" d="M908.228,309.562l-35.715,1.867L772.1,243.717l-18.641-12.57-9.06-6.109c16.989-14.359,86.3,5.439,86.3,5.439,1.327,1.12,1.748,2.981,1.688,5.035-.114,3.851-1.922,8.383-2.62,10-.168.389-.271.607-.271.607Z" transform="translate(-173.133 -144.748)" fill="#f2f2f2"/>
      <path id="Path_263" data-name="Path 263" d="M942.764,214.923c-3.895,1.438-10.731,2.614-18.647,3.564-21.522,2.583-51.016,3.5-51.016,3.5S721.524,234.559,607.912,187.8c0,0-16.525-8.666-1.175-20.323a49.541,49.541,0,0,1,7.5-4.577s.063-.065.189-.185a39.726,39.726,0,0,1,5.632-4.341c5.885-3.8,15.824-8.318,27.919-6.273l298.376,48.263S957.248,209.573,942.764,214.923Z" transform="translate(-144.567 -131.232)" fill="#3f3d56"/>
      <path id="Path_264" data-name="Path 264" d="M953.25,192.345l62.467-44.321,27.532,4.761-26.959,46.872S953.968,200.153,953.25,192.345Z" transform="translate(-214.509 -130.525)" fill="#3f3d56"/>
      <path id="Path_265" data-name="Path 265" d="M725.129,34.9,849.554,0l20.058,4.191L813.407,29.474,795.837,49.127Z" transform="translate(-143.655)" fill="#3f3d56"/>
      <path id="Path_266" data-name="Path 266" d="M924.118,222.411c-21.522,2.583-51.016,3.5-51.016,3.5s-151.577,12.573-265.189-34.185c0,0-16.525-8.666-1.175-20.323l.052.213s24.513,16.568,141.643,30.4Z" transform="translate(-144.567 -135.157)" fill="#6c63ff"/>
      <path id="Path_267" data-name="Path 267" d="M979.132,232.155l55.632,22.712,13.974-1.552-33.275-25.006S975.216,219.726,979.132,232.155Z" transform="translate(-219.583 -145.859)" fill="#3f3d56"/>
      <path id="Path_268" data-name="Path 268" d="M630.451,171.793c-2.656.046-8.737-4.407-12.517-7.4a39.726,39.726,0,0,1,5.632-4.341c3.047,2.339,8.472,6.126,11.487,5.991C639.406,165.847,634.447,171.724,630.451,171.793Z" transform="translate(-148.079 -132.908)" fill="#6c63ff"/>
      <path id="Path_269" data-name="Path 269" d="M908.228,309.562l-35.715,1.867L772.1,243.717l-18.641-12.57-9.06-6.109c16.989-14.359,86.3,5.439,86.3,5.439,1.327,1.12,1.748,2.981,1.688,5.035-.114,3.851-1.922,8.383-2.62,10-.168.389-.271.607-.271.607Z" transform="translate(-173.133 -144.748)" fill="#3f3d56"/>
    </g>
    <g id="Group_23" data-name="Group 23" transform="translate(54.987 356.004)">
      <path id="Path_270" data-name="Path 270" d="M563.7,205.787c-50.653-1.8-98.9-18.15-144.931-36s-91.7-37.716-141.135-47.194c-31.8-6.1-68.169-6.958-93.785,10.088-24.661,16.436-32.629,44.729-36.91,71.01-3.225,19.77-5.119,40.573,3.71,59.082,6.136,12.851,17.015,23.652,24.544,35.963,26.2,42.827,7.678,95.64-20.7,137.457-13.305,19.621-28.762,38.35-39.039,59.215s-15.027,44.807-6.034,66.111c8.907,21.132,30.14,36.972,53.142,48.125,46.716,22.65,101.745,29.138,155.442,32.809,118.83,8.132,238.286,4.61,357.429,1.088,44.095-1.307,88.377-2.63,131.752-9.447,24.09-3.788,48.955-9.8,66.447-24.3,22.2-18.416,27.7-49.6,12.82-72.693-24.951-38.733-93.918-48.352-111.379-89.927-9.6-22.877.258-48.368,14.213-69.585,29.929-45.519,80.089-85.458,82.726-137.5,1.816-35.736-22.3-71.526-59.583-88.44-39.078-17.727-93.276-15.5-122.094,13.845C660.61,195.675,608.43,207.3,563.7,205.787Z" transform="translate(-61.832 -91.528)" fill="#6c63ff" opacity="0.1"/>
      <ellipse id="Ellipse_72" data-name="Ellipse 72" cx="57.298" cy="11.02" rx="57.298" ry="11.02" transform="translate(76.742 550.845)" fill="#6c63ff"/>
      <ellipse id="Ellipse_73" data-name="Ellipse 73" cx="6.668" cy="8.734" rx="6.668" ry="8.734" transform="translate(126.409 548.45)" fill="#3f3d56"/>
      <ellipse id="Ellipse_74" data-name="Ellipse 74" cx="6.668" cy="8.734" rx="6.668" ry="8.734" transform="translate(126.409 537.774)" fill="#3f3d56"/>
      <ellipse id="Ellipse_75" data-name="Ellipse 75" cx="6.668" cy="8.734" rx="6.668" ry="8.734" transform="translate(126.409 527.099)" fill="#3f3d56"/>
      <ellipse id="Ellipse_76" data-name="Ellipse 76" cx="6.668" cy="8.734" rx="6.668" ry="8.734" transform="translate(126.409 516.431)" fill="#3f3d56"/>
      <ellipse id="Ellipse_77" data-name="Ellipse 77" cx="6.668" cy="8.734" rx="6.668" ry="8.734" transform="translate(126.409 505.756)" fill="#3f3d56"/>
      <ellipse id="Ellipse_78" data-name="Ellipse 78" cx="6.668" cy="8.734" rx="6.668" ry="8.734" transform="translate(126.409 495.081)" fill="#3f3d56"/>
      <ellipse id="Ellipse_79" data-name="Ellipse 79" cx="6.668" cy="8.734" rx="6.668" ry="8.734" transform="translate(126.409 484.405)" fill="#3f3d56"/>
      <path id="Path_271" data-name="Path 271" d="M236.037,606.423a31.64,31.64,0,0,0,2.489-3.655l-17.531-2.88,18.956.141a31.987,31.987,0,0,0,.61-25.319l-25.428,13.2,23.48-17.218a31.956,31.956,0,1,0-52.782,35.759,32.246,32.246,0,0,0-3.647,5.831l22.76,11.818-24.262-8.14a31.94,31.94,0,0,0,5.15,30.007,31.956,31.956,0,1,0,50.231,0,31.956,31.956,0,0,0,0-39.516Z" transform="translate(-77.986 -186.328)" fill="#6c63ff"/>
      <path id="Path_272" data-name="Path 272" d="M179,645.87a31.823,31.823,0,0,0,6.84,19.754,31.956,31.956,0,1,0,50.231,0C240.328,660.2,179,642.293,179,645.87Z" transform="translate(-77.988 -206.029)" opacity="0.1"/>
      <path id="Path_273" data-name="Path 273" d="M575.864,625.221c.485,6.261,2.9,12.742,7.967,16.436s13.141,3.624,17.015-1.338a19.035,19.035,0,0,0,2.825-6.144c3.264-10.315,5.58-21.6,2-31.815-8.069-.524-17.422-4.32-23.48,2.348C577.3,610.139,575.3,617.982,575.864,625.221Z" transform="translate(-164.226 -196.337)" fill="#3f3d56"/>
      <path id="Path_274" data-name="Path 274" d="M612.244,543.271c-1.072,9.1-2.9,18.165-2.708,27.33.07,3.538.446,7.044.454,10.6a52.234,52.234,0,0,1-7.044,26.274,8.813,8.813,0,0,1-1.925,2.489,6.182,6.182,0,0,1-6.731.227A13.242,13.242,0,0,1,589.508,605c-5.831-9.987-6-22.126-8.3-33.451-1.769-8.664-4.868-17.062-5.987-25.828-.728-5.643-.618-11.4-1.777-16.968-.352-1.683-1.338-4.211-1.988-6.692-.595-2.215-.924-4.391-.313-5.886,1.244-3.06,5.322-1.871,7.975-1.683a183.591,183.591,0,0,0,28.066-.07,2.412,2.412,0,0,1,3.248,1.683,37.976,37.976,0,0,1,1.7,6.261C613.418,529.184,613.058,536.329,612.244,543.271Z" transform="translate(-163.149 -177.492)" fill="#fabdbd"/>
      <g id="Group_18" data-name="Group 18" transform="translate(407.681 336.618)" opacity="0.1">
        <path id="Path_275" data-name="Path 275" d="M615.016,514.5a6.9,6.9,0,0,0-1.448,0c-4.477.36-8.961.54-13.438.564Q607.573,515.079,615.016,514.5Z" transform="translate(-577.201 -514.187)"/>
        <path id="Path_276" data-name="Path 276" d="M595.876,610.188A13.243,13.243,0,0,1,591.094,605c-5.831-9.987-6-22.126-8.3-33.451-1.769-8.664-4.868-17.062-5.987-25.828-.728-5.643-.618-11.4-1.777-16.968-.352-1.683-1.338-4.211-1.988-6.692-.595-2.215-.924-4.391-.313-5.886a3.334,3.334,0,0,1,3.131-2.035c-1.98-.133-3.913.1-4.7,2.035-.61,1.495-.282,3.671.313,5.886.65,2.481,1.636,5.009,1.988,6.692,1.158,5.572,1.049,11.325,1.777,16.968,1.119,8.774,4.219,17.171,5.987,25.828,2.309,11.325,2.473,23.479,8.3,33.451a13.243,13.243,0,0,0,4.782,5.189,6.95,6.95,0,0,0,4.1.83,7.216,7.216,0,0,1-2.536-.83Z" transform="translate(-570.833 -514.111)"/>
      </g>
      <path id="Path_277" data-name="Path 277" d="M653.2,586.992c-4.7,9.392-3.913,22.7-3.913,22.7.783,31.306-11.74,97.049-11.74,97.049H626.586s-1.565-72.787,0-79.048-.783-28.175-3.131-58.7c-1.745-22.7,3.005-43.265,5.557-52.289.877-3.131,1.487-4.845,1.487-4.845s18-26.61,28.175-14.088c2.348,2.911,3.592,8.789,4.023,16.209C664.091,538.46,656.8,579.784,653.2,586.992Z" transform="translate(-174.508 -173.213)" fill="#fabdbd"/>
      <path id="Path_278" data-name="Path 278" d="M666.062,513.98c-.43-7.42-1.659-13.305-4.023-16.209a8.062,8.062,0,0,0-7.686-3.264,8.342,8.342,0,0,1,5.338,3.264c2.348,2.912,3.592,8.789,4.023,16.209,1.393,24.481-5.9,65.805-9.5,73.014-4.7,9.392-3.913,22.7-3.913,22.7.783,31.306-11.74,97.049-11.74,97.049h2.348S653.43,641,652.648,609.69c0,0-.783-13.305,3.913-22.7C660.161,579.785,667.455,538.461,666.062,513.98Z" transform="translate(-177.873 -173.214)" opacity="0.1"/>
      <path id="Path_279" data-name="Path 279" d="M619.528,759.641a10.177,10.177,0,0,0-2.238,2.442c-1.4,2.645.587,5.807,2.716,7.912s4.7,4.359,4.7,7.357c0,2.411-1.824,4.477-3.866,5.76-1.1.689-2.473,1.565-2.246,2.865a2.694,2.694,0,0,0,.415.916,12.114,12.114,0,0,0,8.007,4.852,36.117,36.117,0,0,0,9.6.078,1.933,1.933,0,0,0,1.315-.454,1.784,1.784,0,0,0,.352-1.08c.157-1.659.055-3.412.783-4.907,1.017-2.043,3.358-3.084,4.7-4.915,1.878-2.5,1.62-5.987.908-9.032-1.565-6.629-5.048-14.189-10.276-18.784C628.325,747.377,623.575,755.83,619.528,759.641Z" transform="translate(-173.148 -228.973)" fill="#3f3d56"/>
      <path id="Path_280" data-name="Path 280" d="M583.888,247.194c4.367-6.527,3.232-15.653-1.229-22.149s-11.63-10.581-19.026-13.219c-9.971-3.553-20.967-4.766-31.212-2.1-8.155,2.121-15.481,6.559-23.166,9.987a99.624,99.624,0,0,1-43.265,8.609c-16.522-.462-34.624-4.7-48.485,4.336-25.374,16.506-14.088,61.43-38.092,79.83-6.473,4.962-14.62,7.13-21.82,10.957s-14.025,10.488-13.853,18.643c.078,3.913,1.8,7.646,3.913,10.957,9,14.268,25.828,23.1,42.678,22.932s33.294-9.126,43.007-22.916c2.434-3.452,4.579-7.294,8.108-9.6,7.044-4.618,16.326-1.385,24.732-.7,18.713,1.526,37.434-12.522,41.16-30.954,1.565-7.866,1.291-17.265,7.623-22.2,5.111-3.984,12.3-3.131,18.784-3.812,11.849-1.229,21.2-8.609,27.635-18.251,2.951-4.422,3.295-9.7,7.318-13.188C573.032,250.536,579.74,253.361,583.888,247.194Z" transform="translate(-113.793 -111.021)" fill="#3f3d56"/>
      <g id="Group_19" data-name="Group 19" transform="translate(272.984 97.237)" opacity="0.1">
        <path id="Path_281" data-name="Path 281" d="M473.237,235a99.216,99.216,0,0,0,20.482-1.565c-1.863.055-3.741.055-5.612,0-12.969-.36-26.908-3.037-39.007.188C457.083,233.7,465.34,234.782,473.237,235Z" transform="translate(-409.678 -213.425)"/>
        <path id="Path_282" data-name="Path 282" d="M437.73,382.322c-3.53,2.3-5.674,6.144-8.108,9.6a54.981,54.981,0,0,1-30.891,21.3c.916.039,1.831.063,2.755.055,16.866-.164,33.294-9.126,43.007-22.916,2.434-3.451,4.578-7.294,8.108-9.6l.61-.376C447.685,379.622,442.261,379.355,437.73,382.322Z" transform="translate(-398.73 -245.555)"/>
        <path id="Path_283" data-name="Path 283" d="M631.608,225.015c-4.453-6.465-11.63-10.581-19.026-13.219-9.971-3.553-20.967-4.766-31.212-2.1-.235.055-.462.125-.689.188a59.913,59.913,0,0,1,17.031,3.475c7.4,2.638,14.573,6.754,19.026,13.219s5.6,15.653,1.229,22.149c-4.148,6.191-10.855,3.365-15.246,7.177-4.023,3.483-4.367,8.766-7.318,13.188-5.533,8.273-13.235,14.87-22.822,17.375,3.295-.391,6.77-.344,10.057-.689,11.849-1.229,21.2-8.609,27.635-18.251,2.951-4.422,3.295-9.7,7.318-13.188,4.391-3.812,11.1-.986,15.246-7.177C637.211,240.637,636.076,231.48,631.608,225.015Z" transform="translate(-436.516 -208.252)"/>
        <path id="Path_284" data-name="Path 284" d="M551.565,309.284c-6.441.673-13.634-.172-18.784,3.811-6.332,4.939-6.026,14.338-7.623,22.2-2.747,13.751-13.908,25.092-27.158,29.31l.931.086c18.713,1.526,37.434-12.522,41.16-30.954,1.565-7.866,1.291-17.265,7.623-22.2a14.135,14.135,0,0,1,4.86-2.348C552.222,309.2,551.9,309.253,551.565,309.284Z" transform="translate(-420.306 -230.191)"/>
      </g>
      <path id="Path_285" data-name="Path 285" d="M728.5,206.1s-18.784,37.567-25.045,51.655-63.395,35.219-71.221,36a10.081,10.081,0,0,0-5.588,2.692c-4.422,3.913-6.934,10.613-6.934,10.613s3.131,21.132-.783,56.351c-.078.681-.149,1.362-.211,2.019-3.412,33.513,3.733,41.418,3.733,41.418s-75.917,28.958-73.569-8.609a170.25,170.25,0,0,0-.1-27.69,116.278,116.278,0,0,0-4.492-21.8c-1.855-6.488-4.07-13.6-6.363-23.292a102.169,102.169,0,0,0-4.352-14.205c-.055-.141-.109-.282-.156-.415-3.913-9.713-7.826-12.851-10.065-13.869a33.833,33.833,0,0,1-6.011-3.381,316.142,316.142,0,0,1-36.573-30.743C461.982,244.06,443.2,199.449,443.2,199.449s-5.479-25.827,7.044-46.959,7.044,41.481,7.044,41.481,22.7,30.523,28.175,44.611c2.818,7.247,7.294,10.957,10.957,12.882A129.922,129.922,0,0,1,513.747,262.3,101.19,101.19,0,0,0,525.4,269.9c8.75,4.7,19.23,9.994,27.964,11.388a26.373,26.373,0,0,0,4.125.352,4.273,4.273,0,0,0,3.444-1.565c2.348-2.763,2.293-8.711,1.753-13.6a69.141,69.141,0,0,0-1.284-7.537s25.436-16.044,24.653,3.522a21.867,21.867,0,0,0,.595,6.433,11.153,11.153,0,0,0,7.584,8.3,18.784,18.784,0,0,0,9.392.305,9.18,9.18,0,0,0,2.771-.947c2.348-1.565,25.828-8.609,32.871-9.392s42.263-18,42.263-18l38.35-53.22s-.783-31.306,14.87-43.828S728.5,206.1,728.5,206.1Z" transform="translate(-135.152 -97.948)" fill="#fabdbd"/>
      <g id="Group_20" data-name="Group 20" transform="translate(306.841 55.943)" opacity="0.1">
        <path id="Path_286" data-name="Path 286" d="M667.536,410.44a156.03,156.03,0,0,0-.9,18.94c.078-4.132.352-8.852.9-14.244.063-.657.133-1.338.211-2.019A306.932,306.932,0,0,0,669.7,376.81a314.37,314.37,0,0,1-1.957,31.611C667.7,409.1,667.6,409.783,667.536,410.44Z" transform="translate(-490.813 -203.594)"/>
        <path id="Path_287" data-name="Path 287" d="M595.383,289.07c-.524.305-.783.493-.783.493a67.041,67.041,0,0,1,1.5,10.174,48.005,48.005,0,0,0-.72-10.668Z" transform="translate(-475.159 -184.523)"/>
        <path id="Path_288" data-name="Path 288" d="M461.909,194.6c.383-5.479.955-15.3.845-24.035-.133,11.677-1.174,23.589-1.174,23.589Z" transform="translate(-446.247 -158.765)"/>
        <path id="Path_289" data-name="Path 289" d="M578.6,466.53a5.138,5.138,0,0,1-.055.916c-2.348,37.567,73.569,8.609,73.569,8.609a12.743,12.743,0,0,1-1.98-3.976C638.7,476.149,581.237,495.073,578.6,466.53Z" transform="translate(-471.658 -223.094)"/>
        <path id="Path_290" data-name="Path 290" d="M777.848,203S759.065,240.572,752.8,254.66s-63.395,35.219-71.221,36a10.081,10.081,0,0,0-5.588,2.692c-4.422,3.913-6.934,10.613-6.934,10.613s.188,1.276.415,3.7c.877-2.011,3.131-6.629,6.52-9.619a10.08,10.08,0,0,1,5.588-2.692c7.826-.783,64.96-21.914,71.221-36S777.849,207.7,777.849,207.7s13.235-40.189,11.779-52.211C788.422,170.893,777.848,203,777.848,203Z" transform="translate(-491.343 -155.49)"/>
        <path id="Path_291" data-name="Path 291" d="M548.775,375.634a116.279,116.279,0,0,0-4.492-21.8c-1.855-6.488-4.07-13.6-6.363-23.292a102.174,102.174,0,0,0-4.352-14.205c-.055-.141-.11-.282-.157-.415-3.913-9.713-7.826-12.851-10.065-13.869a33.838,33.838,0,0,1-6.011-3.381,316.143,316.143,0,0,1-36.573-30.743c-18.784-18.784-37.567-63.395-37.567-63.395a70.761,70.761,0,0,1-1.158-11.411,75.448,75.448,0,0,0,1.158,16.107s18.784,44.611,37.567,63.395a316.139,316.139,0,0,0,36.573,30.743,33.83,33.83,0,0,0,6.058,3.381c2.231,1.017,6.136,4.156,10.065,13.869.047.133.1.274.156.415a102.157,102.157,0,0,1,4.328,14.205c2.293,9.689,4.508,16.8,6.363,23.292a116.273,116.273,0,0,1,4.492,21.8c.329,3.272.524,6.833.579,10.84A136.327,136.327,0,0,0,548.775,375.634Z" transform="translate(-441.989 -163.669)"/>
      </g>
      <path id="Path_292" data-name="Path 292" d="M651.634,367.716a46.616,46.616,0,0,0-3.131,6.167c-1.182,3.287-1.19,6.864-1.409,10.347a83.072,83.072,0,0,1-2.223,14.495,16.032,16.032,0,0,1-.783,2.567,6.78,6.78,0,0,1-.916,1.565,6.675,6.675,0,0,1-1.456,1.323,17.079,17.079,0,0,1-2.653,1.448c-10.895,5.087-22.775,9.58-34.664,7.826a50.442,50.442,0,0,1-14.424-4.852c-4.3-2.09-9.173-4.571-13.634-2.833h0a6.865,6.865,0,0,1-2.184.681,2.075,2.075,0,0,1-.438-.039c-1.471-.282-1.471-5.244-1.808-6.707-1.284-5.619-1.479-10.174-2.246-15.058a49.4,49.4,0,0,0-1.886-7.96c-3.131-9.47-4.078-19.566-4.078-29.49,0-.493-3.522,0-4.7-.047-.3,0-.462-.047-.391-.149a1.566,1.566,0,0,1,.235-.266,3.575,3.575,0,0,1,1.4-.7l.924-.274c4.837-1.37,10.174-1.941,13.79-5.345,3.757-3.514,4.7-9.126,4.532-14.26-.047-1.651-.853-5.659-.72-8.985a26.367,26.367,0,0,0,4.125.352,4.273,4.273,0,0,0,3.444-1.565,61.827,61.827,0,0,1,3.381,7.826c1.331,3.271,2.348,6.715,4.3,9.674a16.381,16.381,0,0,0,14.651,7.506c5.745-.485,11.09-4.9,12.115-10.566.9-4.97-1.19-12.123-1.143-17.289a18.784,18.784,0,0,0,9.392.305,8.475,8.475,0,0,1,.336.978c1.761,6.042,4.109,12.976,10.018,15.121,3.819,1.377,8.335.344,11.865,2.348a7.614,7.614,0,0,1,.783.517,8.665,8.665,0,0,1,2.074,2.2,17.681,17.681,0,0,1,2.512,7.889A43.766,43.766,0,0,1,651.634,367.716Z" transform="translate(-160.494 -133.805)" fill="#6c63ff"/>
      <path id="Path_293" data-name="Path 293" d="M619.808,297.936a26.673,26.673,0,0,1-23.965-2.418,69.126,69.126,0,0,0-1.284-7.537S620,271.936,619.214,291.5A21.868,21.868,0,0,0,619.808,297.936Z" transform="translate(-168.31 -126.998)" opacity="0.1"/>
      <circle id="Ellipse_80" data-name="Ellipse 80" cx="26.61" cy="26.61" r="26.61" transform="translate(415.285 117.937)" fill="#fabdbd"/>
      <path id="Path_294" data-name="Path 294" d="M555.06,349.329s51.655-32.871,212.1,2.348,253.579,7.044,253.579,7.044v36.785s-180.01,19.566-248.883,0S604.938,364.654,570.6,394.95Z" transform="translate(-159.725 -138.648)" fill="#f86d70"/>
      <path id="Path_295" data-name="Path 295" d="M555.06,349.329s51.655-32.871,212.1,2.348,253.579,7.044,253.579,7.044v36.785s-180.01,19.566-248.883,0S604.938,364.654,570.6,394.95Z" transform="translate(-159.725 -138.648)" opacity="0.1"/>
      <path id="Path_296" data-name="Path 296" d="M557.06,351.329s50.09-32.871,210.533,2.348,252.014,7.044,252.014,7.044l.783,33.654s-178.444,19.566-247.318,0-166.133-33.2-200.468-2.9Z" transform="translate(-160.159 -139.083)" fill="#f86d70"/>
      <path id="Path_297" data-name="Path 297" d="M431.7,404.561s-51.655,32.871-212.1-2.348S66.983,395.17,66.983,395.17V358.385s79.048-19.566,147.921,0,166.916,30.852,201.251.556Z" transform="translate(-53.628 -141.756)" fill="#f86d70"/>
      <path id="Path_298" data-name="Path 298" d="M431.7,404.561s-51.655,32.871-212.1-2.348S66.983,395.17,66.983,395.17V358.385s79.048-19.566,147.921,0,166.916,30.852,201.251.556Z" transform="translate(-53.628 -141.756)" opacity="0.1"/>
      <path id="Path_299" data-name="Path 299" d="M430.367,403.431s-50.09,32.871-210.533-2.348-151.052-7.044-151.052-7.044L68,360.385s77.482-19.566,146.356,0,166.133,33.2,200.468,2.9Z" transform="translate(-53.863 -142.191)" fill="#f86d70"/>
      <path id="Path_300" data-name="Path 300" d="M578.371,262.409c-.783-4.884-1.988-11.035,2.1-13.829a8.688,8.688,0,0,1,4.845-1.252c8.46-.086,16.545,5.807,24.841,4.085a14,14,0,0,0,5.479-24.943c-3.264-2.426-7.388-3.3-11.38-4.125-10.5-2.16-21.452-4.312-31.815-1.565s-19.832,12.037-19,22.7c.391,5.1,2.99,9.736,5.706,14.088,2.066,3.3,10.112,18.784,14.017,19.018C578.669,276.9,578.911,265.6,578.371,262.409Z" transform="translate(-159.36 -113.456)" fill="#3f3d56"/>
      <path id="Path_301" data-name="Path 301" d="M647.92,461.7s-54,13.305-72,0c0,0-7.826,30.523-5.479,46.176,0,0,38.35,2.348,42.263,4.7,0,0,.783-6.261,4.7-3.131,0,0,13.305-15.653,37.567-1.565C654.964,507.876,659.66,471.092,647.92,461.7Z" transform="translate(-162.971 -166.101)" fill="#6c63ff"/>
      <path id="Path_302" data-name="Path 302" d="M620.032,228.106a15.521,15.521,0,0,0-1.745-1.1,13.97,13.97,0,0,1-7.662,22.908c-8.3,1.722-16.381-4.172-24.841-4.085a8.687,8.687,0,0,0-4.845,1.252c-4.086,2.794-2.888,8.946-2.105,13.829.517,3.193.305,14.495-5.189,14.189h-.094c1.51,1.839,2.919,3.084,4.007,3.131,5.479.305,5.705-10.957,5.189-14.189-.783-4.884-1.98-11.035,2.105-13.829a8.687,8.687,0,0,1,4.845-1.252c8.46-.086,16.545,5.807,24.841,4.085a14,14,0,0,0,5.479-24.943Z" transform="translate(-163.743 -115.092)" opacity="0.1"/>
      <g id="Group_21" data-name="Group 21" transform="translate(0.013 69.034)" opacity="0.1">
        <path id="Path_303" data-name="Path 303" d="M117.533,179.021s-58.519-24.607-66.189,19.77c0,0-4,6.911,1.565,12.624,0,0,1.2-3.06,6.856.11a29.428,29.428,0,0,0,6.386,2.591,14.37,14.37,0,0,0,9.094-.485h0s19.245-1.041,35.431-26.219c0,0,6.934-4.289,7.286-5.893l-11.6.783s.884,8.492-3.913,13.587c0,0,4.265-13.172,2.215-13.548-.415-.078-6.128.681-6.128.681s1.479,14.761-6.261,22.4c0,0,7.185-15.019,4.054-22.133l-8.554,1.651s2.348,15.528-6.12,24.567c0,0,6.958-15.966,4.273-24.082l-8.2,2.755s1.98,15.2-5.1,22.7c0,0,6.183-19.261,3.271-21.914,0,0-7.373,2.99-8.954,4.7,0,0,1.174,10.957-3.334,14.87,0,0,2.771-13.305,1.4-13.853,0,0-8.57,6.449-11.176,12.014,0,0,3.256-8.5,10.1-13.305,0,0-5.745-.97-10.174,1.432,0,0,2.966-5.643,12.248-2.966,0,0,6.88-4.759,8.257-4.7,0,0-8.781-3.913-15.129-3.436,0,0,6.8-3.913,17.281,2.63l8.171-2.958s-11.341-5.815-17.03-5.792c0,0,7.56-2.919,19.159,5.22l8.367-1.714s-9.392-5.752-15.723-7.091c0,0,7.6-1.2,18.142,6.7l5.729-.485s-6.934-4.078-9.032-5.072-2-1.644-2-1.644a27.315,27.315,0,0,1,13.438,6.465S117.478,179.748,117.533,179.021Z" transform="translate(-49.953 -172.217)" fill="#6c63ff"/>
      </g>
      <g id="Group_22" data-name="Group 22" transform="translate(8.588 -0.004)" opacity="0.1">
        <path id="Path_304" data-name="Path 304" d="M117.754,115.738S96.982,67.785,67.171,89.777c0,0-6.316,1.831-6.261,8.374,0,0,2.458-1.135,4.007,3.968a24.567,24.567,0,0,0,2.348,5.181,11.74,11.74,0,0,0,5.627,4.876h0s12.022,10.347,36,4.61c0,0,6.566,1.409,7.693.65l-7.333-6.152s-4.3,5.549-10.081,5.823c0,0,10.041-5.4,9.032-6.793-.2-.282-4.023-3.084-4.023-3.084s-7.537,9.611-16.436,9.76c0,0,12.828-4.837,15.019-10.84l-6.019-3.913S89.281,112.8,79.114,113.343c0,0,13.227-5.479,16.256-11.865l-6.441-3.037S81.447,108.616,72.986,109c0,0,14.643-7.92,14.416-11.153,0,0-6.081-2.426-8.007-2.285,0,0-5.533,7.161-10.472,6.958,0,0,9.227-6.332,8.719-7.435,0,0-8.766-1.049-13.485.783,0,0,6.778-3.193,13.579-2.144,0,0-2.857-3.858-6.84-4.931,0,0,4.978-1.667,8.969,5.212,0,0,6.793,1.088,7.584,1.9,0,0-2.974-7.349-7.044-10.66,0,0,6.261,1.565,8.766,11.4l6.535,2.9s-3.42-9.916-6.856-13.133c0,0,6.159,2.567,8.413,14.009l5.94,3.749s-2.309-8.766-5.3-13.133c0,0,5.2,3.608,6.966,14.307l3.678,2.974s-1.8-6.371-2.481-8.155-.25-2.113-.25-2.113a22.548,22.548,0,0,1,4.3,11.5S117.331,116.145,117.754,115.738Z" transform="translate(-60.91 -84.006)" fill="#6c63ff"/>
      </g>
    </g>
  </g>
</svg>
