<svg enable-background="new 0 0 209.8 211" viewBox="0 0 209.8 211" xmlns="http://www.w3.org/2000/svg"><path d="m43.9 138.2c-1-2.3-2.2-4.6-3.1-6.9-1-2.5-1.9-5.1-2.4-7.7.4 0 .4.3.6.5 2 2.6 4.6 4.4 7.8 4.9 3.9.6 7.5-.5 10.5-3.3 4.3-4 5.2-11 1.6-15.9-2-2.7-4.5-4.3-7.7-5-3.1-.7-5.8-.1-8.4 1.4-3.2 1.7-5 4.5-6 7.9-.7-1.6-.5-3.3-.6-4.9-.3-3.2.1-6.4.4-9.7.3-2.6.6-5.1 1.2-7.6.7-3 1.5-5.9 2.6-8.7.1-.1.2-.2.3-.3.8 1 1.6 2.1 2.4 3.1 3.9 4.4 8.5 7.6 14.3 9 3 .7 6 1.3 9.2.9 1.4-.2 2.8-.3 4.3-.1.9.2 1.9.3 2.9.2 6.6-.2 13.2.4 19.9-.3 3.1-.3 6-1.3 8.7-2.6 4.6-2.2 8.3-5.5 11-9.8 2.8-4.3 4.4-9 4.5-14.2 0-2.3 0-4.6 0-7 0-7.1 0-14.2 0-21.2 2.4.2 4.6 1.1 6.9 1.8 3.8 1.2 7.4 2.8 10.9 4.7 6.7 3.7 12.7 8.3 17.8 14 1.4 1.6 2.7 3.2 4.1 4.8-3.9 2-7.3 4.6-10.1 8.1-2.9 3.6-5 7.7-5.9 12.1-.7 3.2-1.1 6.4-.5 9.8.5 3 1.1 5.8 2.3 8.6 2.1 5 5.4 9.1 9.8 12.3 4.7 3.4 10 5.3 15.8 5.6-.4 2.6-1.3 5.1-2.2 7.5-1.3 3.5-2.8 6.9-4.7 10.1-1.8 3-3.7 5.9-5.9 8.7-3.5 4.4-7.5 8.3-12.1 11.7-.5.4-1 .7-1.5 1 0-9.2 0-18.5 0-27.7 0-.6 0-1.3 0-1.9-.1-1-.6-1.5-1.6-1.5-7.8 0-15.7 0-23.5.1-2.2 0-4.5.3-6.7.3-3.4 0-6.7-.3-10.1-.3-9.8-.1-19.5 0-29.3 0-1.6 0-1.9.3-1.9 2v27.2 5c-2.7-1.8-5.6-3.3-8-5.4-.9-.7-1.8-1.5-2.6-2.2.9-1.6 1.8-3.2 2.2-5.1.6-2.9.1-5.7-1.3-8.3-1.9-3.4-4.8-5.4-8.5-6.2-2.7-.7-5.1-.2-7.4.5zm59.1-30.4c-10.6 0-21.1 0-31.7 0-1.6 0-1.9.2-1.9 1.9v14.2c0 1.3.5 1.8 1.8 1.7 1.5 0 3-.1 4.5-.1h22.2c1.2 0 2.4.2 3.6.1 4.6-.5 9.2-.4 13.7-.3 4.4.1 8.9.1 13.3.1 2.1 0 4.2.1 6.3.1.9 0 1.6-.3 1.6-1.4 0-5 0-10.1 0-15.1 0-.8-.5-1.1-1.2-1.3-.4-.1-.9 0-1.3 0-10.2.1-20.6.1-30.9.1z" fill="#acaaf7"/><path d="m198.4 88.1c-1.3-6.7-4.4-12.3-9.6-16.7-1.6-1.4-3.4-2.5-5.1-3.7-.3-.2-.7-.4-.8-.9-.1-.7-.6-.8-1.2-.7-.7.1-1.2-.2-1.8-.7-.2-.2-.3-.3-.4-.4-.4-.1-.7-.2-1.1-.3 0 .2-.3.1-.5 0-.3.4-.8.6-1.3.3-.3-.1-.6-.3-.9-.4-.9.7-2 .4-3 .2-3.4-.5-6.6.1-9.8 1-8.8 2.5-14.9 8.1-18.5 16.5-1.9 4.5-2.6 9.3-1.9 14.1 1 7.5 4.5 13.7 10.4 18.5 3.5 2.8 7.5 4.7 12 5.6 3.2.6 6.4.9 9.6.3 6.5-1.1 12.2-4 16.7-8.9 3.3-3.6 5.4-7.7 6.6-12.4 1.1-3.8 1.3-7.6.6-11.4zm-11.2-4.8c-4.2 5.2-8.4 10.4-12.5 15.7-1.8 2.3-3.7 4.6-5.5 6.8-1 1.2-2.2 1.7-4 1.7-1.7.2-3-1.1-4.3-2.2-2.4-1.8-4.7-3.8-7-5.7-.5-.4-1.1-.9-.6-1.7.4-.6.8-.9 1.6-.4 1.6 1.1 3 2.4 4.5 3.5s2.8 2.3 4.3 3.4c1.4 1.1 3 .9 4.1-.5 3.7-4.8 7.6-9.6 11.4-14.3 2.1-2.6 4.1-5.2 6.2-7.8.5-.7 1.1-1.8 2.2-1 .9.9.2 1.7-.4 2.5z" fill="#acaaf7"/><path d="m141.3 168.5c.1-.3.3-.3.5-.2 0 .3-.2.5-.5.2z" fill="#acaaf7"/><path d="m24.3 56.9c.1.1.1.2 0 0z" fill="#acaaf7"/><path d="m96.2 132.9c7.4 0 14.7.1 22.1 0 6.8-.1 13.6.1 20.5-.1 1 0 1.3.3 1.3 1.3v30.9c0 .9-.3 1.1-1.2 1.1-15 0-30 0-45 0-.8 0-1.3-.4-1.9-.8-1.3-1-2.6-2-3.8-3-.5-.4-.9-.6-1.5-.3s-.8.8-.7 1.5c.1 2.6.1 2.6-2.5 2.6-3.4 0-6.9 0-10.3 0-.9 0-1.2-.2-1.2-1.2 0-10.3 0-20.6 0-30.9 0-1.1.4-1.2 1.3-1.2 7.6 0 15.3 0 22.9.1 0-.1 0 0 0 0zm.2 17.4h17.8c.8 0 1.4-.2 1.4-1.1 0-.7-.5-1.1-1.4-1.1-11.8 0-23.6 0-35.4 0-.3 0-.7-.1-1 .3s-.5.7-.3 1.2c.3.7.8.7 1.4.7zm-4 6c-3.7 0-7.4 0-11 0-.9 0-1.8 0-2.6 0s-1.4.3-1.3 1.2c0 .8.6 1.1 1.4 1.1h.7 22.8 3.8c.7 0 1.1-.4 1.1-1.1s-.4-1.1-1.1-1.2c-.4 0-.7 0-1.1 0-4.2 0-8.5 0-12.7 0zm31.4-14.1h2.4 6.6c.8 0 1.4-.4 1.4-1.2 0-.7-.5-1.3-1.4-1.3-.2 0-.3 0-.5 0-5.1 0-10.2 0-15.2 0-.8 0-1.6 0-2.4.1-.6.1-1.2.4-1.2 1.1s.5 1.1 1.2 1.2h.8c2.8.1 5.5.1 8.3.1zm-39.7 0h5.1c.9 0 1.7-.4 1.7-1.3 0-.7-.7-1.2-1.6-1.2-3.4.1-6.9 0-10.3 0-.9 0-1.7.2-1.6 1.2 0 1 .8 1.2 1.7 1.2 1.7.1 3.4.1 5 .1zm18.2 0c1.7 0 3.4 0 5.2.1.9 0 1.6-.4 1.6-1.2s-.7-1.3-1.6-1.2c-1.8.1-3.6 0-5.4 0s-3.5.1-5.3.2c-.6 0-1.3.2-1.3.9-.1.8.5 1.1 1.2 1.2h.8z" fill="#acaaf7"/><path d="m80.6 70.9c.1.8-.2 1.2-.9 1.7-2.8 1.9-2.8 1.9-5.4-.2-.4-.3-.5-.7-.5-1.2.3-1.8.5-3.6.7-5.4.5-3.5.9-7.1 1.4-10.6.1-.7.1-1.4 1.2-1.4.9 0 1.1.3 1.2 1.1.3 3 .8 6.1 1.2 9.1.5 2.3.6 4.6 1.1 6.9z" fill="#acaaf7"/><path d="m77 48.8h1c.7 0 1.6-.4 1.5 1.1s-.2 1.7-1.6 1.7c-.8 0-1.6 0-2.4 0-.6 0-1-.4-1.2-.9s-.1-1.2 0-1.8c0-.2.4-.2.6-.2.7 0 1.4.1 2.1.1z" fill="#acaaf7"/><path d="m48.8 145.9c2.3 0 3.7 1.5 3.8 3.8.1 2-1.6 3.7-3.6 3.8-2.1 0-4-1.7-4-3.6 0-2.5 1.7-4.2 3.8-4z" fill="#acaaf7"/><path d="m103.4 174c-2.4-1.5-4.5-3.5-6.9-5.2.2-.5.6-.3.9-.3h31.8c.2 0 .5.1.7.1-2.2 1.1-4.6 1.8-7 2.6-2.5.8-5 1.3-7.5 1.8-4 .8-8 1.1-12 1z" fill="#acaaf7"/><path d="m77.3 168.6c2.8-.3 5.6-.1 8.4-.1.5 0 .6.4.6.8v2.5c-3.1-.8-6.1-1.6-9-3.2z" fill="#acaaf7"/><g fill="#5243a8"><path d="m43.9 138.2c2.3-.7 4.6-1.2 7.1-.7 3.8.8 6.7 2.8 8.5 6.2 1.4 2.6 1.9 5.3 1.3 8.3-.4 1.8-1.3 3.4-2.2 5.1-1.3 1.2-2.5 2.5-4.1 3.4-5.5 3-12.8 1.3-16.3-4.3-3.7-5.9-1.7-13.5 4-17.1.7-.3 1.4-.3 1.7-.9zm4.9 1.6c-5.4-.2-10 4.6-9.9 9.9.1 5.4 4.5 9.9 9.9 9.9s9.9-4.4 9.9-9.9c0-5.4-4.7-10.1-9.9-9.9z"/><path d="m172.8 169.2c-.1.7-.6 1.1-1 1.5-1.8 1.9-3.7 3.7-5.6 5.5-.6.6-1.3.8-1.9.1s-.3-1.4.3-1.9c2-1.8 4-3.7 5.8-5.8.5-.5 1-.7 1.7-.4.5.2.6.6.7 1z"/><path d="m21.3 146.2c.1 1-.5 1.3-1 1.5-.6.2-1-.2-1.2-.7-1.4-2.7-2.5-5.6-3.6-8.4-.3-.7.3-1.2.9-1.5.7-.3 1.2.2 1.4.8.8 1.9 1.6 3.9 2.4 5.8.3.9.8 1.8 1.1 2.5z"/><path d="m115.8 13.7c2.8.5 5.6 1 8.4 1.6.7.1 1.3.7 1.1 1.6s-.9 1-1.7.8c-2.6-.6-5.3-1.1-7.9-1.4-.8-.1-1.6-.4-1.5-1.3 0-1 .7-1.4 1.6-1.3z"/><path d="m10.8 93.6c.4-2.3.7-4.7 1.3-7 .1-.5.1-1 .3-1.5.2-.8.7-1.2 1.6-1 .8.2 1 .8.8 1.5-.3 1.3-.5 2.6-.8 3.9-.3 1.2-.4 2.4-.6 3.6-.1.3 0 .6-.2.9-.2.6-.5 1.3-1.3 1.1-.8-.1-1.2-.7-1.1-1.5z"/><path d="m24.3 153.2c.7 0 1 .5 1.3.9 1.4 2.3 2.9 4.6 4.5 6.7.5.7.7 1.4-.1 1.9s-1.4.1-1.9-.6c-1.6-2.3-3.2-4.6-4.7-7-.2-.4-.5-.8-.2-1.3.4-.3.7-.6 1.1-.6z"/><path d="m182.5 56.5c.1.8-.4 1.1-.8 1.3-.5.3-1 .1-1.3-.4-1.6-2.5-3.4-4.9-5.2-7.3-.5-.6-.3-1.1.3-1.6s1.1-.3 1.5.2c1.6 1.9 3 3.9 4.4 6 .5.7 1 1.3 1.1 1.8z"/><path d="m15.1 129.4c0 .7-.2 1.2-.9 1.4-.7.1-1.1-.1-1.3-.8-.6-1.9-1-3.9-1.3-5.9-.2-1-.5-1.9-.5-2.9 0-.8.2-1.4 1-1.5s1.2.4 1.3 1.2c.5 2.8 1.1 5.6 1.7 8.5z"/><path d="m186.6 148.2c-.7 0-1.2-.7-.9-1.6 1.1-2.7 2.4-5.3 3.3-8 .2-.7.8-1.3 1.6-.9.7.3 1.1.9.7 1.8-1.1 2.7-2.2 5.3-3.4 8-.3.5-.8.6-1.3.7z"/><path d="m117.8 40.8v21.2 7c-.1 5.2-1.7 9.9-4.5 14.2s-6.5 7.6-11 9.8c-2.7 1.3-5.6 2.2-8.7 2.6-6.6.7-13.2.2-19.9.3-1 0-1.9-.1-2.9-.2-1.4-.3-2.9-.1-4.3.1-3.1.5-6.1-.1-9.2-.9-5.8-1.4-10.4-4.6-14.3-9-.9-1-1.6-2.1-2.4-3.1-.4-1.4-1.3-2.6-1.9-3.9-1.4-3.4-2.1-6.9-2.1-10.5 0-9.4-.1-18.9.1-28.3.1-5.3 2.2-10 5.3-14.2 3-4.1 6.9-7.1 11.5-9.1 2.3-1 4.7-1.7 7.3-1.9 10.1-.7 20.2-.6 30.3-.2 10.3.4 18.2 5.6 23.3 14.7 2.1 3.6 3 7.4 3.4 11.4zm-41.4 52.6h13.8c1.3 0 2.7-.1 4-.3 3.7-.6 7-2 10.1-4 4.4-2.9 7.5-6.9 9.4-11.8 1.3-3.1 1.7-6.5 1.7-9.9-.1-8.4 0-16.8 0-25.2 0-2.4-.3-4.8-1-7.1-1.7-5.2-4.5-9.5-8.9-12.9-4.2-3.2-9-5.2-14.3-5.2-8.8 0-17.7-.3-26.5-.1-4.2.1-8.1.8-11.8 2.8-8.9 4.7-13.6 12.2-14 22.1-.3 8.9-.1 17.8-.1 26.6 0 2 .3 3.9.8 5.8.9 3.5 2.5 6.7 4.7 9.5 4.5 5.6 10.4 8.8 17.4 9.5 5.3.7 10.4.1 14.7.2z"/><path d="m69.4 164.6c0-1.7 0-3.4 0-5 0-9.1 0-18.2 0-27.2 0-1.7.3-2 1.9-2h29.3c3.4 0 6.7.3 10.1.3 2.2 0 4.5-.3 6.7-.3 7.8-.1 15.7-.1 23.5-.1 1 0 1.5.6 1.6 1.5v1.9 27.7c-.1 1.8-.1 3.7 0 5.5 0 .5-.1 1-.7 1.3-.2 0-.4 0-.5.2-3.8 0-7.6.1-11.4.1-.2 0-.5-.1-.7-.1-10.6 0-21.2 0-31.8 0-.3 0-.7-.1-.9.3 2.3 1.7 4.4 3.7 6.9 5.2.5.8 1.2.9 2 .9h29c1.9 0 2.1.2 2.1 2v14.2c0 1.7-.5 2-2 2-8.9 0-17.8 0-26.6 0-.4 0-.8 0-1.3 0 .4.9.8 1.6 1.2 2.4.5 1.1.4 1.6-.7 2.3-1 .5-1.9 1.1-2.9 1.6-.8.4-1.5.4-2-.6-.8-1.6-1.7-3.2-2.5-4.8-.4-.7-.8-.9-1.6-.9-6.6 0-13.1 0-19.7 0-2.4 0-4.8 0-7.2 0-1.5 0-1.8-.3-1.8-1.8 0-4.9 0-9.8 0-14.6 0-1.5.3-1.8 1.8-1.8h14.2c.9 0 1.1-.2 1-1.1-.1-.7-.1-1.4-.1-2 0-.8 0-1.7 0-2.5 0-.4-.1-.8-.6-.8-2.8 0-5.6-.2-8.4.1-.2 0-.5-.1-.7-.1-.3-.4-.7-.2-1.1-.2-1.9 0-3.7 0-5.6 0-.9-1-.3-2.4-.5-3.6zm26.8-31.7c-7.7-.1-15.4-.1-23-.1-.9 0-1.3.2-1.3 1.2v30.9c0 1 .3 1.2 1.2 1.2h10.3c2.6 0 2.6 0 2.5-2.6 0-.7.1-1.2.7-1.5s1.1-.1 1.5.3c1.3 1 2.5 2 3.8 3 .6.4 1.1.8 1.9.8h45c.9 0 1.2-.2 1.2-1.1 0-10.3 0-20.6 0-30.9 0-1-.3-1.3-1.3-1.3-6.8.2-13.6-.1-20.5.1-7.3.1-14.6 0-22 0zm23.5 57.9h13.3c.9 0 1.2-.2 1.2-1.1 0-3.8 0-7.6 0-11.4 0-.7-.1-1-.9-1-8.5 0-17 0-25.5 0-.4 0-.8 0-.8.6-.1.9-.7 1.4-1.4 1.7-1.4.7-2.8 1.5-4.2 2.2-.5.2-.6.3-.3.8 1.3 2.4 2.6 4.8 3.8 7.2.4.7.8.9 1.6.9 4.3.1 8.7.1 13.2.1zm-21.8 0c-.8-1.6-1.4-3-2.2-4.4-.6-1.3-.8-1.3-2.1-.5-1.2.7-2.5 1.3-3.8 1.9-1.4.7-2.7-.1-2.6-1.6 0-2.7-.6-5.3-.4-8 0-.6-.2-.8-.8-.8-4.4 0-8.8 0-13.2 0-.6 0-.8.2-.8.8v11.7c0 .7.2.9 1 .9zm-9.4-25.2c0 3.1.2 5.8.4 8.5.2 3.3.3 6.5.4 9.8.1 1.2.3 1.4 1.3.8.9-.5 1.9-1 2.9-1.5 1.7-.8 2.9-.5 3.7 1.1 2.1 3.9 4.1 7.8 6.1 11.7.4.7.7.6 1.3.3.8-.4.5-.8.2-1.2-2-3.9-4.1-7.7-6.1-11.6-.8-1.6-.4-3.1 1.1-3.9l3-1.5c1.1-.6 1.1-.7.1-1.5-3.1-2.4-6.2-4.8-9.3-7.2-1.6-1.1-3.2-2.4-5.1-3.8z"/><path d="m158 180c.8-.1 1.1.3 1.3.8.3.6-.1 1-.5 1.3-1 .8-2 1.4-3 2.1-1.5 1-2.9 2-4.5 2.8-.8.5-1.2.2-1.7-.4-.5-.7-.1-1.2.4-1.5 2.5-1.5 5-3.2 7.4-4.9.2-.1.5-.1.6-.2z"/><path d="m133.1 17.8c.8.3 1.8.6 2.8 1 1.8.7 3.7 1.5 5.5 2.2.7.3 1.2.9.8 1.7-.3.8-1 .9-1.8.6-2.4-1.1-4.9-2.1-7.4-2.9-.7-.2-1.5-.4-1.4-1.5.2-.8.5-1.2 1.5-1.1z"/><path d="m182.2 153.8c1.2 0 1.7.8 1.1 1.7-1.5 2.5-3.2 4.9-4.9 7.3-.4.5-.9 1.1-1.8.5-.8-.6-.6-1.2-.1-1.9 1.8-2.2 3.2-4.6 4.8-7 .3-.4.6-.6.9-.6z"/><path d="m20.6 68.5c-.4.9-.9 2.1-1.4 3.2-.7 1.7-1.3 3.3-2 5-.3.7-.6 1-1.4.9-.8-.2-1-.7-.8-1.4.4-1.9 1.3-3.6 1.9-5.3.4-1.1.9-2.1 1.4-3.1.3-.6.8-.9 1.4-.7.6.1.9.5.9 1.4z"/><path d="m156.9 32.2c-1.1 0-1.6-.7-2.2-1.1-1.8-1.1-3.5-2.3-5.4-3.3-.2-.1-.4-.2-.6-.4-.5-.4-.9-.9-.5-1.6.5-.7 1.2-.8 1.8-.4 2.5 1.5 5 3.1 7.4 4.8.3.2.8.7.4 1.3-.2.3-.4.8-.9.7z"/><path d="m162.7 36.6c-.1-.5.2-.8.5-1 .4-.3.8-.3 1.2 0 2.4 1.9 4.6 4.1 6.7 6.3.5.5.5 1.2 0 1.7s-1.2.4-1.7-.1c-1.9-2.1-4.1-4-6.2-5.9-.3-.3-.6-.6-.5-1z"/><path d="m195.9 122c-.4 2.1-.8 4.2-1.3 6.3-.2.6-.2 1.3-.5 1.9-.2.6-.5 1.1-1.2 1-.8-.1-1-.8-.9-1.5.1-1.1.3-2.3.5-3.4.3-1.6.7-3.1 1-4.6.2-.9.4-1.5 1.4-1.4 1.1.2 1 1 1 1.7z"/><path d="m10.1 107.3c0-1.4 0-2.9 0-4.3 0-.9.5-1.3 1.2-1.3.6 0 1.1.5 1.1 1.3-.1 2.9-.2 5.7.1 8.6.1.8-.4 1.5-1.2 1.5-.7 0-1.2-.6-1.2-1.5 0-1.4 0-2.9 0-4.3z"/><path d="m24.2 61.1c-.4.3-.8.2-1.2-.1-.4-.4-.3-.9-.1-1.3.3-.7.8-1.4 1-2 .2-.2.3-.5.5-.7.1 0 .2 0 .1-.1.9-1.6 1.9-3.1 3-4.7.5-.8 1.2-.9 1.8-.5.7.4.5 1.2.1 1.9-.3.4-.6.8-.9 1.3-.3.4-.6.7-.9 1.1"/><path d="m165.2 107.5c-1.7.2-3-1.1-4.3-2.2-2.4-1.8-4.7-3.8-7-5.7-.5-.4-1.1-.9-.6-1.7.4-.6.8-.9 1.6-.4 1.6 1.1 3 2.4 4.5 3.5s2.8 2.3 4.3 3.4c1.4 1.1 3 .9 4.1-.5 3.7-4.8 7.6-9.6 11.4-14.3 2.1-2.6 4.1-5.2 6.2-7.8.5-.7 1.1-1.8 2.2-1 1 .8.3 1.6-.3 2.4-4.2 5.2-8.4 10.4-12.5 15.7-1.8 2.3-3.7 4.6-5.5 6.8-1.1 1.3-2.4 1.8-4.1 1.8z"/><path d="m92.4 156.3h12.7 1.1c.7.1 1.1.4 1.1 1.2 0 .7-.4 1.1-1.1 1.1-1.3 0-2.6 0-3.8 0-7.6 0-15.2 0-22.8 0-.2 0-.5 0-.7 0-.8 0-1.4-.2-1.4-1.1s.6-1.2 1.3-1.2h2.6z"/><path d="m123.8 142.2c-2.8 0-5.5 0-8.3 0-.3 0-.6 0-.8 0-.7-.1-1.2-.5-1.2-1.2s.6-1 1.2-1.1c.8-.1 1.6-.1 2.4-.1h15.2.5c.9 0 1.4.5 1.4 1.3 0 .7-.6 1.2-1.4 1.2-2.2 0-4.4 0-6.6 0-.8-.1-1.6-.1-2.4-.1z"/><path d="m84.1 142.2c-1.7 0-3.3 0-5 0-.9 0-1.7-.2-1.7-1.2s.8-1.2 1.6-1.2h10.3c.9 0 1.6.5 1.6 1.2 0 .9-.7 1.3-1.7 1.3-1.6-.1-3.4-.1-5.1-.1z"/><path d="m102.3 142.2c-1.6 0-3.2 0-4.8 0-.3 0-.6 0-.8 0-.7-.1-1.3-.4-1.2-1.2.1-.7.7-.9 1.3-.9 1.8-.1 3.5-.2 5.3-.2h5.4c.9 0 1.6.5 1.6 1.2 0 .9-.7 1.2-1.6 1.2-1.8-.1-3.5-.1-5.2-.1z"/><path d="m77.9 88.4c-5.9.1-10.8-.7-15.4-3-3.5-1.7-6.4-4.2-8.1-7.8-.5-1-.8-2.1-.9-3.3-.1-4.9.3-9.8 1.1-14.7.7-4.6 2.4-8.7 5.1-12.4 1.3-1.9 2.9-3.5 4.6-5 .6-.5.8-1 .4-1.7-.8-1.3-.9-2.9-1-4.4-.3-4.2 1.9-9.9 6.6-11.9.3-.1.7-.3 1-.5 4.9-3.7 13.5-.9 16.5 4.5 2.2 3.9 2.7 7.8 1.2 12-.3.7-.2 1.1.5 1.7 3.8 3 6.5 6.8 8.4 11.2 1.2 3 1.9 6.1 2.2 9.3.4 3.5.6 6.9.7 10.4.1 4.4-2 7.7-5.3 10.3-3 2.4-6.5 3.7-10.3 4.6-2.7.6-5.3.6-7.3.7zm-.7-2.2c3.1 0 6.1-.4 9.1-1.2 2.9-.7 5.6-1.9 7.9-3.8 3-2.4 4.7-5.4 4.3-9.4-.2-1.6-.2-3.2-.3-4.8-.3-4.2-.6-8.3-2.2-12.3-1.6-4.3-4.1-7.9-7.7-10.9-.6-.5-.9-.6-1.5.1-1.1 1.4-2.4 2.6-4.1 3.3-.6.3-.9.7-.9 1.5.1 1.4.2 2.8-.8 3.9-.5.6-.5 1.1-.3 1.7.1.3.2.7.2 1 .5 4 1 8.1 1.5 12.1.1 1.1.2 2.2.5 3.2.3 1.2-.1 2.1-.8 2.9-.7.7-1.6 1.3-2.4 1.9-2.1 1.6-2.9 1.6-5 0-.4-.3-.8-.7-1.2-.9-2.1-1.1-2.2-3-1.8-4.9.5-2.2.6-4.5.9-6.7.4-2.6.8-5.2 1-7.8.1-.6.4-1.3-.2-1.7-1.7-1.1-1.7-2.7-1.5-4.3.1-1-.3-1.5-1.1-1.8-1.5-.7-2.8-1.8-3.8-3.1-.6-.8-.9-.5-1.4-.1-1.2 1.2-2.4 2.4-3.5 3.7-3 3.8-4.7 8.2-5.4 13-.5 3.3-.5 6.7-.9 10-.6 5.5 1.9 9.1 6.4 11.8 4.7 2.7 9.8 3.4 15 3.6zm10.3-50.8c.2-6.3-4.8-11.2-10.6-11.2-5.9 0-10.7 4.9-10.7 11.1 0 6.3 4.8 11.1 10.6 11.1 5.9.1 10.8-4.7 10.7-11zm-6.9 35.5c-.5-2.3-.6-4.6-.9-6.8-.4-3-.9-6.1-1.2-9.1-.1-.9-.3-1.1-1.2-1.1-1.1 0-1.1.7-1.2 1.4-.5 3.5-1 7.1-1.4 10.6-.2 1.8-.5 3.6-.7 5.4-.1.5.1.9.5 1.2 2.6 2.1 2.6 2.1 5.4.2.5-.6.8-1.1.7-1.8zm-3.6-22.1c-.7 0-1.4 0-2 0-.2 0-.6-.1-.6.2-.1.6-.2 1.2 0 1.8.1.5.5.9 1.2.9h2.4c1.4 0 1.5-.3 1.6-1.7s-.8-1-1.5-1.1c-.5-.1-.8-.1-1.1-.1z"/><path d="m48.9 143.4c3.5.3 6.2 2.7 6.1 6.4s-2.8 6.1-6.3 6.2c-3.4 0-6.3-3-6.2-6.4.1-3.6 2.9-6.1 6.4-6.2zm-.1 2.5c-2.1-.2-3.8 1.5-3.8 3.9 0 2 1.8 3.6 4 3.6 2 0 3.7-1.7 3.6-3.8-.1-2.2-1.5-3.7-3.8-3.7z"/><path d="m96.4 150.3c-5.8 0-11.7 0-17.5 0-.6 0-1.1 0-1.4-.7-.2-.5 0-.8.3-1.2s.6-.3 1-.3h35.4c.8 0 1.4.4 1.4 1.1 0 .8-.6 1.1-1.4 1.1-6 0-11.9 0-17.8 0z"/><path d="m103 107.8h31.1 1.3c.7.1 1.2.5 1.2 1.3v15.1c0 1-.7 1.4-1.6 1.4-2.1 0-4.2 0-6.3-.1-4.4-.1-8.9 0-13.3-.1-4.6-.1-9.2-.3-13.7.3-1.2.1-2.4-.1-3.6-.1-7.4 0-14.8 0-22.2 0-1.5 0-3 .1-4.5.1-1.3 0-1.8-.4-1.8-1.7 0-4.7 0-9.4 0-14.2 0-1.7.2-1.9 1.9-1.9 10.3-.1 20.9-.1 31.5-.1zm0 15.4h30c.9 0 1.2-.2 1.2-1.1-.1-3 0-6.1 0-9.1 0-2.7 0-2.7-2.6-2.7-19.5 0-39 0-58.6 0-.8 0-1.1.3-1.1 1.1 0 3.6.1 7.1 0 10.7 0 1 .3 1.2 1.3 1.2 9.9-.1 19.9-.1 29.8-.1z"/></g><circle cx="48.8" cy="182.5" fill="none" r="11.2" stroke="#5243a8" stroke-miterlimit="10" stroke-width="2"/><circle cx="48.8" cy="116.9" fill="none" r="11.5" stroke="#5243a8" stroke-miterlimit="10" stroke-width="2"/><circle cx="170.6" cy="92.8" fill="none" r="28.8" stroke="#5243a8" stroke-miterlimit="10" stroke-width="3"/></svg>