<svg enable-background="new 0 0 211.7 215.3" viewBox="0 0 211.7 215.3" xmlns="http://www.w3.org/2000/svg"><path d="m172.3 86.9c.9 1 1 2.4 1.4 3.6.6 2.1 1.1 4.2 1.4 6.4.4 2.4.7 4.7.8 7.1.2 4.2.2 8.4-.2 12.6-.5 5-1.6 9.9-3.2 14.7-1.4 4.1-3.2 8-5.3 11.8-2.8 5.1-6.2 9.9-10.2 14.1-2.5 2.6-5.3 5-8.1 7.4-1.5 1.2-3.1 2.4-4.5 3.9-.3.3-.6.7-1.1.5 0-.4.2-.8.5-1.1 2.2-2.8 2.2-6 1-9-1.3-3.3-4.1-5-7.7-5.3-2.4-.2-4.4.8-6.5 1.8-4.2 2-8.4 4.1-12.6 6.1-6 2.8-12 5.6-18 8.4-.6.3-.8.2-1.1-.3-.5-.9-1.2-1.7-1.9-2.4-2.2-1.9-4.9-2.8-7.4-4.2-4.8-2.6-9.8-5-14.6-7.7-4.2-2.3-8.6-3.6-13.4-3.4-4.2.2-8.3 0-12.5 0-.4 0-.8.1-1.2-.1-2.6-3.5-5-7.2-6.9-11.1-1.2-2.5-2.3-5.1-3.3-7.8-1.1-2.9-1.9-5.8-2.6-8.8-.7-2.8-1-5.7-1.4-8.6-.5-4-.4-8.1-.2-12.1.2-2.9.6-5.8 1.2-8.6.9-4.5 2.1-8.8 3.9-13 2.1-5.3 4.8-10.2 8.2-14.8 2.5-3.4 5.2-6.7 8.3-9.6 4.6-4.4 9.7-8.2 15.3-11.3 2.2-1.2 4.5-2.2 6.7-3.3.3-.2.7-.2 1.1-.2.5 1.5.5 3.1.6 4.6.4 3.3 1 6.6 1.7 9.9 1 4.8 2.4 9.4 4.1 14 1.9 5.9 4.4 11.5 7.4 16.9 4.3 7.9 9.3 15.2 15 22.1 6.4 7.8 13.4 14.9 21.3 21.2 2.2 1.7 4.5 1.8 6.8.1 3.2-2.4 6.2-5.1 9.1-7.9 6-5.7 11.5-11.9 16.4-18.5 3.2-4.3 6.2-8.8 8.9-13.5.9-1.5 1.6-3.2 2.8-4.6zm-61.3 67.4h2c1.1 0 1.6-.6 1.3-1.7-.9-3.2-1.9-6.3-2.8-9.5-.2-.7-.5-1.4-1.1-1.9-3.7-3.4-7.2-7-10.7-10.6-6.1-6.3-12.4-12.5-18.6-18.7-.5-.5-.7-1-.5-1.7.7-2.6 1.1-5.3.7-8-.6-4.3-2.3-8.1-5.3-11.2-3.5-3.6-7.8-5.6-12.8-6-3-.3-5.8.2-8.5 1.3-3.6 1.4-6.5 3.6-8.8 6.7-2.7 3.7-4.1 7.9-3.8 12.5.3 4.9 2.1 9.3 5.6 12.8 3.6 3.6 7.9 5.8 13.1 5.9 2.2 0 4.4.1 6.5-.7.7-.3 1.2-.1 1.6.7.8 2 2 3.8 3.5 5.3 1.1 1.2 1.8 1.9 3.3.1.5-.6.9-.7 1.3-.1.8 1.1 1.9 1.4 3.1 1.5.6.1 1 .3 1 1 0 .9.4 1.8.4 2.7.1.9.6 1.4 1.4 1.3 1.8-.1 2 1.3 2.2 2.5.2.8.6 1.2 1.4 1.2.7 0 1.4.2 2 .2 1-.1 1.2.4 1.3 1.3.2 2.7.3 2.7 2.9 3.1 1.6.3 2 .6 2.1 2.1.2 2.6.2 2.6 2.9 2.9 1.8.2 1.8.3 1.9 2v.4c.1 1.7.3 2 1.9 2.1 3.2.2 6.4.3 9.5.5z" fill="#fcae68"/><path d="m110.2 147.5c-2.4-2.4-4.7-4.8-7.1-7.1-9.7-9.7-19.4-19.4-29-29.1-.2-.2-.3-.3-.5-.5-.6-.5-1.2-.7-1.8-.1-.5.6-.4 1.2.2 1.8l24.4 24.4c4.8 4.8 9.7 9.7 14.5 14.5.1.1.2.3.4.7-3-.6-5.8-.3-8.6-.7-.7-.1-.9-.3-.9-.9-.1-2.7-.2-2.7-2.8-3.3-.3-.1-.7-.2-1.1-.2-.5 0-.7-.2-.7-.7 0-.3-.1-.6-.1-.8-.6-2.9-.6-3-3.5-3.4-1.1-.2-1.4-.5-1.5-1.5-.3-2.6-.4-2.6-2.9-2.9-2-.3-2.1-.3-2.4-2.2-.2-.9-.6-1.3-1.5-1.3-1.2 0-1.7-.6-1.7-1.8 0-.9-.3-1.7-.4-2.6-.1-.5-.4-.6-.8-.7-1.8-.3-3.5-.7-4.6-2.5-.5-.8-1.3-.7-2.1-.1-.5.4-.9 1.4-1.5 1.1-.7-.3-1.4-1-1.8-1.8-.7-1.5-1.4-2.9-2.1-4.4-.4-.8-.9-1.1-1.7-.7-2.7 1.2-5.6 1.6-8.6 1.2-4.6-.6-8.4-2.6-11.4-6.2-1.5-1.9-2.7-4-3.3-6.3-.7-2.6-.9-5.3-.4-8 1-5.6 4.1-9.8 9.1-12.4 2.9-1.5 6-2 9.2-1.7 5 .4 8.9 2.6 12 6.4 3 3.6 4.2 7.8 3.7 12.5-.2 1.5-.3 2.9-.9 4.3-.3.8-.2 1.5.5 2.1 7.4 7.4 14.9 14.7 22.2 22.2 2.5 2.5 5 4.9 7.5 7.4.8.8 1.2 1.6 1.4 2.7.2.8.5 1.6.7 2.4 0 .1-.1.1-.1.2zm-54-42.8c2.6.3 5.8-2.6 5.7-5.7-.1-3.2-2.7-5.8-5.8-5.8s-5.7 2.7-5.7 5.8c0 3.2 2.5 5.7 5.8 5.7z" fill="#fc9317"/><path d="m95 45.6c-.2-.9.3-1.2 1.4-1.5 3.3-.7 6.6-1.6 9.9-2.5 3.9-1.1 7.7-2.4 11.5-3.9 4.5-1.7 8.9-3.8 13.1-6.2.8-.4 1.3-.4 2.1.1 4.7 2.8 9.6 4.9 14.7 6.8 3.4 1.3 6.8 2.4 10.3 3.3 3.2.9 6.4 1.8 9.7 2.4.9.2 1.2.6 1.1 1.5-.6 5.4-1.4 10.8-2.9 16.1-2.3 7.9-5.5 15.4-9.6 22.5-5.6 9.6-12.6 18.2-20.6 25.9-1 .9-2 1.8-3 2.7-.5.5-.9.5-1.5 0-7-6.1-13.1-13-18.5-20.6-3.9-5.4-7.2-11.2-10-17.3-2.4-5.1-4.1-10.4-5.5-15.9-1.1-4.4-1.9-8.8-2.2-13.4zm47.6 22.3h8.8c.8 0 1.4-.3 1.5-1.1.1-.9-.6-1.1-1.3-1.2-.4 0-.7 0-1.1 0-5.4 0-10.7 0-16.1 0-1.2 0-1.5-.4-1.5-1.5 0-5.4 0-10.8 0-16.2 0-.5 0-1-.1-1.4-.2-.9-1.2-1.1-1.8-.4-.4.4-.3 1-.3 1.5v16.7c0 1.2-.4 1.4-1.5 1.4-4.8-.1-9.7 0-14.5 0-1 0-2 .1-3 .1-.5 0-.7.4-.9.7-.2.4.1.8.3 1.1.4.5.9.4 1.4.4h16.8c1 0 1.3.2 1.3 1.2-.1 5.5 0 11 0 16.5v1c.1.7.5 1.1 1.2 1.1s1-.4 1.1-1c0-.4.1-.9.1-1.3 0-5.4 0-10.9 0-16.3 0-.9.3-1.2 1.2-1.2 2.7-.1 5.6-.1 8.4-.1z" fill="#fcc592"/><path d="m56.1 102.5c-1.9 0-3.5-1.7-3.4-3.5 0-2 1.7-3.7 3.7-3.6 1.8 0 3.4 1.8 3.4 3.6-.1 1.8-1.8 3.5-3.7 3.5z" fill="#fcae68"/><g fill="#a3580d"><path d="m172.3 86.9c-1.2 1.4-1.9 3.2-2.8 4.8-2.7 4.7-5.7 9.1-8.9 13.5-5 6.6-10.4 12.8-16.4 18.5-2.9 2.8-5.9 5.5-9.1 7.9-2.2 1.7-4.6 1.6-6.8-.1-7.9-6.3-14.9-13.4-21.3-21.2-5.7-6.9-10.7-14.3-15-22.1-2.9-5.4-5.4-11-7.5-16.8-1.7-4.6-3-9.2-4.1-14-.7-3.3-1.4-6.5-1.7-9.9-.2-1.5-.2-3.1-.6-4.6.1-2.3 0-4.6-.2-6.8-.3-3 .5-4.9 4.2-5.5 3.9-.6 7.8-1.6 11.6-2.5 5.9-1.4 11.6-3.2 17.3-5.4 6.4-2.5 12.7-5.4 18.3-9.4 1.4-1 3.2-1.2 4.9 0 5.9 4.1 12.3 7.1 19 9.6 4.9 1.9 10 3.4 15.1 4.8 4.6 1.2 9.3 2.3 14 3 1.6.2 3.5 1.6 3.5 3.9-.1 6.3-.7 12.6-1.8 18.8-.9 5.1-2.2 10.2-3.8 15.1-1.5 4.5-3.2 8.9-5.3 13.2-.9 1.6-2.1 3.2-2.6 5.2zm-92.2-49.1c.2 5.5.9 10.9 1.9 16.3 1.1 5.5 2.6 10.9 4.5 16.2 2.5 7.2 5.8 14.1 9.7 20.6 4.6 7.8 9.9 15.1 16 21.9 5.4 6.1 11.1 11.8 17.5 16.8 1.5 1.2 2.9 1.1 4.5-.1 5.8-4.7 11.2-9.9 16.2-15.4 4.3-4.8 8.3-9.8 12-15.2 4.3-6.3 8-12.9 11.2-19.8 2.1-4.6 3.9-9.3 5.3-14.1 1.2-4 2.2-8.1 3-12.3 1.1-6 1.7-11.9 1.7-18 0-1.4-.5-1.9-1.9-2.1-1.7-.2-3.3-.5-4.9-.9-3.6-.8-7.1-1.7-10.7-2.6-4.7-1.3-9.5-2.6-14-4.4-6.6-2.7-13.3-5.5-19.1-9.8-.8-.6-1.6-.6-2.5 0-6.5 4.7-13.8 7.8-21.3 10.5-4.8 1.7-9.7 3.2-14.7 4.5-4.2 1.1-8.5 2.1-12.8 2.8-1.2.2-1.7.7-1.7 1.9.1 1 .1 2.1.1 3.2z"/><path d="m47.8 151.8c.4.2.8.1 1.2.1 4.2 0 8.3.1 12.5 0 4.9-.2 9.2 1.1 13.4 3.4 4.8 2.7 9.8 5 14.6 7.7 2.5 1.3 5.2 2.3 7.4 4.2.8.7 1.5 1.4 1.9 2.4.3.5.5.6 1.1.3l18-8.4c4.2-2 8.4-4.1 12.6-6.1 2-1 4.1-2 6.5-1.8 3.6.4 6.5 2.1 7.7 5.3 1.1 2.9 1.1 6.2-1 9-.2.3-.5.6-.5 1.1-1.9 2.2-4.5 3.3-6.9 4.8-7.2 4.3-14.4 8.5-21.6 12.7-2.9 1.7-5.7 3.6-9.1 4.5-5.8 1.5-11.6 3-17.4 4.5-3 .8-5.9 1.7-8.9 2.3-2.9.6-5.9.6-8.8 0-5.5-1.2-10.7-3.4-16.1-5.1-4.1-1.3-8.1-2.6-12.1-3.8-.6-.2-1.3-.5-1.9-.8-2.1-1-4.4-1.5-6.6-2.1-3.1-.9-4.8-3.4-5.4-6.1-1-4.9-1-10 .2-15 1.4-5.6 5.2-9.5 10.5-11.7 2.1-.9 4.3-1.1 6.6-1.1.7-.1 1.4-.2 2.1-.3zm6.9 2.5c-2.9-.1-5.8-.1-8.6-.1-1.5 0-3 0-4.5.4-5.2 1.5-8.9 4.8-10.5 9.9-1.5 4.8-1.2 9.8-.5 14.7.3 2.2 2.1 4 4.4 4.7 2.6.8 5.2 1.5 7.7 2.5 1.9.8 3.8 1.6 5.7 2.1 6.2 1.6 12.1 3.9 18.1 5.8 3.3 1.1 6.7 1.8 10.2 1.4 5.1-.5 9.9-2.4 14.8-3.5 3.4-.8 6.9-1.7 10.3-2.7 2.5-.7 5.2-1.2 7.5-2.6 5.1-3 10.3-6 15.4-9.1s10.4-5.8 15.2-9.2c2.6-1.8 3.9-5.4 3-8.4-1-3.1-5-5.3-8.2-4.3-2.8.9-5.4 2.4-8 3.6-4.9 2.3-9.8 4.6-14.7 6.9-3.8 1.8-7.5 3.6-11.3 5.3-.7.3-1 .7-.9 1.4.1 1-.1 2-.3 3-1.3 5.3-6.7 8.2-11.9 6.4-1.7-.6-3.3-1.5-5-2.2-3.3-1.5-6.7-3-10-4.7-3.2-1.6-6.6-2.7-9.7-4.5-.6-.4-1.5-.7-1.1-1.7.4-.9 1.2-.5 1.9-.2 7.2 3.1 14.4 6.5 21.5 9.8 1.9.9 3.6 1.9 5.9 1.7 2.5-.1 5.7-2.1 6.5-6 .6-2.8-.8-5.7-3.6-7.2-7.3-3.8-14.5-7.6-21.8-11.3-2.2-1.1-4.4-2.3-6.9-2.3-3.5.4-7 .4-10.6.4z"/><path d="m8.5 103.1c.2-2.2.5-4.6.7-7 .1-.7.4-1.2 1.2-1.2.8.1 1 .6 1 1.4-.2 2.8-.5 5.5-.7 8.3-.1.6-.4 1.1-1.1 1-.7 0-1.1-.4-1.1-1.1 0-.4 0-.8 0-1.4z"/><path d="m200.8 106.3v3.2c0 .9.1 2-1.1 1.9-1.2 0-1.1-1-1.1-1.9 0-2.4.1-4.9-.2-7.3-.1-.8.2-1.5 1-1.6.9-.1 1.2.6 1.2 1.3.1 1.4 0 2.9 0 4.3.1.1.2.1.2.1z"/><path d="m14.3 78.1c.6 0 1.2.8 1 1.5-.8 2.6-1.6 5.2-2.2 7.8-.2.7-.5 1.5-1.5 1.1-.8-.3-.8-.9-.7-1.7.5-2.5 1.3-4.8 2-7.2.2-.6.3-1.4 1.4-1.5z"/><path d="m200.3 119.4c-.4 2.7-.7 5.6-1.4 8.4-.2.7-.7.8-1.3.7-.8-.1-.9-.7-.8-1.4.3-1.7.5-3.5.9-5.2.2-1 .1-2.1.4-3.1.2-.7.6-1 1.3-.9.7.2 1 .7.9 1.5z"/><path d="m191 67.5c.5 0 .7.3.9.7 1.3 2.6 2.3 5.3 3.3 8 .2.6-.1 1.1-.7 1.3s-1.1 0-1.4-.6c-1-2.7-2.1-5.4-3.3-8-.2-.7.4-1.4 1.2-1.4z"/><path d="m196.9 83.7c.6-.1.9.5 1 1 .6 2.7 1.2 5.4 1.7 8.2.1.7-.2 1.2-.9 1.3s-1.1-.1-1.3-.9c-.4-2.2-.9-4.4-1.4-6.5-.1-.6-.3-1.2-.4-1.9 0-.6.3-1.2 1.3-1.2z"/><path d="m11.4 121c0 .2 0 .4.1.6.1.7-.3 1.2-.9 1.3-.7.1-1.1-.4-1.2-1-.2-.7-.3-1.5-.3-2.3-.2-2-.3-4-.4-6 0-.7.1-1.4 1-1.5s1.1.5 1.2 1.3c.1 2.6.1 5.1.5 7.6z"/><path d="m57.5 26.7c0 .4-.2.7-.5.9-2.4 1.5-4.9 3.1-7.2 4.7-.6.4-1.1.1-1.4-.4-.4-.6-.2-1.1.3-1.5 1.3-1 2.7-1.9 4.1-2.8 1-.7 2.1-1.3 3.1-1.9.7-.4 1.6.2 1.6 1z"/><path d="m115 204.4c-.8.1-1.4-.1-1.5-1-.1-.8.5-1.1 1.3-1.2 2.7-.3 5.3-.7 8-1.2.5-.1 1.1 0 1.3.7.2.9-.2 1.4-1 1.5-1.5.3-3 .5-4.6.8-1.2.1-2.3.2-3.5.4z"/><path d="m17.4 145.5c.5 0 .8.3 1.1.8 1.1 2.5 2.3 5 3.6 7.4.3.6.2 1.2-.4 1.5-.6.4-1.2.1-1.5-.5-1.4-2.6-2.7-5.1-3.8-7.8-.4-.7.2-1.4 1-1.4z"/><path d="m185.2 160.4c-1-.1-1.3-.9-.9-1.8.9-1.6 1.8-3.2 2.8-4.8.4-.7.7-1.5 1.1-2.2.3-.6.8-1.2 1.6-.8s.8 1.1.4 1.8c-1.2 2.4-2.5 4.7-4 7-.1.4-.5.8-1 .8z"/><path d="m140.7 197.1c0 .6-.2.9-.7 1.1-2.6 1.1-5.3 1.9-7.9 2.8-.6.2-1.2.1-1.4-.6-.2-.6-.2-1.2.7-1.5 2.6-.9 5.3-1.7 7.8-2.7.8-.4 1.4.1 1.5.9z"/><path d="m173.7 172.9c-.1-.4.2-.7.5-1 1.6-1.9 3.3-3.7 4.8-5.7.3-.4.6-1 1.3-1 .8 0 1.4 1 .9 1.6-1.8 2.5-3.7 4.9-5.9 6.9-.3.3-.7.3-1.1.1-.4-.1-.5-.4-.5-.9z"/><path d="m147.5 194.7c-.5 0-1-.1-1.1-.7-.2-.6.1-1.1.6-1.4 1.8-1 3.6-2 5.4-3 .6-.3 1.1-.6 1.6-1 .7-.5 1.3-.5 1.8.3s-.1 1.2-.7 1.6c-1.9 1.2-3.9 2.4-6 3.4-.4.3-.9.8-1.6.8z"/><path d="m43.5 36.7c0 .4-.2.7-.5 1-1.9 1.8-3.9 3.6-5.8 5.5-.6.5-1.1 1-1.8.2-.6-.6-.3-1.3.2-1.8 2-1.9 3.9-3.9 6-5.7.3-.3.7-.5 1.2-.2s.7.6.7 1z"/><path d="m11 130.4c0-.6.2-1.1.8-1.2.7-.2 1.2.3 1.3.9.6 2.7 1.4 5.4 2.2 8 .2.6.1 1.2-.6 1.5-.6.2-1.2 0-1.4-.6-.9-2.8-1.8-5.5-2.3-8.4 0-.1 0-.2 0-.2z"/><path d="m88.2 13.9c.7 0 1.3.1 1.3 1 0 .8-.4 1.1-1.1 1.2-2.6.4-5.1 1-7.7 1.7-.8.2-1.4.1-1.6-.7-.2-.7.1-1.2.9-1.4 2.7-.8 5.5-1.3 8.2-1.8z"/><path d="m63.8 23.7c-.4 0-.7-.3-.8-.7-.2-.5-.1-.9.4-1.2 1.4-.8 2.8-1.4 4.3-2 1.3-.5 2.4-1.3 3.8-1.6.6-.1 1.2 0 1.4.6s.1 1.2-.5 1.4c-2.6 1.1-5.3 2.2-7.9 3.3-.2.2-.4.2-.7.2z"/><path d="m31.6 49.1c0 .4-.2.7-.4 1-1.6 2-3.2 4-4.6 6.1-.1.2-.3.4-.5.5-.4.4-.9.3-1.3 0-.5-.3-.5-.9-.3-1.3 1.6-2.5 3.3-4.9 5.2-7.1.4-.4.9-.4 1.3-.2.3.3.6.6.6 1z"/><path d="m196.9 136.3c-.6 1.8-1.2 3.8-1.9 5.7-.3.8-.5 1.6-1 2.4-.4.7-.9.7-1.4.5s-.8-.7-.6-1.4c1-2.6 2-5.3 2.9-8 .2-.6.7-.8 1.3-.7.7.2.6.7.7 1.5z"/><path d="m21.5 63.8c.1.7-.2 1.3-.5 1.8-.9 1.9-1.9 3.8-2.7 5.8-.4.8-.9 1.1-1.6.8-.8-.3-.8-1-.4-1.7 1.1-2.4 2.2-4.7 3.4-7 .3-.5.6-1 1.3-.8.7 0 .4.7.5 1.1z"/><path d="m168.5 178c.6-.1 1 .1 1.2.6.3.6-.1 1-.5 1.3-1.5 1.3-3 2.5-4.4 3.8-.7.6-1.4 1.1-2 1.6s-1.1.3-1.6-.2c-.4-.5-.2-1 .3-1.4 2.2-1.8 4.3-3.6 6.4-5.4.2-.2.5-.2.6-.3z"/><path d="m102.3 14.7c-1.3-.1-3 .2-4.6.3-.8 0-1.6 0-1.7-1-.1-1.1.7-1.2 1.5-1.3 2.7-.3 5.3-.2 8-.3.8 0 1.3.4 1.3 1.2s-.6 1-1.4 1c-.9 0-1.8.1-3.1.1z"/><path d="m111 154.3c-3.1-.2-6.3-.3-9.4-.6-1.6-.1-1.9-.4-1.9-2.1 0-.1 0-.2 0-.4-.1-1.7-.1-1.8-1.9-2-2.7-.4-2.7-.4-2.9-2.9-.1-1.5-.5-1.9-2.1-2.1-2.6-.4-2.7-.5-2.9-3.1-.1-.8-.3-1.3-1.3-1.3-.7 0-1.3-.2-2-.2-.8 0-1.2-.4-1.4-1.2-.3-1.2-.4-2.6-2.2-2.5-.8 0-1.3-.4-1.4-1.3s-.4-1.8-.4-2.7c0-.6-.4-.9-1-1-1.2-.1-2.3-.4-3.1-1.5-.4-.6-.9-.5-1.3.1-1.6 1.8-2.2 1.1-3.3-.1-1.5-1.6-2.7-3.3-3.5-5.3-.3-.8-.8-1-1.6-.7-2.1.8-4.3.7-6.5.7-5.2-.1-9.5-2.2-13.1-5.9-3.5-3.5-5.3-7.9-5.6-12.8-.2-4.6 1.1-8.8 3.8-12.5 2.3-3.1 5.2-5.3 8.8-6.7 2.7-1.1 5.6-1.5 8.5-1.3 5 .4 9.3 2.4 12.8 6 3 3.1 4.7 6.9 5.3 11.2.4 2.8 0 5.4-.7 8-.2.7 0 1.2.5 1.7 6.2 6.2 12.5 12.4 18.6 18.7 3.5 3.6 6.9 7.2 10.7 10.6.6.6.8 1.2 1.1 1.9 1 3.1 1.9 6.3 2.8 9.5.3 1.1-.2 1.7-1.3 1.7-.7.1-1.4.1-2.1.1zm-.8-6.8c.1-.1.1-.1.2-.2-.2-.8-.5-1.6-.7-2.4-.2-1-.7-1.9-1.4-2.7-2.5-2.5-5-4.9-7.5-7.4-7.3-7.5-14.7-14.8-22.2-22.2-.7-.7-.8-1.4-.5-2.1.6-1.4.8-2.8.9-4.3.5-4.7-.7-8.9-3.7-12.5-3.1-3.8-7.1-5.9-12-6.4-3.3-.3-6.4.2-9.3 1.7-5 2.6-8.2 6.7-9.3 12.4-.5 2.7-.3 5.4.4 8 .6 2.3 1.8 4.4 3.3 6.3 3 3.6 6.8 5.6 11.4 6.2 2.9.4 5.8 0 8.6-1.2.8-.4 1.3-.1 1.7.7.7 1.5 1.4 2.9 2.1 4.4.4.8 1 1.5 1.8 1.8.7.3 1.1-.7 1.5-1.1.7-.6 1.6-.8 2.1.1 1.1 1.8 2.8 2.3 4.6 2.5.4.1.8.2.8.7.2.9.4 1.7.4 2.6.1 1.2.6 1.8 1.7 1.8.9 0 1.3.4 1.5 1.3.3 1.9.4 2 2.4 2.2 2.6.3 2.7.3 2.9 2.9.1 1 .4 1.4 1.5 1.5 2.9.4 2.9.5 3.5 3.4.1.3.1.5.1.8 0 .5.2.7.7.7.4 0 .7.1 1.1.2 2.6.6 2.7.6 2.8 3.3 0 .7.3.9.9.9 2.8.4 5.6.1 8.6.7-.2-.4-.3-.6-.4-.7-4.8-4.8-9.7-9.7-14.5-14.5-8.1-8.1-16.3-16.3-24.4-24.4-.6-.6-.7-1.2-.2-1.8.6-.7 1.2-.5 1.8.1l.5.5c9.7 9.7 19.4 19.4 29 29.1 2.6 2.3 4.9 4.7 7.3 7.1z"/><path d="m87.3 201.1c.6.1 1.2.2 1.8.4.7.2 1 .6.9 1.3-.1.6-.6.9-1.2.9-.7-.1-1.4-.2-2.1-.4s-.8-.7-.7-1.3c0-1 .7-.9 1.3-.9z"/><path d="m101.6 202.6h4c.8 0 1.5.3 1.5 1.2s-.7 1-1.5 1c-2.6 0-5.2-.1-7.8-.1-.8 0-1.5-.3-1.5-1.2 0-1 .8-1 1.5-1h3.7c.1.1.1.1.1.1z"/><path d="m142.6 67.9c-2.8 0-5.7 0-8.5 0-1 0-1.2.3-1.2 1.2v16.3c0 .4 0 .9-.1 1.3-.1.6-.4 1.1-1.1 1-.7 0-1.1-.5-1.2-1.1 0-.3 0-.6 0-1 0-5.5 0-11 0-16.5 0-1-.3-1.2-1.3-1.2-5.6 0-11.2 0-16.8 0-.5 0-1 .1-1.4-.4-.3-.3-.5-.6-.3-1.1.2-.4.4-.7.9-.7 1 0 2-.1 3-.1h14.5c1.1 0 1.5-.2 1.5-1.4-.1-5.6 0-11.1 0-16.7 0-.5-.1-1 .3-1.5.7-.7 1.6-.5 1.8.4.1.5.1.9.1 1.4v16.2c0 1.1.3 1.5 1.5 1.5 5.4-.1 10.7 0 16.1 0h1.1c.7.1 1.4.3 1.3 1.2-.1.8-.7 1.1-1.5 1.1-2.8.1-5.8.1-8.7.1z"/><path d="m56.2 104.7c-3.3 0-5.8-2.5-5.8-5.8 0-3.1 2.6-5.8 5.7-5.8 3.2 0 5.8 2.7 5.8 5.8.1 3.2-3.1 6.1-5.7 5.8zm-.1-2.2c1.9 0 3.6-1.6 3.6-3.5 0-1.8-1.6-3.6-3.4-3.6-2-.1-3.6 1.6-3.7 3.6 0 1.8 1.6 3.4 3.5 3.5z"/><path d="m92.7 45.4c-.3-1.6.9-3 3.2-3.5 3.4-.6 6.8-1.7 10.2-2.6 5.6-1.6 11.1-3.5 16.4-5.9 2.6-1.2 5.1-2.4 7.5-3.9 1.2-.7 2.5-.8 3.7 0 5.3 3.2 11 5.5 16.7 7.6 4.5 1.6 9.2 2.8 13.8 4.1 1.3.4 2.7.6 4.1.9 1.7.3 2.8 1.5 2.6 3.2-.2 3.3-.7 6.6-1.3 9.9-.8 4.2-1.9 8.3-3.3 12.3-2.9 8.5-7 16.5-12 23.9-5.7 8.6-12.6 16.2-20.2 23.1-1.4 1.3-3.1 1.3-4.5 0-6-5.4-11.4-11.2-16.3-17.6-3.9-5.1-7.3-10.5-10.3-16.2-2.9-5.6-5.3-11.5-7-17.6-1.2-4-2-8.1-2.7-12.2-.3-1.7-.4-3.4-.6-5.5zm2.3.2c.4 4.6 1.1 9.1 2.2 13.5 1.3 5.5 3.1 10.8 5.5 15.9 2.8 6.1 6.1 11.9 10 17.3 5.4 7.6 11.5 14.5 18.5 20.6.6.5 1 .5 1.5 0 1-.9 2-1.8 3-2.7 8-7.8 14.9-16.3 20.6-25.9 4.2-7.1 7.4-14.6 9.6-22.5 1.5-5.2 2.3-10.7 2.9-16.1.1-.9-.3-1.3-1.1-1.5-3.3-.6-6.5-1.5-9.7-2.4-3.5-1-6.9-2.1-10.3-3.3-5.1-1.9-10-4-14.7-6.8-.8-.4-1.3-.5-2.1-.1-4.2 2.4-8.5 4.4-13.1 6.2-3.8 1.5-7.6 2.8-11.5 3.9-3.3.9-6.6 1.8-9.9 2.5-1.1.1-1.6.4-1.4 1.4z"/></g><path d="m80.1 37.8c0-1.1 0-2.2 0-3.2 0-1.2.5-1.7 1.7-1.9 4.2-.7 8.5-1.7 12.7-2.8 5-1.3 9.9-2.7 14.7-4.5 7.5-2.7 14.8-5.9 21.3-10.5.9-.6 1.7-.6 2.5 0 5.8 4.3 12.5 7.1 19.1 9.8 4.5 1.9 9.2 3.2 14 4.4 3.5.9 7.1 1.8 10.7 2.6 1.6.4 3.3.6 4.9.9 1.4.2 1.9.7 1.9 2.1 0 6-.6 12-1.7 18-.7 4.2-1.8 8.3-3 12.3-1.4 4.8-3.2 9.5-5.3 14.1-3.2 6.9-6.9 13.5-11.2 19.8-3.6 5.3-7.6 10.4-12 15.2-5 5.5-10.4 10.7-16.2 15.4-1.5 1.2-2.9 1.3-4.5.1-6.4-5-12.1-10.7-17.5-16.8-6-6.8-11.4-14.1-16-21.9-3.9-6.6-7.1-13.4-9.7-20.6-1.9-5.3-3.4-10.7-4.5-16.2-1.1-5.4-1.8-10.8-1.9-16.3zm12.6 7.6c.2 2.1.3 3.8.6 5.6.7 4.1 1.5 8.2 2.7 12.2 1.7 6.1 4.1 12 7 17.6 2.9 5.7 6.4 11.1 10.3 16.2 4.9 6.4 10.3 12.3 16.3 17.6 1.4 1.3 3.1 1.3 4.5 0 7.7-6.9 14.5-14.5 20.2-23.1 5-7.5 9.1-15.4 12-23.9 1.4-4 2.5-8.1 3.3-12.3.6-3.3 1.1-6.6 1.3-9.9.1-1.7-.9-2.9-2.6-3.2-1.4-.3-2.7-.5-4.1-.9-4.6-1.3-9.3-2.5-13.8-4.1-5.8-2.1-11.4-4.4-16.7-7.6-1.2-.7-2.5-.7-3.7 0-2.4 1.4-4.9 2.7-7.5 3.9-5.3 2.4-10.8 4.4-16.4 5.9-3.4 1-6.7 2-10.2 2.6-2.4.4-3.5 1.8-3.2 3.4z" fill="#fdfefe"/><path d="m54.7 154.3h10.7c2.5 0 4.8 1.2 6.9 2.3 7.3 3.8 14.5 7.5 21.8 11.3 2.8 1.4 4.1 4.4 3.6 7.2-.8 3.8-4 5.8-6.5 6-2.2.1-4-.9-5.9-1.7-7.1-3.4-14.3-6.7-21.5-9.8-.7-.3-1.4-.7-1.9.2-.5 1 .4 1.3 1.1 1.7 3.1 1.8 6.5 2.9 9.7 4.5 3.3 1.7 6.7 3.1 10 4.7 1.7.8 3.3 1.7 5 2.2 5.2 1.7 10.6-1.2 11.9-6.4.2-1 .5-2 .3-3-.1-.8.2-1.1.9-1.4 3.8-1.8 7.5-3.6 11.3-5.3l14.7-6.9c2.7-1.2 5.2-2.7 8-3.6 3.1-1 7.2 1.2 8.2 4.3.9 3-.4 6.6-3 8.4-4.8 3.4-10.1 6.1-15.2 9.2s-10.3 6-15.4 9.1c-2.3 1.4-5 1.8-7.5 2.6-3.4 1-6.8 1.9-10.3 2.7-4.9 1.2-9.7 3-14.8 3.5-3.5.4-6.9-.3-10.2-1.4-6.1-1.9-12-4.3-18.1-5.8-2-.5-3.8-1.3-5.7-2.1-2.5-1-5.1-1.7-7.7-2.5-2.4-.7-4.1-2.5-4.4-4.7-.7-4.9-1-9.9.5-14.7 1.6-5.2 5.3-8.4 10.5-9.9 1.5-.4 3-.4 4.5-.4 2.8-.4 5.6-.4 8.5-.3 0-.1 0 0 0 0z" fill="#fdfefe"/></svg>