<svg enable-background="new 0 0 210.2 214.1" viewBox="0 0 210.2 214.1" xmlns="http://www.w3.org/2000/svg"><g fill="#1c9fc3"><path d="m101.3 42.9h15.3 15 1.1c.6 0 1.1-.3 1.1-1s-.4-1.1-1.1-1.2c-.3-.1-.6 0-1 0-9.6 0-19.2 0-28.8 0-.7 0-1.4 0-2.2 0-1 .1-1.6.8-1.2 1.7.4.6 1.2.5 1.8.5z"/><path d="m132.7 49.1c-.4 0-.7 0-1.1 0-5 0-10 0-15 0-4 0-8 0-12 0-1.4 0-2.8 0-4.2.1-.4 0-.9.1-.9.7 0 .5 0 1 .6 1.3.4.2.8.2 1.2.2h30.7c.3 0 .6.1.8 0 .6-.2 1-.5 1-1.2 0-.8-.5-1.1-1.1-1.1z"/><path d="m100.8 34.5h1.9 29c.4 0 .8 0 1.2-.1.6-.1.9-.4.9-1.1 0-.6-.4-.9-.9-1-.3 0-.6 0-1 0-5 0-10.1 0-15.1 0-3.6 0-7.3 0-10.9 0-1.7 0-3.4 0-5 0-.6 0-1.3.1-1.3 1-.1 1 .5 1.2 1.2 1.2z"/><path d="m121.8 57.4c-3.4 0-6.7 0-10.1 0-.7 0-1.6.1-1.5 1.1 0 .9.7 1.1 1.5 1.1h4.9 5.2c.8 0 1.5-.2 1.5-1.1 0-1-.8-1.1-1.5-1.1z"/><path d="m104 57.4c-.6 0-1.1 0-1.7 0-.6 0-1.1 0-1.7 0-.7.1-1.1.3-1.1 1.1s.5.9 1.1 1c1.1.1 2.2 0 3.4 0 .7 0 1-.4 1-1.1 0-.6-.4-1-1-1z"/><path d="m132.8 57.4c-.5 0-1 0-1.5 0-.6 0-1.2-.1-1.8 0-.5.1-1 .4-1 1s.5 1.1 1.1 1.1c1.1.1 2.2 0 3.3 0 .6 0 .9-.4.9-1 0-.7-.4-1-1-1.1z"/><path d="m83 135.4h8.3c1.3 0 1.6-.4 1.3-1.7-.5-2.4-1.2-4.7-1.7-7-.4-2-1.5-3.6-3.7-4.1-2-.4-3.9-.9-5.9-1.4-1.2-.3-1.8-1.3-1.3-2.4.6-1.3 1.4-2.6 2.1-3.9.9-1.6 1.3-3.5.8-5.4-.1-.5-.3-1-.3-1.5 0-2-.5-3.8-1.7-5.4-1.6-2.3-5.5-3.7-7.8-2.9-3.7 1.3-6 4.2-5.9 8.4 0 .5 0 .9-.2 1.4-1.1 1.8 0 3.6.6 5.1.4 1.1 1.2 2.2 1.9 3.3.8 1.2.2 2.7-1 3-1.6.4-3.3.7-4.9 1.1-2.1.5-4 1.2-4.6 3.6-.7 2.8-1.4 5.5-2.1 8.3-.2 1 .2 1.4 1.3 1.4 8.3-.3 16.5.1 24.8.1zm-23.5-3.5c.5-1.7.8-3.5 1.3-5.3.3-1.2 1-2 2.3-2.3 2-.4 3.9-.9 5.9-1.4 1.9-.5 2.8-1.6 2.8-3.6 0-1.2.1-2.4-.9-3.4-.8-.8-.9-2.1-1.5-3.1-.5-.7-.6-1.5-.1-2.4.4-.8.1-1.9.1-2.8.1-3 2.5-6 5.9-5.8 2.2.2 4.5 2.2 4.9 4.3.2 1.2.6 2.4 0 3.6-.1.2 0 .4.1.6.8 1.5.7 2.1-.4 3.4-.7.8-.5 1.9-1.2 2.7-1.1 1.3-1.1 2.9-.8 4.5.2 1.1 1 1.7 2 2.1 2.1.7 4.3 1.1 6.4 1.6 1.3.3 2 1.1 2.3 2.3.5 1.8.8 3.6 1.3 5.4.3 1 0 1.1-.9 1.1-1.2 0-2.5 0-3.7 0s-2.5 0-3.7 0c-7.1 0-14.1-.4-21.2-.2-.8 0-1.2-.2-.9-1.3z"/><path d="m91.2 149.4c-10.7 0-21.4 0-32.1 0-1.3 0-1.9.6-1.9 1.9v8.9c0 1.5.2 1.7 1.8 1.7h16.2 16.2c1.7 0 1.8-.2 1.8-1.9 0-2.9 0-5.8 0-8.6-.1-1.5-.6-2-2-2zm-.3 9.3c0 .8-.2 1.1-1.1 1.1-9.8 0-19.7 0-29.5 0-.8 0-1.1-.2-1-1 0-2 .1-4 0-6 0-.9.3-1.1 1.2-1.1h14.7 14.4c1 0 1.3.3 1.3 1.3z"/><path d="m78.2 179.6c-1.8-.1-3.7-.1-5.5 0-.6 0-1.2.5-1.1 1.2 0 .8.6.9 1.3.9h2.5 2.8c.7 0 1.1-.3 1.1-.9-.1-.6-.4-1.2-1.1-1.2z"/><path d="m146.9 101.6 10.5 10.5c.8.8 1.4.8 2.2 0 2.5-2.5 5-5 7.6-7.5 2.7-2.6 5.3-5.3 7.9-7.9.5-.6.9-1.2.2-1.9-.6-.6-1.2-.3-1.7.3-1.1 1.1-2.3 2.2-3.4 3.3-3.7 3.7-7.3 7.4-11 11.1-.4.4-.8.6-1.3 0-1.3-1.4-2.6-2.6-3.9-4-1.9-1.9-3.7-3.7-5.5-5.6-.5-.5-1-.5-1.6-.4-.5.1-.3.6-.3.6-.3.9-.1 1.2.3 1.5z"/><path d="m67.8 62.3h24.2c1.4 0 1.8-.4 1.8-1.8 0-9.6 0-19.1 0-28.7 0-1.4-.4-1.8-1.8-1.8-8.1 0-16.2 0-24.2 0-1.4 0-1.6.2-1.6 1.6v14.5 14.5c0 1.5.2 1.7 1.6 1.7zm.5-16.1c0-4.2 0-8.5 0-12.7 0-1 .3-1.3 1.3-1.3h20.6c1 0 1.3.2 1.3 1.3v25.4c0 1-.3 1.2-1.2 1.2-6.9 0-13.8 0-20.7 0-1 0-1.3-.3-1.3-1.3.1-4.2 0-8.4 0-12.6z"/><path d="m36.8 44.4c1.1 0 1.9-.7 1.9-1.8 0-1-.8-2-1.8-2-.9 0-1.9 1.1-2 1.9 0 1 .9 1.9 1.9 1.9z"/><path d="m180.6 50.3c1.1 0 1.8-.6 1.8-1.7 0-1.2-.6-1.9-1.8-1.9-1.1 0-1.9.7-1.9 1.8.1 1.1.8 1.8 1.9 1.8z"/><path d="m191.4 67.9c1 .2 1.9-.8 1.9-1.7 0-1.1-.7-1.9-1.7-1.9-1.2 0-2 .7-2 1.8 0 1 .7 1.8 1.8 1.8z"/><path d="m12.2 103.3c1.1 0 1.8-.7 1.8-1.9s-.7-1.9-1.8-1.9-1.9.8-1.9 1.9c0 1.2.8 1.9 1.9 1.9z"/><path d="m22.1 65.8c1.1 0 1.9-.7 2-1.7 0-1.1-.8-1.8-1.9-1.9-1-.1-1.8.8-1.9 1.8s.7 1.8 1.8 1.8z"/><path d="m166.1 35.5c1.1 0 1.8-.7 1.9-1.8.1-1.2-.8-2-1.8-2-1.1 0-1.8.7-1.9 1.8.1 1.2.8 2 1.8 2z"/><path d="m173.8 42.6c.9 0 1.9-1 1.9-1.9 0-1-.8-1.8-1.9-1.9-1.1 0-1.8.7-1.9 1.8.1 1.1.9 2 1.9 2z"/><path d="m111.4 198.6c-1.1 0-1.8.7-1.8 1.8 0 1.2.7 1.9 1.8 1.9 1.2 0 1.9-.7 1.9-1.8 0-1.2-.7-2-1.9-1.9z"/><path d="m161.5 181c-1.1 0-2.1.7-2.1 1.8-.1 1 .8 1.9 1.8 1.9 1.3.2 1.9-.8 2-1.8 0-1-.8-1.9-1.7-1.9z"/><path d="m28.7 54.6c1.2 0 1.9-.6 1.9-1.8 0-1.1-.8-1.9-1.8-1.9-1.1 0-1.9.8-1.8 1.9-.1 1.1.6 1.7 1.7 1.8z"/><path d="m195.5 77.6c1.1 0 1.8-.8 1.8-1.9 0-1-1-2-1.9-1.9-1 .1-1.8 1-1.8 2 0 1.2.7 1.8 1.9 1.8z"/><path d="m196.4 85.7c0 1.1.8 1.9 1.8 1.9 1.1 0 1.9-.8 1.9-1.9s-.8-2-1.8-2-1.9.9-1.9 2z"/><path d="m13.8 90.4c1 0 1.9-.9 1.8-1.9 0-1-.9-1.9-1.9-1.9s-2 1.1-1.9 2c0 .9 1.1 1.9 2 1.8z"/><path d="m14.2 114.6c0-1.1-.7-2-1.7-2s-2 1-2 1.9.9 1.9 1.9 1.9 1.8-.7 1.8-1.8z"/><path d="m46.4 35.5c1 0 1.8-.8 1.8-1.9s-.8-1.8-1.9-1.8-1.8.7-1.8 1.8.8 2 1.9 1.9z"/><path d="m137.6 193.2c-.9 0-2 1.2-2 2 .1.9 1.1 1.8 2 1.8 1.1 0 1.9-.8 1.8-1.9.1-1-.9-1.9-1.8-1.9z"/><path d="m17.1 77.9c.9 0 1.9-1.1 1.9-2.1s-.9-1.8-2-1.8-1.8.8-1.8 1.9c0 1 1 2.1 1.9 2z"/><path d="m84.9 196.1c-.9 0-1.8.9-1.8 1.9 0 1.2.7 1.9 1.8 1.9 1 0 1.9-.8 1.9-1.8-.1-1-1-2-1.9-2z"/><path d="m150 188c-1-.1-2 .9-2 1.9 0 .9 1 1.9 1.9 1.9 1 0 1.8-.8 1.9-1.8 0-1.2-.7-2-1.8-2z"/><path d="m14.4 129.2c1.1 0 1.9-.7 1.9-1.8 0-1-.8-1.9-1.8-1.9-1.1 0-2 .9-2 1.9s.9 1.8 1.9 1.8z"/><path d="m124.7 196.8c-.9 0-1.9 1-1.9 1.9s1 1.9 2 1.9c1.1 0 1.8-.8 1.8-1.9-.1-1.1-.9-1.9-1.9-1.9z"/><path d="m98.1 198.2c-.9 0-2.1 1.1-2 2 0 .9 1.1 1.9 2 1.9 1.1 0 1.9-.8 1.9-1.9-.1-1.1-1-2-1.9-2z"/><path d="m200.6 104.4c-1.1-.1-1.9.7-1.9 1.8s.7 2 1.7 2 1.9-.9 2-1.8-.9-1.9-1.8-2z"/><path d="m198.1 96c0 1 .8 1.8 1.8 1.8.9 0 1.9-.9 1.9-1.7 0-1-1-2.1-1.9-2.1-1 .1-1.9 1.1-1.8 2z"/><path d="m111.5 100.3c-2.2-.1-4 1-5.8 2-.3.2-.6.6-.9.4-.4-.2-.2-.6-.2-1 0-4.5 0-9 0-13.4 0-2.4-1.4-3.9-3.9-3.9-17.2 0-34.5 0-51.7 0-2.5 0-3.8 1.4-3.9 3.8v16c0 .4.1.8-.1 1.1-.7 0-1-.6-1.5-.8-2.8-1.4-5.5-1.1-8 .6-1.6 1.4-2.5 3.3-3.1 5.3-.5 1.8-1.1 3.6-1.7 5.4-.8 2.6-1.7 5.2-2.5 7.9s-1.7 5.3-2.5 8c-.8 2.6-1.7 5.2-2.5 7.7-.7 2-1.3 4-2 6.1-.6 1.9-1.2 3.8-1.6 5.7-.6 3.1-1 6.3-1.6 9.5-.7 3.6-.8 7.2.1 10.8.2.8.2 1.5-.5 2.2s-1.3 1.5-2 2.3c-1.6 2-3.3 3.9-4.9 5.9-.5.6-.5 1.1.1 1.6.5.5 1.1.3 1.6-.2.2-.2.3-.4.5-.5 2.1-2.5 4.2-5 6.4-7.5.7 1 1.1 2 1.8 2.9.5.6 1 1.2 1.8.7.7-.5.2-1.2 0-1.7-1-2-2.1-3.9-2.5-6.2-.4-2.5-.7-4.9-.4-7.4.4-2.7.8-5.4 1.3-8.1.6-2.7.9-5.5 1.9-8.2.9-2.5 1.6-5 2.4-7.6.6-1.9 1.2-3.8 1.8-5.7.8-2.5 1.6-5.1 2.5-7.6.9-2.8 1.8-5.5 2.7-8.3.8-2.5 1.7-4.9 2.3-7.4.8-3.1 2.5-4.5 5.7-4.6 2.9-.1 5.4 3.3 4.8 6.1-.5 2.4-.7 4.8-1 7.2-.3 2.5-.7 5-.9 7.6-.4 4.2-1.1 8.3-1.5 12.4-.2 1.4-.6 2.8-.5 4.3s1.3 3.1 2.8 2.9c1.4-.2 1.2.6 1.2 1.4v34.3c0 2.4 1.3 3.7 3.7 3.7h27.8 1.4c-.3.3-.4.5-.5.5-4 2.5-8.1 4.9-12.6 6.7-3.7 1.5-7.4 2.7-11.4 2.8-.6 0-1 .1-1.1.8-.1.8.4 1.2 1 1.4.4.1.7.1 1.3.1-1.6 1.9-3.1 3.7-4.6 5.4-.6.7-1 1.4-.2 2.1.9.8 1.4-.2 1.8-.6 2-2.3 3.9-4.6 5.8-6.9.3-.4.7-.7 1.2-.8 1.9-.2 3.8-.9 5.6-1.6 5.4-2.1 10.5-4.8 15.2-8.2 1.7-1.2 3.4-1.9 5.5-1.8 5.2.2 10.5.1 15.7.1 2.1 0 3.5-1.4 3.5-3.5 0-1.9 0-3.8 0-5.6 0-1.7 0-3.4-.1-5 0-.7.1-1 1-1.1 2.4-.3 4.8-.9 6.4-3.1 2.3-3.1 1.4-6.2-.5-9.6-1-1.7-2.8-2.4-4.8-2.9 1-.4 1.9-.6 2.7-.9 2.2-1 3.7-2.5 4.1-5 .5-2.9-.9-5.3-2-7.8-.6-1.3-1.8-2-3.1-2.7.6-.3 1.1-.6 1.5-.8 2.5-1.3 4-4.3 3.4-7-.3-1.3-.9-2.5-1.3-3.8-.5-1.6-1.4-2.8-2.8-3.7-1.2-.8-2.6-.9-4.1-1.2 3.2-1.9 6.3-3.7 9.4-5.4 2.1-1.2 3.9-2.7 4.9-5.1 1.9-4.9-1.7-11.3-7.8-11.5zm-67.1 44c-.6 0-1-.2-1-.9.1-1.2.2-2.3.5-3.5.2-1.5.4-3 .5-4.5s.7-2.9.6-4.5c.4 3.6.2 7.3.3 10.9v1.5c.1.8-.3 1-.9 1zm6.2-57.6h49.4c2 0 2.3.3 2.3 2.4 0 2.8.2 2.3-2.3 2.3-8.4 0-16.8 0-25.2 0-8.7 0-17.4 0-26.1 0-1.1 0-1.4-.3-1.4-1.4.1-3.3.1-3.3 3.3-3.3zm50.8 36.7c-4.7 1.6-6.3 6-4.7 10.5.8 2.4 2.3 4.1 4.6 5 .1.1.2.2.4.4-2.1.7-3.7 1.9-4.6 3.8-1 2.1-.9 4.2-.3 6.2.8 2.6 2.3 4.7 5 5.7.6.2.6 1 0 1.4-1.4.9-2.5 2-3.2 3.5-1.3 3-.6 6.6 1.9 8.8.3.2.5.6.8.6 1.6.1 1.3 1.2 1.3 2.2v2.3c0 1.7 0 1.7-1.6 1.7-.8 0-1.7 0-2.5 0-16.5 0-32.9 0-49.4 0-1.7 0-1.7 0-1.7-1.6 0-6.1.1-12.2.1-18.2-.2-20.1 0-40.3-.1-60.4 0-1.8 0-1.8 1.8-1.8h51.5c1.7 0 1.7 0 1.7 1.6v26.9c-.1.6 0 1.1-1 1.4zm1.2 55.8c-.1 1 0 2 0 3 0 1.2-.5 1.6-1.7 1.6-17.3 0-34.6 0-51.8 0-1.2 0-1.6-.5-1.7-1.7 0-1.1 0-2.2 0-3.2-.1-1 .4-1.3 1.3-1.3h17 9.4 26c1.2 0 1.7.4 1.5 1.6zm8.5-15.5c-.1 2.8-2.3 4.6-5.7 4.7-2.3.1-5.2-2.1-5.1-5.4.1-3.7 3.1-5.3 5.8-5.5 2.4-.2 5 3.1 5 6.2zm-1.4-20.4c.6 1.6 1.4 3.1 1.4 4.9 0 1.9-1.2 3.4-3 3.9-.8.2-1.5.5-2.2.8-3.2 1.3-6.1-1.4-6.9-4-.8-2.5-.6-4.8 1.5-6.5 1.5-1.2 3.4-1.8 5.1-1.9 2.1.1 3.4 1 4.1 2.8zm0-15.7c.2.9.6 1.8 1 2.6 1.3 2.8-.8 5.5-3 6-.9.2-1.7.7-2.6.8-3.5.5-5.3-1.2-6.1-3.5-.3-.9-.7-1.8-.7-2.8 0-2.1 1.6-4.5 3.7-5.1 1-.3 1.9-.7 2.9-.9 2.2-.4 4.3 1 4.8 2.9zm4.9-13.8c-3 1.8-6.2 3.5-9.2 5.3-1 .6-.9.1-.9-.5 0-2 0-4 0-6 0-1.9 0-3.8 0-5.6 0-.8.2-1.4.8-1.7 1.7-1 3.2-2.3 5.3-2.6 2.7-.4 5.4 1.1 6.6 4.4.9 2.1-.4 5.5-2.6 6.7z"/><path d="m194.1 119.5c-3.6.1-7.2 0-10.8 0-.3 0-.7.2-.9-.2s.2-.6.4-.9c.4-.6.8-1.2 1.1-1.8 2.7-4.7 3.4-9.9 3.5-15.3.1-2.9-.9-5.7-2-8.4-2-4.7-5.1-8.5-9.3-11.5-1.6-1.1-3.4-1.8-4.9-2.8-2.1-.5-4.1-1.2-6.2-1.5-5.8-.8-11.2.1-16.3 2.9-7.9 4.3-12.4 11-13.7 19.8-.9 6.6.6 12.8 4.4 18.4.2.3.6.5.4.8-.2.4-.6.2-1 .2-3.7 0-7.4 0-11 0-3 0-4.9 1.9-4.9 4.9-.1 9.4.1 18.7-.1 28.1-.2 5.4 0 10.9 0 16.3 0 2.4.9 4.2 3.1 5.3.6 0 1.1.1 1.7.1 22.3 0 44.7 0 67 .1 3.1 0 4.9-2.1 4.9-4.9 0-2.9 0-5.8 0-8.8 0-11.9.1-23.7.1-35.6-.1-3.2-1.9-5.3-5.5-5.2zm-55-6.5c-1.4-3-2.3-7-2.1-9.8.4-8.6 3.9-15.4 11.3-20.2 3.8-2.5 7.9-3.8 12.3-3.8 8-.1 14.7 3 19.7 9.4 2.6 3.4 4.4 7.1 4.8 11.4.3 3.2 0 6.4-.7 9.6-1.2 5.2-3.9 9.4-8.1 12.8-2.5 2-5.2 3.4-8.3 4.4-4.7 1.5-9.3 1.2-13.9-.3-7-2.4-11.9-6.9-15-13.5zm-11.2 8.5h13.3c.6 0 1.1.2 1.5.6 3.3 3.3 7.2 5.5 11.7 6.7 3.7 1 7.6 1.5 11.3.7 5.2-1.1 9.9-3.4 13.7-7.2.4-.4.7-.8 1.3-.8h14.8c-1.1 1.6-2.4 2.5-3.5 3.6-7.3 7.1-14.7 14.2-22.1 21.4-.9.9-1.9 1.3-3.2 1.3-3.6 0-7.2 0-10.8 0-1.3 0-2.3-.4-3.3-1.3-8.3-8-16.7-16-25.1-24-.2-.2-.6-.4-.6-.8.4-.4.7-.2 1-.2zm-2.6 48.6c-.3-.1-.2-.6-.2-.9 0-14.9 0-29.8 0-44.7 0-.3 0-.6.3-1.1 2.2 2.1 4.4 4.1 6.5 6.1 6.1 5.9 12.2 11.8 18.4 17.6 1.6 1.5 1.6 1.5-.1 2.9-6 4.9-12 9.9-18 14.8-2 1.6-4 3.2-5.9 4.8-.4.3-.7.6-1 .5zm1.8 1.8c1.3-1.5 2.8-2.4 4.1-3.5 4.3-3.5 8.6-7 13-10.5 3.1-2.5 6.1-5 9.2-7.5.4-.3.7-.4 1.2-.4h13.7c1 0 1.4.7 2 1.1 5.6 4.6 11.1 9.2 16.7 13.9 2.4 2 4.9 4 7.4 6 .3.2.5.5.9 1-22.8-.1-45.4-.1-68.2-.1zm69.9-1.8c-.4.1-.6-.3-1-.6-4.1-3.4-8.2-6.8-12.3-10.2s-8.2-6.8-12.3-10.1c-.6-.5-.3-.7 0-1.1 5-4.8 10-9.6 15-14.5 3.2-3.1 6.4-6.2 9.6-9.2.3-.3.6-.6 1-.9.4.5.3.9.3 1.3v44.2c-.1.4.2 1-.3 1.1z"/><path d="m57.8 72.8c0 1.6.3 1.9 1.9 1.8h9.6 66.7 5.9c.8 0 1.3-.3 1.3-1.1.1-1.8.3-3.5.3-5.3 0-1 .4-1.4 1.3-1.3 1.6.1 3.2.1 4.8.1 2.1 0 2.5 0 2.5-2.3 0-4 0-8 0-12 0-.5 0-1 0-1.4 0-13.1 0-26.2 0-39.3 0-1.9-.5-2.4-2.4-2.4-25.2 0-50.4 0-75.6 0-2.1 0-4.2 0-6.2 0-1.1 0-1.6.4-1.6 1.5.1 1.6 0 3.2 0 4.8 0 1.5 0 1.5-1.6 1.5-1.8 0-3.7 0-5.5 0-1.1 0-1.5.5-1.5 1.5v2.3 33.7c.1 6 .1 12 .1 17.9zm10.8-56.7c.1-1.1.1-2.2 0-3.4 0-.8.2-.9 1-.9h7.3 71.4c1.7 0 1.7 0 1.7 1.6v49.9c0 1.2-.3 1.5-1.5 1.4-1.3-.1-2.6-.1-3.8 0-.9 0-1.1-.3-1.1-1.2 0-7.5 0-15 0-22.6 0-7.2 0-14.5 0-21.7 0-1.9 0-1.9-1.9-1.9-11.9 0-23.8 0-35.8 0s-23.9 0-35.9 0c-1.1.2-1.5-.1-1.4-1.2zm-7.2 3.5h78.7c1.1 0 1.3.3 1.3 1.3v48.4c0 1 .2 2.2-.3 2.9s-1.8.2-2.7.2c-12.5 0-25 0-37.6 0-12.8 0-25.5 0-38.3 0-2.4 0-2.4 0-2.4-2.4 0-16.4 0-32.7 0-49.1-.1-.9.2-1.3 1.3-1.3z"/><path d="m186.5 58.8c1.1 0 1.9-.8 1.9-1.9 0-.9-1-2-1.8-2s-2 1.2-2 2c0 1 .9 1.9 1.9 1.9z"/></g><path d="m45.3 141.8c-.1-3.6.2-7.3-.3-10.9.2 1.5-.5 3-.6 4.5s-.3 3-.5 4.5c-.3 1.1-.4 2.3-.5 3.5-.1.7.4.9 1 .9s1-.2.9-.9c0-.5 0-1 0-1.6z" fill="#98fafb"/><path d="m125.8 174c-.2.2-.4.4-.7.5-3.3.6-6.5 1.4-9.8 1.8-3.6.4-7.1.6-10.7.6 0-1.7 0-3.4-.1-5 0-.7.1-1 1-1.1 2.4-.3 4.8-.9 6.4-3.1 2.3-3.1 1.4-6.2-.5-9.6-1-1.7-2.8-2.4-4.8-2.9 1-.4 1.9-.6 2.7-.9 2.2-1 3.7-2.5 4.1-5 .5-2.9-.9-5.3-2-7.8-.6-1.3-1.8-2-3.1-2.7.6-.3 1.1-.6 1.5-.8 2.5-1.3 4-4.3 3.4-7-.3-1.3-.9-2.5-1.3-3.8-.5-1.6-1.4-2.8-2.8-3.7-1.2-.8-2.6-.9-4.1-1.2 3.2-1.9 6.3-3.7 9.4-5.4 2.1-1.2 3.9-2.7 4.9-5.1 1.9-4.6-1.6-11.1-7.7-11.2-2.2-.1-4 1-5.8 2-.3.2-.6.6-.9.4-.4-.2-.2-.6-.2-1 0-4.5 0-9 0-13.4 0-2.4-1.4-3.9-3.9-3.9-17.2 0-34.5 0-51.7 0-2.5 0-3.8 1.4-3.9 3.8v16c0 .4.1.8-.1 1.1-.7 0-1-.6-1.5-.8-2.8-1.4-5.5-1.1-8 .6.5-2.3.4-4.6.6-6.9.2-2.8.8-5.5 1.4-8.2 1-4.6 2.5-9 4.5-13.3 3-6.4 6.8-12.3 11.6-17.6 1.4-1.5 2.8-2.9 4.2-4.4v17.9c0 1.6.3 1.9 1.9 1.8h9.6 66.7 5.9c.8 0 1.3-.3 1.3-1.1.1-1.8.3-3.5.3-5.3 0-1 .4-1.4 1.3-1.3 1.6.1 3.2.1 4.8.1 2.1 0 2.5 0 2.5-2.3 0-4 0-8 0-12 4.4 3.5 8 7.7 11.3 12.2 2.9 3.9 5.2 8.2 7.3 12.6.2.4.2.8.3 1.1-2.1-.5-4.1-1.2-6.2-1.5-5.8-.8-11.2.1-16.3 2.9-7.9 4.3-12.4 11-13.7 19.8-.9 6.6.6 12.8 4.4 18.4.2.3.6.5.4.8-.2.4-.6.2-1 .2-3.7 0-7.4 0-11 0-3 0-4.9 1.9-4.9 4.9-.1 9.4.1 18.7-.1 28.1-.2 5.4 0 10.9 0 16.3 0 2.4.9 4.3 3.1 5.4z" fill="#98fafb"/></svg>