<svg enable-background="new 0 0 233.8 238.8" viewBox="0 0 233.8 238.8" xmlns="http://www.w3.org/2000/svg"><path d="m168.5 184c0-1.3 0-2.6 0-4 0-26.6 0-53.2 0-79.8 0-1.6.1-1.6 1.6-1.9 3.9-.6 7.6-1.7 11.3-3.3 3.5-1.5 6.8-3.3 9.8-5.6.9.2 1.5.6 1.9 1.6 1.3 2.8 2.1 5.8 3 8.8 1.3 4.5 2 9 2.5 13.6.3 3.3.6 6.6.2 9.9v.8c0 4.1-.7 8.1-1.4 12.1-.7 3.9-1.7 7.7-3.1 11.4-2.4 6.7-5.7 13.1-9.8 19-4 5.8-8.7 10.8-14 15.5-.6.8-1.3 1.3-2 1.9z" fill="#d994ea"/><path d="m67.8 57.5c.5.3.3.8.3 1.2v40.3c0 .8-.2 1.2-1.1 1.2-9 0-18 0-27 0 1.5-6.3 4-12.2 7.1-17.9 4.6-8.6 10.7-16 18-22.5 1-.8 2-1.4 2.7-2.3z" fill="#d994ea"/><path d="m130.4 41.1c-1.7 1.6-3.7 2.8-5.2 4.5-.2.3-.5.2-.8.2-12 0-24 0-36 0 1.7-1.1 3.6-1.5 5.5-2.1 2.5-.8 5.1-1.5 7.7-2 2.4-.5 4.9-.7 7.4-1.1 4-.6 8.1-.4 12.2-.5 2.9 0 5.8.7 8.7.8.2-.1.4.1.5.2z" fill="#d994ea"/><path d="m51.3 166.2c5.3 0 10.7 0 16-.1.7 0 .9.3.9.9v17c-1.9-.9-3.2-2.5-4.8-3.8-3.3-3-6.3-6.3-9.1-9.9-1.1-1.3-2-2.7-3-4.1z" fill="#d994ea"/><g fill="#b150c9"><path d="m160.2 76.8h21.9c.7 0 1.3 0 1.6.8s0 1.4-.9 1.7c-.2.1-.5 0-.7 0-14.7 0-29.5 0-44.2 0-.5 0-1.1 0-1.3-.5s-.2-1 .1-1.5c.3-.6.9-.4 1.4-.4 7.3-.1 14.7-.1 22.1-.1z"/><path d="m31.7 133.4c0-7.8 0-15.5 0-23.3 0-1.6.3-1.9 1.9-1.9h39.1c1.6 0 1.8.3 1.8 1.8v46.8c0 1.5-.2 1.8-1.8 1.8-13.1 0-26.1 0-39.2 0-1.6 0-1.8-.3-1.8-1.8-.1-7.8-.1-15.6 0-23.4-.1 0-.1 0 0 0zm40.1 10.8c.3-.5.2-.8.2-1.2 0-10.3 0-20.6 0-30.8 0-1.1-.3-1.4-1.4-1.4-11.7 0-23.4 0-35 0-1.2 0-1.5.4-1.5 1.5v26.8 5c1.1-1.4 2.3-2.5 4-2.9 1.4-.3 2.8-.6 4.2-1 1.2-.3 2.3-.5 3.5-.9 1-.3 1.5-3.3.8-4.5-1.4-2.2-2.4-4.5-2.7-7-.6-3.8-.1-7.5 2.3-10.6 2.2-2.9 5.5-4.3 8.6-3.5 5.2 1.3 7.2 5.4 7.9 9.8.5 3.6-.5 7.1-2.3 10.2-.7 1.3-1 2.4-1 3.8.1 1.3.5 1.7 1.8 2 2.2.5 4.5 1.1 6.7 1.6 1.7.4 3 1.5 3.9 3.1zm-18.7 11.8h17.4c.7 0 1.1.1.9-1-.5-2.8-1.2-5.5-1.6-8.3-.3-1.6-1.1-2.6-2.7-3.1-2.5-.7-5.1-1-7.6-2-1.4-.5-2.3-1.4-2.5-2.9-.1-1-.5-.8-1.1-.5-1.8.9-3.7.9-5.5 0-.6-.3-.8-.2-1 .4-.3 1.3-1 2.4-2.3 2.9-2 .7-4.1 1.1-6.1 1.5-3 .5-4.2 1.4-4.6 3.5-.5 2.8-1.2 5.5-1.6 8.3-.2 1 .1 1.1.9 1.1 5.8.1 11.6.1 17.4.1zm-7-30.9c-.1.8.1 1.6.3 2.4.6 3 1.7 5.7 4.1 7.7 1.5 1.3 2.9 1.5 4.5.5.7-.4 1.4-1 1.9-1.7 1.6-2.2 2.6-4.5 3-7.2.3-2.8 0-5.4-1.6-7.7-2.3-3.4-6.6-4-9.5-1-1.9 2-2.5 4.4-2.7 7z"/><path d="m98.4 120c-4.6 0-9.3-.1-13.9 0-2.4.1-4.7-2.4-4.6-4.6.1-1.4-.2-2.8.4-4.2.8-2 2.3-2.9 4.3-2.9h27.6c2.5 0 4.9 2 4.5 4.7-.1 1-.1 2 0 3 .2 2-2.4 4.1-4.1 4.1-4.8-.1-9.5-.1-14.2-.1zm0-9.2c-4.5 0-9 0-13.5 0-1.5 0-2.3.7-2.3 2.2v2.2c.1 1.5.9 2.3 2.3 2.3h26.8c1.7 0 2.5-.9 2.5-2.6 0-.5 0-1 0-1.6 0-1.8-.7-2.5-2.5-2.5-4.4 0-8.9 0-13.3 0z"/><path d="m160.1 66h21.8c.5 0 1 0 1.5.4.4.4.6.9.4 1.4-.3.7-.9 1-1.6 1-2 0-4 0-6 0-12.5 0-25.1 0-37.6 0-.5 0-1 .1-1.4-.2-.5-.3-.8-.7-.7-1.4s.5-1.1 1.2-1.2c.3-.1.6 0 1 0z"/><path d="m160.1 58.8c-7.3 0-14.6 0-21.8 0-.7 0-1.4 0-1.7-.7-.4-.9 0-1.7.9-1.9h1 43.3 1c.7.1 1.1.5 1.1 1.2s-.3 1.2-1.1 1.4c-.3.1-.7 0-1.1 0-7.2 0-14.4 0-21.6 0z"/><path d="m98 158.2c-5.4 0-10.8 0-16.2 0-.6 0-1.1-.1-1.6-.6-.6-.8-.4-1.6.6-1.8.3-.1.7 0 1.1 0h30.9c1.1 0 2.1.2 3.2.2.6 0 .9.3.8.8s0 1.1-.7 1.2c-.8.1-1.7.2-2.5.2-5.2 0-10.4 0-15.6 0z"/><path d="m98.4 132h16.7c.9 0 1.7.1 1.6 1.3-.1.9-.7 1.2-1.5 1.1-2.5 0-5 0-7.4 0-8.6 0-17.3 0-25.9 0-.4 0-.9.2-1.3-.2-.3-.4-.9-.7-.6-1.3s.7-1 1.5-1h11.6c1.8.1 3.5.1 5.3.1z"/><path d="m98.3 150.3c-5.5 0-11 0-16.4 0-.4 0-.9.2-1.1-.2-.3-.4-1-.7-.7-1.4s.9-.9 1.6-.9h25.3 8.2c.8 0 1.7 0 1.6 1.2-.1 1.1-.7 1.3-1.6 1.3-5.7 0-11.3 0-16.9 0z"/><path d="m98.3 142.3c-5.5 0-11 0-16.4 0-.4 0-.9.2-1.1-.2-.3-.4-1-.7-.7-1.4.3-.6.8-.9 1.5-.9h15.4 18.4c.6 0 1.3 0 1.4.7.1.6.1 1.2-.5 1.6-.4.2-.8.1-1.2.1-5.7.1-11.3.1-16.8.1z"/><path d="m119 199.2c-1.3 0-2.6 0-3.9 0-.9 0-1.6-.3-1.6-1.4 0-1 .7-1.4 1.5-1.4h8.1c.8 0 1.5.4 1.5 1.4s-.6 1.4-1.6 1.4c-1.2 0-2.6 0-4 0z"/><path d="m99 13.4c.8-.2 1.3.3 1.5 1 .1.8-.3 1.3-1 1.5-1.5.5-3.1.6-4.7 1-1.8.4-3.6.8-5.3 1.4-.9.3-1.6.2-2-.7-.3-.9.1-1.6 1-1.8 3.3-.9 6.6-1.6 10-2.3.1-.1.3-.1.5-.1z"/><path d="m218.2 162.2c-.9 0-1.6-.9-1.2-1.7 1.3-3.3 2.5-6.5 3.4-9.9.3-.9 1-1.3 1.8-1 .7.3 1 .8.7 1.7-1 3.4-2.2 6.6-3.4 9.9-.2.6-.6 1-1.3 1z"/><path d="m95.9 225c2.7.5 5.5.9 8.2 1.4.7.1 1.4.1 2.1.2.9.1 1.5.5 1.4 1.5-.1.9-.8 1.3-1.8 1.1-2.8-.4-5.7-.8-8.5-1.3-.6-.1-1.2-.3-1.9-.5s-1.2-.7-1.1-1.5c.2-.7.9-.9 1.6-.9z"/><path d="m148.9 222.9c.8-.2 1.3.3 1.4 1 .2.7-.3 1.3-1 1.5-2.3.8-4.7 1.3-7 1.9-.9.2-1.9.4-2.8.6-1.2.3-2 0-2.1-.9-.2-1.1.4-1.5 1.4-1.7 2.4-.4 4.7-1.1 7.1-1.6.9-.2 1.9-.8 3-.8z"/><path d="m16.6 153.4c0 .5-.3.9-1 1.1s-1.2-.1-1.5-.7c-.4-1.1-.8-2.2-1.1-3.3-.6-2.4-1.3-4.7-1.7-7.2-.1-.8-.1-1.5.8-1.8s1.5.1 1.8 1.1c.8 3.3 1.5 6.7 2.6 9.9.1.3.1.5.1.9z"/><path d="m50.9 38.1c-.7 0-1.2-.2-1.5-.8-.3-.7 0-1.2.5-1.6 1.8-1.4 3.7-2.8 5.6-4.2.9-.7 1.8-1.2 2.8-1.8.7-.5 1.5-.7 2.1.1.6.7.3 1.5-.5 2-2.8 1.9-5.6 3.9-8.2 6-.3.1-.6.2-.8.3z"/><path d="m35.2 53.1c-.6.1-.9-.3-1.2-.8-.3-.6.1-1 .4-1.4 1.7-2.1 3.5-4.1 5.4-6.1.6-.6 1.1-1.2 1.7-1.7.7-.6 1.4-.6 2 0 .7.6.4 1.3-.2 1.9-2.4 2.5-4.8 4.9-7 7.6-.2.4-.6.5-1.1.5z"/><path d="m224.7 97.4c.1.6-.4 1-1.1 1.2-.8.2-1.3-.2-1.5-1-.6-2.2-1.2-4.4-1.8-6.7-.3-1.1-.7-2.3-1-3.4-.2-.8 0-1.5.8-1.7.7-.2 1.4.1 1.6.8 1.2 3.3 2 6.8 2.9 10.2.1.1 0 .3.1.6z"/><path d="m75.2 218.5c1.2.2 2.1.8 3.2 1.2 2.4.8 4.7 1.8 7.1 2.6.9.3 1.2.8 1 1.7s-.9 1.1-1.7.9c-2.6-.8-5.2-1.8-7.7-2.8-.8-.3-1.6-.7-2.4-1.1-.7-.3-.8-.9-.7-1.6.1-.8.8-.8 1.2-.9z"/><path d="m143.3 15.3c0 1.3-.8 2-1.7 1.7-3.3-.9-6.6-1.3-10-1.8-.9-.1-1.6-.5-1.5-1.5.2-1.1.9-1.1 1.9-1 3.3.2 6.4 1.1 9.7 1.6.7 0 1.5.4 1.6 1z"/><path d="m203.2 188.7c.1.7-.5 1.2-.9 1.6-2.1 2.4-4.2 4.7-6.4 7-.6.6-1.4.8-2 .2s-.5-1.4.1-2c2.3-2.3 4.5-4.7 6.5-7.3.3-.4.6-.7 1.1-.9.8-.1 1.5.5 1.6 1.4z"/><path d="m215 170.8c-.1 1-.8 1.9-1.3 2.8-1.3 2.3-2.8 4.5-4.1 6.8-.5.9-1.3 1.2-2.1.7s-.7-1.4-.2-2.1c1.7-2.5 3.1-5 4.6-7.6.2-.4.3-.8.6-1.2.4-.5.9-.8 1.6-.6.6.1.9.5.9 1.2z"/><path d="m13.6 89.5c.3-1 .5-2.1.9-3.1.9-2.5 1.9-4.9 2.8-7.3.4-1 1.2-1.1 1.9-.8s.8 1 .5 1.7c-.9 2.6-1.9 5.1-2.8 7.7-.3.8-.3 1.7-.8 2.5-.3.5-.8.8-1.4.6-.6-.1-1.1-.5-1.1-1.3z"/><path d="m217.9 76.9c-.1.6-.3 1.1-.8 1.3s-1.1.1-1.5-.4c-.2-.3-.3-.6-.5-.9-1.1-3-2.8-5.7-4.4-8.5-.5-.9-.4-1.7.4-2.2 1-.5 1.5.2 1.9 1 1.3 2.1 2.2 4.4 3.5 6.4.9 1 1 2.2 1.4 3.3z"/><path d="m38.9 195.2c0-.4 0-.8.5-1.1.6-.3 1.2-.3 1.7.2 2.5 2.6 5.1 4.9 7.7 7.3.6.5.6 1.3.1 1.8-.5.6-1.2.6-1.8.1-2.8-2.3-5.3-4.9-7.9-7.5-.3-.2-.3-.5-.3-.8z"/><path d="m187.9 204.3c0 .1 0 .4-.4.8-2.7 2.3-5.5 4.3-8.4 6.3-.6.4-1.5.7-2.1-.2-.5-.8-.2-1.4.6-2 2.8-1.9 5.5-3.9 8.1-6.1.5-.4 1.1-.3 1.7-.2.5.1.6.6.5 1.4z"/><path d="m162.4 23.8c-1.1-.1-1.9-.6-2.8-1-2.5-1-5.1-2-7.7-2.9-.9-.3-1-1.1-.7-1.8.3-.8 1.1-.9 1.8-.7 1.8.6 3.5 1.2 5.3 1.9 1.6.6 3.1 1.3 4.7 2 .6.3.8.9.6 1.5-.1.7-.6.9-1.2 1z"/><path d="m227.2 117.6c0 .6 0 1.1-.1 1.5-.2.7-.7 1-1.5.9-.6-.1-1-.5-1-1.1.1-3.5-.5-6.9-.7-10.4-.1-.9.1-1.6 1.1-1.7s1.3.6 1.5 1.5c.5 3.1.4 6.3.7 9.3z"/><path d="m29 180.1c.5 0 .9.3 1.1.6 1.4 1.8 2.7 3.7 4 5.6.6.8.2 1.4-.4 1.9s-1.2.3-1.7-.2c-1.5-1.9-3-3.8-4.2-5.9-.5-1 .1-2 1.2-2z"/><path d="m121.1 227.3c1.9.1 4.1-.2 6.3-.3.9-.1 1.6.2 1.7 1.1s-.4 1.4-1.3 1.5c-3.5.4-6.9.5-10.4.6-.9 0-1.5-.5-1.5-1.5s.6-1.3 1.5-1.3c1.1-.1 2.2-.1 3.7-.1z"/><path d="m56.4 207.2c.4.1.7.2 1.1.5 2.4 2 5 4 7.6 5.7.1 0 .1.1.2.1 1.1.9 1.4 1.5.9 2.3-.5.7-1.4.6-2.4-.1-2.8-1.8-5.4-3.9-8-6-.6-.5-.6-1.1-.4-1.7 0-.5.5-.7 1-.8z"/><path d="m28.8 59.2c1.1 0 1.7 1.1 1.1 2.1-1.5 2.2-2.9 4.5-4.2 6.8-.4.7-.8 1.4-1.2 2.1-.4.8-1 1.3-1.8.8-.9-.4-1-1.1-.5-2 1.3-2.4 2.7-4.8 4.1-7.1.4-.6.8-1.2 1.2-1.8.3-.6.8-.9 1.3-.9z"/><path d="m13.7 100.2c-.7 2.6-.8 5.3-1.3 7.9-.1.8-.1 1.6-.2 2.4-.1.9-.6 1.5-1.5 1.5-.7 0-1.4-1.1-1.2-1.9.5-3.2.9-6.3 1.4-9.5.1-.4.2-.7.3-1 .3-.7.8-1.1 1.5-.9.6.2 1.1.7 1 1.5z"/><path d="m67.4 24.9c0-.6.5-1 1-1.2 3.1-1.5 6.2-2.9 9.4-4.3 1-.4 1.6.1 1.9.9.4 1-.4 1.4-1.1 1.7-1.8.8-3.6 1.5-5.3 2.3-1.3.6-2.6 1.3-3.9 1.9-1 .5-2-.1-2-1.3z"/><path d="m12.2 131.1v1.2c0 .8-.6 1.1-1.1 1.2-.6.2-1.2-.2-1.4-.9-.2-.6-.3-1.2-.3-1.9-.2-2.9-.3-5.9-.4-8.8 0-.9.3-1.8 1.3-1.8s1.4.7 1.4 1.7c0 3.2.1 6.3.5 9.3z"/><path d="m159.2 221.9c-.7-.1-1.2-.5-1.3-1.1-.2-.8.4-1.2.9-1.4 2.1-1 4.2-1.9 6.3-2.9 1.1-.5 2.1-1.1 3.2-1.6.7-.4 1.3-.2 1.7.5.4.8.2 1.5-.5 1.8-3.2 1.7-6.4 3.3-9.8 4.6-.2 0-.4 0-.5.1z"/><path d="m226.8 130.8c-.5 3.2-.6 6.3-1.4 9.5-.2.9-.6 1.5-1.5 1.3s-1.1-1-1-1.8c.2-1.5.5-3 .7-4.5.2-1.8.4-3.6.6-5.3.1-.9.4-1.7 1.4-1.7 1.1 0 1.3.9 1.2 1.8z"/><path d="m111.7 11.5c2.9-.3 5.8 0 8.7 0 .5 0 1.2 0 1.6.5.3.4.4.9.2 1.5s-.7.7-1.2.7c-2.8 0-5.6 0-8.4 0-.6 0-1.2-.1-1.8.1-1 .2-1.6-.1-1.8-1.1s.4-1.4 1.3-1.6c.6-.3 1 0 1.4-.1z"/><path d="m67.8 57.5c.6-.2.4-.7.4-1.1.1-2.1-.2-4.2.1-6.3.4-2.5 2.4-4.2 4.9-4.2h15.3 36c.3 0 .6.1.8-.2 1.5-1.7 3.5-2.9 5.2-4.5 1.6-.6 2.9-1.7 4.4-2.5 3.9-2.1 8.1-3.6 12.4-4.6 5.8-1.4 11.7-1.6 17.6-1.2 3.9.2 7.6 1 11.3 2.1 3.9 1.2 7.6 2.8 11.2 5 4.3 2.6 8 5.8 10.9 9.9 4.1 5.6 6.1 12 5.3 19-.6 5.3-2.7 10.1-6 14.3-1.7 2.2-3.7 4-5.6 6-.2.3-.7.1-.9.5-3.1 2.3-6.4 4-9.8 5.6-3.6 1.6-7.4 2.7-11.3 3.3-1.5.2-1.6.3-1.6 1.9v79.8 4c0 5.4-.1 10.8 0 16.2 0 3-2.3 5.5-5.5 5.5-29.8-.1-59.6-.1-89.4 0-3 0-5.4-2.3-5.4-5.4.1-5 0-10 0-15 0-.4 0-.9-.1-1.3 0-5.7 0-11.3 0-17 0-.6-.1-.9-.9-.9-5.3 0-10.7 0-16 .1-5.2 0-10.5 0-15.7-.1-1.2 0-2.3-.1-3.5 0-3.7.3-6.4-2.7-7.6-5.2-.7-1.6-.9-3.2-.9-4.9 0-15.3 0-30.5 0-45.8 0-3.4 1-6.4 3.8-8.6 1.4-1.1 3-1.5 4.7-1.5 2.7 0 5.4 0 8-.1h27c1 0 1.1-.4 1.1-1.2 0-13.4 0-26.8 0-40.3.1-.5.3-1-.2-1.3zm68.1 49.3c4-.2 8-.9 11.9-1.9 4.7-1.3 9.1-3.2 12.9-6.4 1.6-1.4 3.6-2.1 5.7-2.2 3.8-.2 7.5-1.2 11.1-2.5 4.8-1.7 9.3-3.9 13.2-7.3 3.4-2.9 5.9-6.4 8.1-10.2 1.4-2.3 1.9-4.9 2.3-7.6.6-4.3-.1-8.3-1.8-12.3-1.9-4.6-5-8.3-8.9-11.4-4.7-3.8-10.1-6.4-15.9-8-4.6-1.3-9.3-1.9-14-2-2.5-.1-5.1.3-7.6.6-4.2.5-8.3 1.6-12.2 3.2-5.7 2.3-10.7 5.6-14.8 10.2-3.6 4.1-6 8.8-6.7 14.2-.7 6.1.9 11.8 4.4 16.8 5 7 11.9 11.4 20 14.1 2.1.7 2.8 2.8 1.4 4.5-1.8 2.2-4 4.1-6.3 5.9-1 .7-2.2 1.2-2.8 2.3-.2 0-.3 0-.4.1 0 0 .1.1.1.1.1-.1.2-.1.3-.2zm-17.6 83h30.4 16.1c.9 0 1.3-.2 1.2-1.1-.1-1.1-.2-2.2-.2-3.3 0-17.6 0-35.1 0-52.7 0-10.8 0-21.5 0-32.3 0-1.5-.3-1.7-1.7-1-.7.3-1.4.8-2 1.3-1.9 1.7-4.2 3-6.5 4.1-4.2 2-8.6 3.2-13.1 3.9-3 .5-5.9.6-8.9.8-1.2.1-2-.6-2.3-1.7-.3-1 .3-1.7 1-2.2.8-.6 1.7-1.1 2.5-1.6 2.8-1.8 5.4-4 7.7-6.5.3-.3 1-.9-.1-1.2-5.4-1.7-10.3-4.4-14.6-8-3.3-2.8-6.1-5.9-8.1-9.7-1.8-3.4-2.9-7-3.2-10.9-.1-2.3-.1-4.6.5-6.9.4-1.5.4-1.6-1.3-1.6-14.5 0-29 0-43.4 0-1.2 0-1.4.4-1.4 1.5v37.8c0 1.7 0 1.7 1.7 1.7h43.4c3.8 0 6.7 2.3 8.1 5.7.6 1.7.7 3.3.7 5v20c0 1.1.3 1.4 1.3 1.3s2 0 3 0c2.7-.1 5.4 0 7.9 1.4 3.8 2 6.2 5.1 6.3 9.5.1 9.3 0 18.6.1 27.8 0 1.4-.2 2.7-.6 4-1.5 4.3-6 7.7-10.6 7.7-8.8 0-17.5 0-26.3 0-1.7 0-3.3-.1-4.9-.7-3.7-1.4-6.2-4-7.3-7.7-.7-2.2-.7-4.6-.6-6.9 0-1-.2-1.3-1.3-1.3-6.5 0-13 .1-19.4 0-1.3 0-1.5.4-1.5 1.6v20.6c0 1.6 0 1.6 1.5 1.6zm-44.3-26.2h41.9c1.5 0 2.9-.5 4-1.6 1.7-1.7 2.3-3.8 2.3-6.1 0-15.1 0-30.2 0-45.2 0-1.3-.1-2.5-.5-3.8-.8-2.5-3-4.2-5.6-4.2-28 0-55.9 0-83.9 0-1.3 0-2.5.4-3.5 1.3-2 1.7-2.6 3.9-2.6 6.4v45c0 1.3.1 2.5.5 3.8.7 2.2 3 4.5 5.8 4.5 13.9-.1 27.8-.1 41.6-.1zm44.2 16.4h13.4c1 0 2-.1 2.9-.5 3.8-1.5 6.2-4.5 6.2-8.7.1-8.9 0-17.8 0-26.7 0-4.9-4.1-9.2-8.8-9.1-2 0-3.9.1-5.9 0-1 0-1.4.2-1.4 1.3.1 6.3 0 12.6 0 18.8 0 2-.1 3.9-.9 5.7-1.1 2.6-3.9 5.2-7.2 5.2-6-.1-11.9 0-17.9 0-3 0-3 0-3 3 0 1.5-.2 3.1.4 4.6 1.6 4 4.9 6.4 9.4 6.3 4.3.1 8.6.1 12.8.1zm.1 12.5c-5.4 0-10.8 0-16.2 0-10 0-20 0-30 0-1 0-1.4.3-1.4 1.4.1 2.1.1 4.2 0 6.4-.1 1.8 1.2 3.1 3.1 3h17 71.1c.7 0 1.4 0 2.1-.3.9-.3 1.4-.9 1.5-1.9.1-2.3.3-4.5.2-6.8 0-1.7 0-1.7-1.7-1.7-15.1-.1-30.4-.1-45.7-.1zm-20.7-144c-3.6 0-7.1 0-10.7 0-4.4 0-8.8 0-13.2 0-2.1 0-2.9.9-2.9 2.9 0 1.3.1 2.6 0 4-.1 1 .2 1.3 1.3 1.3h45c.9 0 1.3-.3 1.6-1.1.8-2.1 2-4 3.2-5.8.2-.3.8-.6.5-1.1-.3-.4-.8-.2-1.2-.2-8 0-15.8 0-23.6 0z"/></g></svg>