<svg enable-background="new 0 0 211.9 215" viewBox="0 0 211.9 215" xmlns="http://www.w3.org/2000/svg"><g fill="#fff"><path d="m157.7 61.7c0 4.5-.2 9 0 13.4.1 1.6 1.3 2.8 2.2 4.1 2.3 3.3 4.7 6.6 7 9.9 1.2 1.8.4 3.6-1.7 4-.4.1-.9.1-1.3.1-6.6 0-13.2.1-19.8 0-8.2 0-16.3 0-24.5-.1-7.3 0-14.6 0-21.9 0-7.7 0-15.4 0-23.1 0-9.4 0-18.9 0-28.3 0-.8 0-1.7 0-2.4-.5-1.2-.8-1.4-2.1-.6-3.4 2.3-3.3 4.7-6.6 7-9.9.8-1.1 1.6-2.2 2.4-3.3.2-.3.3-.6.3-.9 0-3.9 0-7.8-.1-11.6.2-1.6.1-3.3.1-4.9 0-13 0-25.9 0-38.9 0-3.4 1.4-5.9 4.5-7.3.9-.4 1.9-.5 2.9-.5h69.1 20.5c3.3 0 5.6 1.5 7.1 4.5.3.7.3 1.4.5 2.1v.5.5c0 .3-.1.6-.1 1v38.6c0 .3 0 .6.1 1v.5c-.1.2-.1.4.1.6-.1.1-.1.3 0 .5zm-52.4 15.4c-4.6 0-9.1 0-13.7 0-11.9 0-23.8 0-35.7 0-.9 0-1.4.3-1.9 1-2.7 3.9-5.5 7.7-8.2 11.6-.2.3-.7.6-.5 1s.8.3 1.2.3h15.4 28.1c1 0 1.5-.3 1.7-1.2s.6-1.7.8-2.6c.2-1 .9-1.4 1.8-1.4h22.4c.8 0 1.4.4 1.7 1.1.3.8.6 1.6.8 2.4.5 1.7.4 1.8 2.2 1.8h40.9 2.3c.7 0 .9-.2.4-.9-2.6-3.8-5.5-7.3-7.8-11.3-.7-1.2-1.6-1.6-3.1-1.6-16.4-.2-32.6-.2-48.8-.2zm-.1-2.2h48.9c.9 0 1.2-.2 1.2-1.2 0-18.1 0-36.2 0-54.2 0-1-.2-1.9-.7-2.8-1.1-1.8-2.7-2.6-4.8-2.6-5.4 0-10.9 0-16.3 0-24.2 0-48.5 0-72.7 0-3.6 0-5.6 2.1-5.6 5.6v53.6c0 1.2.3 1.5 1.5 1.5 16.1.1 32.3.1 48.5.1zm0 16h10.7c.4 0 .9.1 1.1-.3.4-1-.8-2.7-1.9-2.7-6.3 0-12.6 0-18.8 0-2 0-1.9 0-2.4 1.9-.3 1 0 1.1.9 1.1z"/><path d="m119 174.5c-1.4-4.7-2.3-9.5-3.5-14.3-.5-2.2.7-4.3 2.8-5.2 1.9-.8 4.1-.1 5.5 1.7 1.3 1.7 1.6 3.7 2.4 5.6.6 1.4 1.1 2.8 1.9 4.1.4-.2.2-.5.2-.7 0-9.1 0-18.2 0-27.3 0-1-.4-1.2-1.3-1.2-5.3 0-10.6.1-15.9.1-2.8 0-4.1-1.3-4.1-4.1 0-8.7 0-17.4 0-26 0-2.4 1.4-3.8 3.9-3.8h61.5c.8 0 1.7.1 2.4.5 1.4 1 1.8 2.3 1.7 4-.1 8.3-.1 16.5 0 24.8 0 2.6-.7 4-3.4 4.5-1.3 0-2.7 0-4 0-.2 0-.3 0-.5 0-.3-.1-.6-.1-.8.1h-.1-.1c-.1 0-.2 0-.2 0-9.3 0-18.5 0-27.8-.1-.9 0-1 .4-.9 1.1v11.3c0 .4-.1.9.2 1.3.5-.2 1-.3 1.5-.5 2-.5 3.8 0 5.1 1.5.7.8 1.2.9 2.2.5 2.4-1.1 5.5.1 6.7 2.5.4.8.8.8 1.4.3 2.8-.8 4.9-.1 6.2 2.1.4.7.6 1.5.6 2.3 0 5.7.1 11.4-1.1 16.9-.9 4.5-2.5 8.7-5.3 12.4-1.2 1.5-1.7 3.3-1.8 5.2-.1 1.2-.1 2.5-.1 3.7 0 .9-.4 1.5-1.2 1.5s-1.1-.7-1.1-1.4c.1-3.1 0-6.3 1.6-9.2 1-1.7 2.2-3.2 3.1-5 1.3-2.7 2.1-5.6 2.7-8.6 1-4.8.8-9.6 1-14.4 0-.6-.1-1.2-.2-1.8-.4-1.5-1.2-2-2.8-1.8-1.2.1-2.2 1.1-2.2 2.4 0 .9-.4 1.4-1.3 1.4s-1-.7-1-1.4c0-.6 0-1.3 0-1.9-.1-1.3-.6-2.3-1.8-2.9s-2.4-.4-3.5.4c-.6.4-.6 1-.7 1.6v1c-.1.6-.3 1-1.1 1-.7 0-1-.5-1.1-1-.1-.6 0-1.2 0-1.8 0-1.9-1.1-3.2-2.9-3.3-1.3-.1-2.6 1.2-2.9 2.8 0 .2 0 .5-.1.7-.2.6-.4 1.2-1.2 1.1-.8 0-1-.6-1.1-1.2-.1-.3 0-.6 0-1 0-6 0-12.1 0-18.1 0-1.2.1-2.5-.8-3.6-1.2-1.4-3.5-1.3-4.4.3-.5.9-.7 1.9-.7 3v33c0 .6.2 1.3-.6 1.6s-1.3-.2-1.8-.7c-2-2-3.1-4.7-4.1-7.3-.7-1.7-1-3.5-2.1-5-.8-1-1.8-1.3-2.8-.9-1.1.5-1.6 1.5-1.3 2.7 1.1 4.8 1.9 9.7 3.5 14.4 1 3.2 2.8 6.1 4.6 8.9 1.5 2.3 3.3 4.3 4.4 6.9s1.2 5.4 1.3 8.2c0 .7-.4 1.1-1 1.1s-1-.4-1.1-1c-.1-.7-.2-1.5-.2-2.3 0-3.4-1.3-6.3-3.3-9.1-3.1-4-5.5-8-7.1-12.6zm23-69c-10 0-20.1 0-30.1 0-2.2 0-2.4.2-2.4 2.5v24.9c0 1.6.3 1.9 2 2 1.6.1 3.1-.2 4.7-.2h10.2c2 0 2 0 2.7-1.9.8-2.1 2.5-3.2 5-3 2.5.1 3.9 1.5 4.5 3.6.3 1.2.8 1.3 1.8 1.3h31.7 1.3c.8-.1 1.3-.5 1.3-1.4 0-8.8 0-17.5 0-26.3 0-.7-.3-1.1-1-1.3-.5-.2-1-.2-1.5-.2-10.2 0-20.2 0-30.2 0z"/><path d="m37.2 109.4c4.5-2.8 9.4-4.6 14.6-5.6 1.5-.3 3-.4 4.5-.5 1 0 1.3-.4 1.2-1.3 0-.2 0-.4 0-.6.1-1.3 1-1.8 2-1.1 4.2 2.4 8.4 4.9 12.7 7.3.1.1.2.2.3.2.7.3 1.5.5 1.5 1.5 0 .9-.8 1.2-1.6 1.6-1.1.6-2.3 1.3-3.4 2-.2.1-.5.2-.4.5.1.2.3.2.5.3 8.9 3.2 15.1 9.2 18.8 17.9 1.9 4.6 2.8 9.5 2.3 14.4-1 9.1-4.9 16.8-12.4 22.5-.2.2-.5.3-.6.6-.4 0-.7.3-1.1.5-5.1 3.4-10.7 5.2-16.9 5.4-2 .1-2 0-2.2-2.1-.1-.6-.2-.7-.7-.4-.6.4-1.2.7-1.8 1-2.7 1.6-5.4 3.2-8.3 4.8.7.4 1.2.8 1.8 1.2 2.6 1.5 5.2 3 7.8 4.4.3.2.7.6 1.1.3.3-.2.2-.7.1-1-.1-1.5.4-1.9 1.9-1.8 2.8.2 5.5-.3 8.2-.9 3.3-.7 6.4-1.9 9.4-3.5 2.5-1.3 4.8-2.8 6.8-4.8 4.8-4.1 8.3-9.1 10.6-15 1.7-4.3 2.4-8.7 2.6-13.3 0-.8.2-1.6 1.2-1.5.9 0 1.1.7 1.1 1.5-.2 9-3 17.1-8.5 24.3-1.2 1.6-2.8 2.9-4 4.5-1.7 1.2-3.3 2.7-5 3.9-4.3 2.9-9 5-14.1 6.1-2.2.5-4.5 1-6.9.8-.9-.1-1.2.3-1.1 1.1.1.4 0 .9 0 1.3 0 1.5-.7 1.9-2 1.2-1.4-.7-2.7-1.5-4-2.3-3.1-1.9-6.4-3.5-9.4-5.5-1.3-.9-1.3-1.6.1-2.4 1.7-1 3.4-2 5.1-2.9.2-.1.2-.3.4-.5-6.8-2.2-12.3-6.1-16.4-11.8-4.9-6.8-6.6-14.4-5.6-22.7.3-2.5 1-4.9 2-7.2s1.9-4.6 3.5-6.7c1.5-2.1 3.3-4 5.2-5.7.1-.1.2-.3.3-.5.8-.6 1.5-1.2 2.3-1.7 4.9-3.2 10.2-5.1 16.1-5.4 2.7-.2 2.8-.2 2.9 2.4 0 .9.4 1 1 .5 1.2-.7 2.3-1.3 3.5-2 2-1.2 4-2.4 6.2-3.6-3.5-2-6.8-3.9-10-5.8-.6-.4-.7.1-.7.5 0 1.2-.7 1.5-1.7 1.5-1.8 0-3.7.2-5.5.5-3.3.5-6.4 1.5-9.5 2.8-2 .9-4 1.9-5.7 3.3-2.1 1-3.8 2.6-5.4 4.2-3.7 3.6-6.4 7.9-8.5 12.6-1.9 4.3-2.6 8.9-2.8 13.6v.7c0 .7-.4 1.3-1.1 1.4-.8.1-1.2-.6-1.1-1.3 0-1.5.1-3 .3-4.5 1.3-10.7 6.1-19.4 14.3-26.3 1.3-.9 2.8-1.9 4.2-2.9zm1.9 12.6c-.4 0-.6.3-.9.6-3.2 2.9-5.2 6.6-6.9 10.4-1.2 2.7-1.7 5.6-1.9 8.6-.3 5.6.7 10.9 3.4 15.8 4.2 7.6 10.6 12.4 18.9 14.7.6.2 1.1 0 1.6-.3 1.3-.8 2.6-1.6 4-2.4 1.1-.6 2-.1 2 1.2v1.1c-.1.9.2 1.3 1.2 1.2 3.9-.5 7.8-1.2 11.3-3.1 1-.5 2.1-.8 2.8-1.9.8-.1 1.3-.7 1.9-1.1 6.6-5.4 10.7-12.1 11.3-20.8.4-5.3-.5-10.3-2.8-15-3.8-7.8-10.1-12.9-18.4-15.5-.7-.2-1.4-.3-2.1.1-1.7 1-3.4 2-5.1 3-1 .6-1.8.1-1.9-1-.1-.6-.1-1.2 0-1.8.1-1-.2-1.3-1.3-1.2-4 .2-7.7 1.4-11.1 3.2-2.2 1-4.4 2.2-6 4.2z"/><path d="m200.7 120.8c-.4 2.6-.9 5.6-1.7 8.5-.2.7-.6 1.1-1.2 1-.7-.2-1.2-.7-.9-1.5.3-1 .5-2 .7-3 .4-1.9.6-3.8 1-5.6.2-.7.5-1.1 1.2-1.1s1.1.6.9 1.7z"/><path d="m28.2 53.8c0 1.2-.9 1.9-1.3 2.8-1 1.9-2 3.7-2.9 5.6-.3.6-.8 1.1-1.5.9s-.9-.9-.6-1.6c1-2.4 2.3-4.7 3.6-7 .2-.4.4-.8.7-1.2s.8-.6 1.3-.4c.4.2.8.4.7.9z"/><path d="m94.8 201.8c-3.3-.3-6.3-.8-9.2-1.5-.7-.2-1.2-.6-1-1.2.2-.8.8-1.2 1.6-1 2 .6 4.1.8 6.1 1.2.8.2 1.6.1 2.4.2.7.1 1.2.5 1.2 1.2 0 .8-.6 1.1-1.1 1.1z"/><path d="m39.9 40.1c0 .6-.1.9-.4 1.2-1.9 2.1-3.8 4.2-5.7 6.4-.5.6-1.1 1-1.8.4s-.4-1.3.1-1.9c1.9-2.1 3.7-4.2 5.6-6.3.4-.4.9-.8 1.6-.5.4.1.6.4.6.7z"/><path d="m196.5 138.1c-.4 1.1-.7 2.3-1.2 3.4-.7 1.7-1.4 3.4-2.2 5-.3.6-.7 1.3-1.5 1s-.9-1-.6-1.8c1.2-2.6 2.2-5.3 3.3-8 .2-.6.6-1.1 1.3-.9.6.2.8.7.9 1.3z"/><path d="m169.8 36c.5-.1.8.2 1.1.4 2.2 1.9 4.2 4 6.1 6.2.5.6.6 1.2.1 1.8-.6.5-1.2.3-1.7-.2-2-2.2-4-4.3-6.2-6.3-.4-.3-.7-.8-.4-1.3.2-.3.5-.7 1-.6z"/><path d="m10.9 96.3c.4-2.7.9-5.3 1.3-8 .1-.7.5-1.4 1.3-1.2.7.2 1 .8.8 1.7-.5 2.6-1.1 5.3-1.2 8 0 .9-.3 1.6-1.2 1.6-1 0-1.1-.8-1-1.6 0-.2 0-.3 0-.5z"/><path d="m196.1 75c.1.5-.2.9-.8 1s-1.1-.2-1.3-.8c-.9-2.8-2.1-5.5-3.4-8.2-.3-.6-.1-1.1.4-1.4s1.2-.3 1.5.2c1.5 2.8 2.6 5.7 3.6 8.7z"/><path d="m68.2 192.3c1.1.5 2.2 1 3.3 1.4 1.8.7 3.6 1.3 5.5 2 .7.3 1.3.7 1 1.5-.3.6-.9.9-1.8.6-2.8-1-5.6-2-8.3-3.2-.7-.3-.7-.8-.6-1.4 0-.6.6-.7.9-.9z"/><path d="m14.6 79.1c.4-1.9 1.1-3.7 1.8-5.5.3-1 .8-1.9 1.1-2.9.3-.8.7-1.3 1.6-1 1 .3.7 1.2.5 1.8-.5 1.3-1 2.6-1.5 3.9s-.9 2.7-1.3 4c-.2.6-.6 1.2-1.4 1-.6 0-1-.6-.8-1.3z"/><path d="m196.7 83.9c0-.6 0-1.2.8-1.3.7-.1 1.2.3 1.4 1 .6 2.8 1.3 5.6 1.6 8.5.1.6.1 1.3-.7 1.5-.9.2-1.4-.2-1.5-1-.3-2.9-.9-5.7-1.6-8.7z"/><path d="m182.1 49.6c.4 0 .7.1 1 .5 1.8 2.3 3.3 4.9 4.9 7.4.3.6.6 1.2-.2 1.7-.7.5-1.3.1-1.6-.5-1.6-2.6-3.3-5.1-5-7.6-.5-.7 0-1.4.9-1.5z"/><path d="m108.4 200.1h4.2c.7 0 1.3.1 1.4.9s-.5 1.3-1.2 1.3c-3 .1-6.1.1-9.1 0-.6 0-.8-.4-.8-1s.4-1.1 1.1-1.2z"/><path d="m157.5 60c0-.3-.1-.6-.1-1 0-12.9 0-25.7 0-38.6 0-.3 0-.6.1-1 .3.4.1.8.1 1.2v38.2c.1.4.2.8-.1 1.2z"/><path d="m169.2 137.1h4c-1.3.3-2.6.3-4 0z"/><path d="m80.2 59.8c-2.2 0-4.5-.1-6.7 0-2.8.1-5-2.5-4.8-4.9.3-3.5.5-6.9 2-10.1.7-1.6 1.8-3 3.2-3.9.8-.6.8-1 .4-1.7-1.7-3-.9-7.2 2.2-9.2 3.6-2.4 7.9-.5 9.5 2.7 1.1 2.3.9 4.5-.2 6.8-.2.4-.3.6.1.9 3.4 2.5 5 6 5.4 10.1.1 1.4.4 2.8.5 4.2.2 2.6-2.2 5.3-5.1 5.2-2.2-.2-4.3-.1-6.5-.1zm-.1-2.2c2 0 4.1-.1 6.1 0 2.1.1 3.6-1.6 3.2-3.9-.3-1.4-.4-2.9-.6-4.4-.6-2.9-1.7-5.5-4.3-7.2-.4-.3-.8-.6-1.3-.3-2.1 1.2-4.2 1.2-6.2.2-.3-.2-.6-.1-.9.1-1.8 1.2-3.1 2.9-3.8 5-.8 2.4-1 4.8-1.3 7.3-.2 1.8.9 3.2 2.8 3.2zm-.1-17.2c2.5 0 4.4-1.9 4.5-4.4.2-2.7-2.1-4.9-4.5-4.9s-4.5 2.2-4.5 4.6c.1 2.5 1.9 4.8 4.5 4.7z"/><path d="m147.1 125.4c-3 1-4.9.4-6.1-2.2-1.3-2.9-.2-6.4 3.6-7.2.3-.1.7 0 1.1.1.7.3 1.4.6 2.2-.1.6-.6 1.6 0 1.6.9 0 3.2.1 6.4 0 9.6-.1 1.9-1.9 3.4-4 3.5-1.1.1-2.2-.2-3.3-.5-.7-.2-1.1-.7-.9-1.5.2-.7.8-.9 1.5-.8 1 .1 2 .6 3.1.2.8-.2 1.2-.9 1.2-2zm-4.3-4.5c0 1.5.9 2.7 2.1 2.7s2.2-1.2 2.2-2.6-1-2.7-2.2-2.7-2.1 1.1-2.1 2.6z"/><path d="m133.5 127.2c-3 0-5.3-2.5-5.3-5.8s2.3-5.9 5.4-5.9c3 0 5.3 2.6 5.3 5.9-.1 3.2-2.4 5.8-5.4 5.8zm-3-5.8c0 .2 0 .5.1.9.3 1.3 1.1 2.1 2.3 2.5 1 .4 1.8-.1 2.5-.7 1.2-1 1.5-3.4.6-4.8-1.2-2.1-3.4-2.2-4.9-.3-.5.7-.6 1.4-.6 2.4z"/><path d="m13.1 115.3c0 .7-.2 1.2-.9 1.4-.8.1-1.2-.3-1.3-1-.4-3-.6-6-.6-9.1 0-.8.5-1.2 1.2-1.2.8 0 1 .6 1 1.2.1 1.3.1 2.6.1 3.9.2 1.7.2 3.3.5 4.8z"/><path d="m199.6 106.3c-.1-1.4-.1-2.7-.2-4.1 0-.7 0-1.4.9-1.5s1.2.5 1.3 1.2c.3 2.9.2 5.9.1 8.9 0 .8-.5 1.3-1.3 1.2s-.9-.7-.9-1.4c0-1.4 0-2.9 0-4.3z"/><path d="m181.6 162.1c0-.1.1-.5.3-.7 1.7-2.2 3.2-4.6 4.6-7 .4-.6.8-1.2 1.6-.7s.8 1.1.3 1.9c-1.4 2.4-3 4.7-4.6 7-.3.5-.7 1.1-1.5.8-.5-.2-.7-.6-.7-1.3z"/><path d="m176.9 168.4c.5-.1.8.2 1.1.6.2.4.1.7-.2 1.1-1.9 2.4-4.2 4.6-6.4 6.7-.5.5-1.1.5-1.6 0s-.4-1.2.1-1.7c2.1-2 4.2-4.1 6.1-6.3.2-.3.5-.3.9-.4z"/><path d="m158.4 121.7c0-1.4 0-2.8 0-4.2 0-1.3.5-1.6 1.7-1.4.3.1.5 0 .8-.1 3-.7 5.4.4 5.9 3.6.3 2.2.1 4.4.1 6.6 0 .6-.4 1.2-1.1 1.2-.8 0-1.1-.5-1.1-1.2-.1-2.2.2-4.3-.2-6.5-.3-1.5-1.9-2.1-3.1-1.3-.5.3-.5.7-.5 1.2v6c0 .9-.2 1.7-1.2 1.7s-1.1-.8-1.1-1.6c-.2-1.3-.2-2.6-.2-4z"/><path d="m155 113.6c-.1.7-.5 1.2-1.1 1.2-.7 0-1.2-.4-1.2-1.2 0-.7.5-1.1 1.1-1.1s1.1.4 1.2 1.1z"/><path d="m105.3 82.4c-16.2 0-32.4 0-48.6 0-.8 0-2 .3-2-1 0-1.4 1.2-1 2-1h23.5 45.3 28.2 1.2c.7 0 1.1.3 1.1 1s-.4 1.1-1.1 1.1c-.6 0-1.2 0-1.8 0-16-.1-31.9-.1-47.8-.1z"/><path d="m105.2 17.7h43.3c2.8 0 3.9 1.1 3.9 3.9 0 15 .1 30 .1 45 0 .9 0 1.8-.1 2.6-.2 1.9-1.3 2.9-3.2 3.1-.6 0-1.2 0-1.8 0-28.4 0-56.9 0-85.3 0-3.1 0-4.3-1.2-4.3-4.4 0-15.4 0-30.7 0-46.1 0-2.9 1.2-4.1 4.1-4.1 14.5 0 28.9 0 43.3 0zm.2 2.2c-12.3-.1-24.6-.1-37-.1-2.2 0-4.4 0-6.6.1-1.4 0-1.6.3-1.7 1.6 0 1.2-.1 2.5-.1 3.7 0 14.2 0 28.4.1 42.6 0 2 .1 2.1 2.2 2.2 12.6.1 25.2-.1 37.8.1 5.7.1 11.4 0 17.1-.1 10.3-.1 20.6 0 31 0h1c.8-.1 1.1-.6 1.1-1.3 0-1.1 0-2.1 0-3.2 0-11 .1-22.1 0-33.1 0-3.6.2-7.2-.1-10.8-.1-1.6-.3-1.7-1.9-1.7-3 0-6.1 0-9.1 0-11.2 0-22.5 0-33.8 0z"/><path d="m116.9 119.4c0-2.1 0-4.2 0-6.2 0-.8.1-1.5 1.2-1.6 1.1 0 1.1.7 1.1 1.5 0 3.5.1 6.9 0 10.4 0 1.2.4 1.5 1.5 1.4 1.7-.1 3.4 0 5 0 .9 0 1.6.3 1.5 1.2 0 .9-.8 1.1-1.6 1.1-2.4 0-4.8 0-7.2 0-1.1 0-1.6-.5-1.6-1.6.1-2.1.1-4.2.1-6.2z"/><path d="m155 121.6v4.1c0 .8-.3 1.4-1.2 1.5-.9 0-1.2-.7-1.2-1.4 0-2.9 0-5.7 0-8.6 0-.7.3-1.3 1.2-1.3.9.1 1.1.6 1.1 1.4.1 1.4.1 2.8.1 4.3z"/><path d="m59.9 157.5c-.9.3-1.3 1.3-1.9 1.9-.8.8-1.6.8-2.4.2-5.6-4.2-11.1-8.5-16.6-12.7-1.6-1.2-1.6-1.4-.4-3 1.4-1.9 2.8-3.7 4.2-5.6.4-.5.8-.8 1.4-.7 1 .2 1.7 1.1 2.5 1.6 2.7 2 5.3 4 7.9 6.1.8.6 1.2.6 1.9-.3 4.6-5.5 9.3-11 13.9-16.4 1.1-1.3 1.3-1.3 2.6-.2 1.9 1.5 3.9 3.1 5.8 4.6.9.8 1 1.4.2 2.3-2.5 2.9-5 5.8-7.5 8.7-3.8 4.4-7.6 8.7-11.4 13.1-.1.1-.1.3-.2.4zm16.6-23c.1-.5-.2-.6-.4-.7-1-.8-1.9-1.6-2.9-2.3-1.6-1.2-1.1-1.4-2.4.2-4.5 5.3-9 10.6-13.5 15.9-1 1.2-1.9 1.2-3.1.3-3.1-2.3-6.2-4.7-9.3-7.1-.7-.5-1-.4-1.4.2-.8 1.2-1.6 2.3-2.5 3.5-.4.5-.5.6.1 1.1 4.9 3.7 9.8 7.5 14.7 11.3.6.5 1 .4 1.5-.2 1.6-1.9 3.2-3.7 4.7-5.5 4.7-5.5 9.4-10.9 14.2-16.4.1-.1.2-.3.3-.3z"/><path d="m121.3 54.3h18.3.8c.5.1.9.3 1 .9s-.2 1-.7 1.3c-.4.2-.8.1-1.2.1-12.2 0-24.4 0-36.7 0-.4 0-.9.1-1.3-.2s-.7-.6-.6-1.2c.1-.5.4-.8 1-.9h1z"/><path d="m121.5 39.2h18.2 1.1c.5.1.9.4.9.9 0 .6-.2 1-.8 1.1-.4.1-.9.1-1.3.1-12.1 0-24.1 0-36.2 0-.9 0-2.1.3-2.1-1.1s1.2-1.1 2.1-1.1c6.1.1 12.1.1 18.1.1z"/><path d="m121.4 49c-6.2 0-12.5 0-18.7 0-.6 0-1.1-.1-1.3-.7-.2-.5 0-.9.3-1.2.4-.5.9-.2 1.3-.2h32.3 4.9c.8 0 1.5.1 1.5 1.1s-.6 1.1-1.4 1.1c-6.3-.1-12.6-.1-18.9-.1z"/><path d="m121.5 31.5h18.5c.8 0 1.8-.1 1.7 1.1 0 1-.8 1.2-1.7 1.2-12.3 0-24.6 0-37 0-.5 0-1 0-1.4-.4-.4-.3-.5-.7-.4-1.2s.4-.7.9-.7h1.1z"/></g><path d="m39.1 122c1.6-2 3.8-3.3 6-4.4 3.5-1.8 7.2-3 11.1-3.2 1-.1 1.4.3 1.3 1.2-.1.6-.1 1.2 0 1.8.1 1.1 1 1.6 1.9 1 1.7-1 3.4-2 5.1-3 .7-.4 1.4-.3 2.1-.1 8.3 2.6 14.5 7.7 18.4 15.5 2.3 4.7 3.2 9.7 2.8 15-.6 8.7-4.7 15.4-11.3 20.8-.6.5-1.1 1-1.9 1.1-1.5-.4-2.8-1.3-4.2-2.1-3.3-1.9-6.3-4.2-9.1-6.7-.5-.4-1.3-.6-1.3-1.5 0-.2 0-.3.1-.4 3.8-4.4 7.6-8.7 11.4-13.1l7.5-8.7c.8-.9.7-1.5-.2-2.3-1.9-1.5-3.8-3.1-5.8-4.6-1.3-1.1-1.5-1.1-2.6.2-4.7 5.5-9.3 10.9-13.9 16.4-.7.8-1.1.9-1.9.3-2.6-2.1-5.2-4.1-7.9-6.1-.8-.6-1.4-1.4-2.5-1.6-.2-1.4-1-2.6-1.5-3.9-.9-2.2-1.7-4.4-2.4-6.6-.5-1.7-1.1-3.3-1.2-5z" fill="#fcc4a1"/><path d="m37.2 109.4c-.1-3.9.2-7.7.6-11.6.2-1.9.6-3.7 1-5.6.6-2.3 1-4.5 1.8-6.7.9-2.7 1.9-5.3 3.1-7.9 1.4-3 3.1-5.9 4.8-8.7 1.1-1.7 2.4-3.3 3.6-5 .1-.2.4-.3.6-.3 0 3.9 0 7.8.1 11.6 0 .3-.1.6-.3.9-.8 1.1-1.6 2.2-2.4 3.3-2.3 3.3-4.7 6.6-7 9.9-.8 1.2-.5 2.6.6 3.4.7.5 1.6.5 2.4.5h28.3 23.1 21.9c8.2 0 16.3 0 24.5.1h19.8c.4 0 .9 0 1.3-.1 2.1-.4 3-2.2 1.7-4-2.3-3.3-4.7-6.6-7-9.9-.9-1.3-2.2-2.6-2.2-4.1-.2-4.5 0-9 0-13.4 1.3.3 1.8 1.6 2.5 2.5 2 2.5 4.1 5 5.4 8 1.4 3.3 3.6 6.2 4.7 9.7.6 1.8 1.4 3.6 1.9 5.5.8 2.8 1.4 5.6 1.9 8.5.5 2.6.4 5.3.9 7.9-.8-.3-1.6-.5-2.4-.5-20.5 0-41 0-61.5 0-2.4 0-3.9 1.4-3.9 3.8v26c0 2.8 1.3 4.1 4.1 4.1 5.3 0 10.6 0 15.9-.1.9 0 1.3.1 1.3 1.2v27.3c0 .2.2.6-.2.7-.8-1.3-1.4-2.7-1.9-4.1-.7-1.9-1.1-3.9-2.4-5.6-1.4-1.8-3.6-2.5-5.5-1.7-2.1.9-3.4 3-2.8 5.2 1.2 4.7 2 9.6 3.5 14.3-2.6.6-5.3.7-8 1.1-2.2.3-4.5.2-6.8.1-3.8 0-7.6-.6-11.3-1.3-2.2-.4-4.4-.9-6.5-1.6 1.2-1.6 2.8-2.9 4-4.5 5.5-7.2 8.4-15.3 8.5-24.3 0-.8-.1-1.5-1.1-1.5s-1.2.7-1.2 1.5c-.2 4.5-.9 9-2.6 13.3-2.3 5.9-5.8 10.9-10.6 15-.1-.7-.7-.6-1.2-.8-1.6-.7-3.5-1-4.9-2.2.1-.3.3-.4.6-.6 7.4-5.7 11.4-13.3 12.4-22.5.5-4.9-.3-9.8-2.3-14.4-3.7-8.7-9.9-14.7-18.8-17.9-.2-.1-.4-.1-.5-.3-.1-.3.2-.4.4-.5 1.1-.7 2.2-1.4 3.4-2 .7-.4 1.5-.7 1.6-1.6 0-.9-.8-1.1-1.5-1.5-.1-.1-.2-.2-.3-.2-4.2-2.4-8.4-4.9-12.7-7.3-1.1-.6-2-.1-2 1.1v.6c.1.9-.2 1.3-1.2 1.3-1.5 0-3 .2-4.5.5-5.3.8-10.2 2.6-14.7 5.4z" fill="#fcc4a1"/><path d="m155.8 155c-.6.5-1 .5-1.4-.3-1.2-2.4-4.3-3.6-6.7-2.5-1 .4-1.5.3-2.2-.5-1.3-1.5-3.1-2-5.1-1.5-.5.1-1 .3-1.5.5-.3-.4-.2-.9-.2-1.3 0-3.8 0-7.5 0-11.3 0-.7.1-1.1.9-1.1 9.3.1 18.5.1 27.8.1h.2c-.5 2-1.8 3.6-2.8 5.3-2.5 4.2-5.4 8-8.8 11.5-.1.5-.3.7-.2 1.1z" fill="#fcc4a1"/><path d="m37.4 112.2c1.7-1.5 3.7-2.4 5.7-3.3 3-1.4 6.2-2.3 9.5-2.8 1.8-.3 3.6-.5 5.5-.5 1 0 1.7-.3 1.7-1.5 0-.4.1-.9.7-.5 3.3 1.9 6.6 3.8 10 5.8-2.2 1.3-4.2 2.5-6.2 3.6-1.2.7-2.3 1.3-3.5 2-.7.4-1 .3-1-.5-.1-2.6-.2-2.6-2.9-2.4-5.9.3-11.2 2.2-16.1 5.4-.8.5-1.5 1.1-2.3 1.7-.3-1.1-.7-2.2-.7-3.3-.2-1.3-.2-2.5-.4-3.7z" fill="#fcc4a1"/></svg>